<!-- Generator: Adobe Illustrator 22.0.1, SVG Export Plug-In  -->
<svg version="1.1"
	 xmlns="http://www.w3.org/2000/svg" xmlns:xlink="http://www.w3.org/1999/xlink" xmlns:a="http://ns.adobe.com/AdobeSVGViewerExtensions/3.0/"
	 x="0px" y="0px" width="48.35px" height="14.005px" viewBox="0 0 48.35 14.005" style="enable-background:new 0 0 48.35 14.005;"
	 xml:space="preserve">
<style type="text/css">
	.st0{fill:#FFFFFF;}
</style>
<defs>
</defs>
<path class="st0" d="M9.488,14.005l0.003-0.2h0.253c0.695,0,1.26-0.553,1.281-1.243v-5.18H2.839v5.165
	c0.013,0.697,0.582,1.258,1.281,1.258h0.253l0.003,0.2H0l0.003-0.2h0.253c0.7,0,1.268-0.561,1.281-1.258V1.45
	C1.52,0.756,0.954,0.2,0.256,0.2H0.003L0,0h4.376L4.373,0.2H4.12c-0.696,0-1.261,0.555-1.281,1.246v5.336h8.187V1.433
	C10.999,0.748,10.437,0.2,9.745,0.2H9.492L9.488,0h4.376l-0.003,0.2h-0.253c-0.7,0-1.269,0.561-1.281,1.258v11.089
	c0.013,0.697,0.581,1.258,1.281,1.258h0.253l0.003,0.2L9.488,14.005z"/>
<path class="st0" d="M23.988,14.005h-8.127l0.004-0.2h0.274c0.646,0,1.131-0.472,1.155-1.062V3.25c0-0.596-0.505-1.048-1.155-1.048
	h-0.275l-0.003-0.2h5.844c0.805-0.006,1.887-0.178,2.235-0.314v2.264L23.722,3.95V3.642c0-0.561-0.395-1.016-1.003-1.028h-4.147
	v5.089h3.417c0.555-0.011,0.811-0.387,0.811-0.849V6.6l0.218-0.002v2.81l-0.218-0.002V9.151c0-0.45-0.242-0.817-0.764-0.848h-3.464
	v5.089h3.128c1.922-0.026,2.606-0.963,3.174-2.258h0.217L23.988,14.005z"/>
<path class="st0" d="M31.593,2.002c2.522,0,4.067,1.218,4.067,3.239c0,1.697-1.315,3.114-3.11,3.294
	c0.437,0.198,1.112,0.96,1.541,1.568c-0.003,0,0.923,1.254,1.75,2.181c0.814,0.913,1.375,1.51,2.484,1.52v0.201h-0.63
	c-2.213,0-3.086-1.006-3.714-1.76c-0.226-0.272-1.804-2.544-1.96-2.741c-0.542-0.679-1.235-1.347-2.027-1.347V7.972
	c-0.001,0,0.493,0.009,1.147-0.008c1.106-0.028,2.367-0.039,2.941-1.721c0.095-0.28,0.152-0.702,0.14-1.14
	c-0.042-1.499-1.051-2.379-2.661-2.46c-1.124-0.057-2.11-0.007-2.3-0.018v10.096c0.012,0.601,0.493,1.084,1.137,1.084h0.271
	l0.003,0.2H26.58l0.003-0.2h0.27c0.633,0,1.11-0.469,1.136-1.058V3.243c-0.021-0.593-0.5-1.041-1.136-1.041h-0.27l-0.004-0.2
	L31.593,2.002z"/>
<path class="st0" d="M47.248,14.005h-8.127l0.004-0.2h0.274c0.646,0,1.131-0.472,1.155-1.062V3.25c0-0.596-0.505-1.048-1.155-1.048
	h-0.275l-0.003-0.2h5.844c0.805-0.006,1.887-0.178,2.235-0.314v2.264L46.981,3.95V3.642c0-0.561-0.395-1.016-1.003-1.028h-4.147
	v5.089h3.417c0.555-0.011,0.811-0.387,0.811-0.849V6.6l0.218-0.002v2.81l-0.218-0.002V9.151c0-0.45-0.242-0.817-0.764-0.848h-3.464
	v5.089h3.128c1.922-0.026,2.606-0.963,3.174-2.258h0.217L47.248,14.005z"/>
</svg>