<!-- Generator: Adobe Illustrator 22.0.1, SVG Export Plug-In  -->
<svg version="1.1"
	 xmlns="http://www.w3.org/2000/svg" xmlns:xlink="http://www.w3.org/1999/xlink" xmlns:a="http://ns.adobe.com/AdobeSVGViewerExtensions/3.0/"
	 x="0px" y="0px" width="291.99px" height="112.779px" viewBox="0 0 291.99 112.779"
	 style="enable-background:new 0 0 291.99 112.779;" xml:space="preserve">
<style type="text/css">
	.st0{fill:#FFFFFF;}
</style>
<defs>
</defs>
<path class="st0" d="M86.411,12.824c0.404,0.89,1.145,1.259,1.757,1.259h0.167v0.2h-4.504v-0.198h0.176
	c0.517,0,1.052-0.455,0.76-1.256l-1.28-3.407h-5.388l-1.34,3.419c-0.282,0.793,0.251,1.244,0.765,1.244h0.176v0.198h-4.026v-0.2
	h0.18c0.608,0,1.348-0.369,1.752-1.258l4.536-10.765c0,0,0.741-1.621,0.741-2.061h0.181L86.411,12.824z M83.261,8.822l-2.411-6.42
	l-2.517,6.42H83.261z"/>
<path class="st0" d="M95.885,2.283c3.945,0,6.432,2.283,6.432,6.006c0,3.717-2.486,5.995-6.432,5.995h-6.673l0.003-0.2h0.267
	c0.63,0,1.104-0.49,1.122-1.086V3.559c-0.021-0.631-0.515-1.079-1.143-1.079h-0.245l-0.003-0.198L95.885,2.283z M91.907,13.677
	h3.988c3.072,0,4.976-2.047,4.976-5.387c0-3.352-1.904-5.406-4.976-5.406h-3.988V13.677z"/>
<path class="st0" d="M110.785,2.283c3.945,0,6.432,2.283,6.432,6.006c0,3.717-2.486,5.995-6.432,5.995h-6.673l0.003-0.2h0.267
	c0.63,0,1.104-0.49,1.122-1.086V3.559c-0.021-0.631-0.515-1.079-1.143-1.079h-0.245l-0.003-0.198L110.785,2.283z M106.807,13.677
	h3.988c3.072,0,4.976-2.047,4.976-5.387c0-3.352-1.904-5.406-4.976-5.406h-3.988V13.677z"/>
<path class="st0" d="M119.013,14.283l0.004-0.2h0.267c0.744,0,1.345-0.483,1.36-1.083V3.564c-0.015-0.601-0.616-1.084-1.361-1.084
	h-0.267l-0.004-0.2h4.532v0.2h-0.27c-0.728,0-1.321,0.465-1.356,1.049v9.487c0.023,0.593,0.622,1.067,1.357,1.067h0.267l0.003,0.2
	H119.013z"/>
<path class="st0" d="M133.674,2.26c0.795,0,1.888-0.176,2.234-0.314v2.252l-0.213-0.002V3.889c0-0.562-0.394-1.018-1.001-1.028
	h-3.62v10.164c0.026,0.589,0.54,1.06,1.173,1.06h0.232l0.003,0.2h-4.123l0.003-0.2h0.232c0.641,0,1.162-0.483,1.174-1.084V2.86
	h-3.623c-0.607,0.011-1,0.467-1,1.028v0.308l-0.214,0.002V1.946c0.347,0.138,1.44,0.314,2.227,0.314H133.674z"/>
<path class="st0" d="M137.292,14.283l0.004-0.2h0.267c0.744,0,1.345-0.483,1.36-1.083V3.564c-0.015-0.601-0.616-1.084-1.361-1.084
	h-0.267l-0.004-0.2h4.532v0.2h-0.27c-0.728,0-1.321,0.465-1.356,1.049v9.487c0.023,0.593,0.622,1.067,1.357,1.067h0.267l0.003,0.2
	H137.292z"/>
<path class="st0" d="M157.113,8.282c0,3.718-3.018,6.282-6.75,6.282s-6.75-2.564-6.75-6.282c0-3.717,3.019-6.281,6.75-6.281
	S157.113,4.564,157.113,8.282z M155.631,8.282c0-3.383-2.326-5.683-5.269-5.683c-2.943,0-5.268,2.3-5.268,5.683
	c0,3.382,2.325,5.683,5.268,5.683C153.305,13.965,155.631,11.665,155.631,8.282z"/>
<path class="st0" d="M172.877,2.28l-0.003,0.2h-0.333c-0.593,0-1.078,0.443-1.112,1.001v8.53c0,1.289,0.189,2.552,0.189,2.552h-0.19
	l-10.404-9.872v8.347c0.011,0.579,0.505,1.045,1.114,1.045h0.333l0.002,0.2h-3.782l0.003-0.2h0.333c0.608,0,1.102-0.466,1.114-1.045
	V4.48c0-1.366-0.191-2.5-0.191-2.5l0.215,0.01l10.381,9.784V3.479c-0.036-0.557-0.52-0.999-1.112-0.999h-0.333l-0.003-0.2H172.877z"
	/>
<path class="st0" d="M185.24,12.917c0.408,0.823,1.01,1.166,1.544,1.166h0.151v0.2h-4.109v-0.198h0.159
	c0.456,0,0.969-0.434,0.707-1.201l-1.093-2.662h-5.061l-1.102,2.607c-0.306,0.801,0.22,1.256,0.688,1.256h0.159v0.198h-3.812v-0.2
	h0.159c0.532,0,1.158-0.34,1.568-1.156l4.142-8.867c-0.006,0,0.729-1.537,0.77-2.061h0.189L185.24,12.917z M182.353,9.623
	l-2.248-5.475l-2.313,5.475H182.353z"/>
<path class="st0" d="M197.163,11.414l-1.103,2.87h-8.126l0.004-0.2h0.274c0.646,0,1.131-0.472,1.154-1.062V3.565
	c-0.013-0.601-0.542-1.084-1.195-1.084h-0.235l-0.003-0.2h4.145l-0.003,0.2h-0.236c-0.651,0-1.181,0.482-1.194,1.082v10.109h3.13
	c1.92-0.026,2.604-0.963,3.172-2.258H197.163z"/>
<path class="st0" d="M207.403,11.414l-1.103,2.87h-8.126l0.004-0.2h0.274c0.646,0,1.131-0.472,1.154-1.062V3.565
	c-0.013-0.601-0.542-1.084-1.195-1.084h-0.235l-0.003-0.2h4.145l-0.003,0.2h-0.236c-0.651,0-1.181,0.482-1.194,1.082v10.109h3.13
	c1.92-0.026,2.604-0.963,3.172-2.258H207.403z"/>
<path class="st0" d="M218.702,2.28v0.2h-0.254c-0.762,0-1.442,0.484-1.837,1.017l-3.836,5.825v3.677
	c0.012,0.601,0.528,1.084,1.163,1.084h0.229l0.002,0.2h-4.091l0.003-0.2h0.229c0.636,0,1.151-0.484,1.164-1.084V9.294l-3.704-5.808
	c-0.409-0.612-1.068-1.006-1.831-1.006h-0.247v-0.2h4.639v0.2h-0.229c-0.539,0-0.85,0.493-0.684,0.955l2.908,5.183l3.104-5.161
	c0.207-0.497-0.137-0.976-0.683-0.976h-0.229v-0.2L218.702,2.28z"/>
<path class="st0" d="M0,34.464h0.991l2.205,3.555l2.171-3.555h0.996l-2.73,4.5v4.119h-0.85v-4.119L0,34.464z"/>
<path class="st0" d="M9.598,36.544c0.982,0,1.796,0.355,2.442,1.066c0.587,0.648,0.88,1.416,0.88,2.303
	c0,0.891-0.31,1.669-0.93,2.335c-0.621,0.666-1.418,0.999-2.392,0.999c-0.979,0-1.777-0.333-2.398-0.999
	c-0.62-0.666-0.93-1.444-0.93-2.335c0-0.883,0.293-1.648,0.88-2.297C7.795,36.901,8.611,36.544,9.598,36.544z M9.595,37.347
	c-0.682,0-1.268,0.252-1.758,0.756c-0.49,0.504-0.735,1.113-0.735,1.828c0,0.461,0.112,0.891,0.335,1.289
	c0.224,0.398,0.525,0.706,0.906,0.923s0.798,0.325,1.252,0.325s0.872-0.108,1.252-0.325s0.682-0.524,0.906-0.923
	c0.223-0.398,0.335-0.828,0.335-1.289c0-0.715-0.246-1.324-0.738-1.828C10.858,37.599,10.273,37.347,9.595,37.347z"/>
<path class="st0" d="M14.332,36.708h0.82v2.977c0,0.727,0.039,1.227,0.117,1.5c0.118,0.391,0.341,0.699,0.672,0.926
	s0.725,0.34,1.183,0.34c0.458,0,0.846-0.11,1.165-0.331c0.318-0.221,0.539-0.511,0.66-0.87c0.082-0.246,0.123-0.768,0.123-1.564
	v-2.977h0.838v3.129c0,0.879-0.103,1.541-0.308,1.986s-0.514,0.794-0.926,1.046s-0.929,0.378-1.55,0.378s-1.14-0.126-1.556-0.378
	s-0.727-0.604-0.932-1.055s-0.308-1.13-0.308-2.036V36.708z"/>
<path class="st0" d="M25.049,36.708h0.82v1.102c0.286-0.406,0.579-0.703,0.88-0.891c0.415-0.25,0.851-0.375,1.308-0.375
	c0.309,0,0.602,0.061,0.88,0.182s0.504,0.282,0.681,0.483c0.176,0.201,0.329,0.489,0.458,0.864c0.272-0.5,0.614-0.88,1.023-1.14
	s0.85-0.39,1.321-0.39c0.44,0,0.829,0.111,1.167,0.334c0.337,0.223,0.587,0.533,0.751,0.932s0.246,0.996,0.246,1.793v3.48h-0.838
	v-3.48c0-0.684-0.049-1.153-0.146-1.409s-0.264-0.462-0.5-0.618c-0.235-0.156-0.517-0.234-0.844-0.234
	c-0.397,0-0.76,0.117-1.089,0.352c-0.329,0.234-0.569,0.547-0.721,0.938s-0.228,1.043-0.228,1.957v2.496h-0.82v-3.264
	c0-0.77-0.048-1.292-0.144-1.567s-0.263-0.496-0.501-0.662s-0.521-0.249-0.85-0.249c-0.379,0-0.733,0.114-1.063,0.343
	s-0.574,0.536-0.732,0.923s-0.237,0.979-0.237,1.775v2.701h-0.82V36.708z"/>
<path class="st0" d="M42.662,36.708v6.375h-0.809v-1.096c-0.344,0.418-0.729,0.732-1.157,0.943s-0.896,0.316-1.403,0.316
	c-0.902,0-1.673-0.327-2.312-0.981s-0.958-1.45-0.958-2.388c0-0.918,0.322-1.703,0.967-2.355s1.42-0.979,2.326-0.979
	c0.523,0,0.997,0.111,1.421,0.334s0.796,0.557,1.116,1.002v-1.172H42.662z M39.384,37.335c-0.457,0-0.878,0.112-1.264,0.336
	c-0.386,0.225-0.694,0.54-0.922,0.945s-0.342,0.835-0.342,1.288c0,0.449,0.115,0.878,0.345,1.288s0.54,0.729,0.928,0.957
	c0.388,0.228,0.805,0.342,1.25,0.342c0.449,0,0.874-0.113,1.276-0.339c0.402-0.227,0.711-0.533,0.928-0.919
	c0.216-0.386,0.325-0.821,0.325-1.305c0-0.737-0.243-1.354-0.729-1.85C40.692,37.583,40.094,37.335,39.384,37.335z"/>
<path class="st0" d="M43.822,36.708h0.867l2.191,4.909l2.127-4.909h0.873l-3.803,8.707h-0.866l1.227-2.815L43.822,36.708z"/>
<path class="st0" d="M53.66,36.708h0.873l2.14,4.647l2.114-4.647h0.879l-2.918,6.375h-0.152L53.66,36.708z"/>
<path class="st0" d="M61.198,34.083c0.187,0,0.346,0.066,0.479,0.199c0.132,0.133,0.198,0.293,0.198,0.48
	c0,0.184-0.066,0.342-0.198,0.475c-0.132,0.133-0.292,0.199-0.479,0.199c-0.183,0-0.34-0.066-0.473-0.199s-0.198-0.291-0.198-0.475
	c0-0.188,0.066-0.348,0.198-0.48S61.016,34.083,61.198,34.083z M60.791,36.708h0.82v6.375h-0.82V36.708z"/>
<path class="st0" d="M68.684,40.968l0.691,0.363c-0.227,0.445-0.489,0.805-0.786,1.078c-0.297,0.273-0.631,0.481-1.002,0.624
	c-0.372,0.143-0.792,0.214-1.261,0.214c-1.04,0-1.853-0.341-2.439-1.022s-0.88-1.452-0.88-2.312c0-0.809,0.248-1.529,0.745-2.162
	c0.629-0.805,1.472-1.207,2.528-1.207c1.087,0,1.955,0.412,2.604,1.236c0.461,0.582,0.696,1.309,0.704,2.18H63.85
	c0.016,0.74,0.252,1.348,0.71,1.821c0.458,0.474,1.022,0.71,1.695,0.71c0.325,0,0.64-0.057,0.947-0.169s0.568-0.263,0.783-0.449
	C68.201,41.686,68.433,41.384,68.684,40.968z M68.684,39.251c-0.109-0.438-0.269-0.787-0.478-1.049
	c-0.209-0.262-0.486-0.473-0.83-0.633c-0.344-0.16-0.706-0.24-1.085-0.24c-0.626,0-1.164,0.201-1.613,0.604
	c-0.329,0.293-0.577,0.732-0.745,1.318H68.684z"/>
<path class="st0" d="M70.254,36.708h0.844l1.954,4.629l2.034-4.629h0.148l2.048,4.629l1.992-4.629h0.853l-2.77,6.375h-0.152
	l-2.039-4.564l-2.037,4.564h-0.153L70.254,36.708z"/>
<path class="st0" d="M84.404,36.708h0.82v1.102c0.286-0.406,0.579-0.703,0.88-0.891c0.415-0.25,0.851-0.375,1.308-0.375
	c0.309,0,0.602,0.061,0.88,0.182s0.504,0.282,0.681,0.483c0.176,0.201,0.329,0.489,0.458,0.864c0.272-0.5,0.614-0.88,1.023-1.14
	s0.85-0.39,1.321-0.39c0.44,0,0.829,0.111,1.167,0.334c0.337,0.223,0.587,0.533,0.751,0.932s0.246,0.996,0.246,1.793v3.48H93.1
	v-3.48c0-0.684-0.049-1.153-0.146-1.409s-0.264-0.462-0.5-0.618c-0.235-0.156-0.517-0.234-0.844-0.234
	c-0.397,0-0.76,0.117-1.089,0.352c-0.329,0.234-0.569,0.547-0.721,0.938s-0.228,1.043-0.228,1.957v2.496h-0.82v-3.264
	c0-0.77-0.048-1.292-0.144-1.567s-0.263-0.496-0.501-0.662s-0.521-0.249-0.85-0.249c-0.379,0-0.733,0.114-1.063,0.343
	s-0.574,0.536-0.732,0.923s-0.237,0.979-0.237,1.775v2.701h-0.82V36.708z"/>
<path class="st0" d="M94.98,36.708h0.867l2.191,4.909l2.127-4.909h0.873l-3.803,8.707H96.37l1.227-2.815L94.98,36.708z"/>
<path class="st0" d="M105.434,36.708h0.82v1.172c0.324-0.445,0.696-0.779,1.118-1.002c0.421-0.223,0.892-0.334,1.411-0.334
	c0.905,0,1.68,0.326,2.324,0.979s0.966,1.438,0.966,2.355c0,0.938-0.319,1.733-0.957,2.388s-1.408,0.981-2.309,0.981
	c-0.507,0-0.974-0.105-1.399-0.316c-0.426-0.211-0.81-0.525-1.153-0.943v3.428h-0.82V36.708z M108.715,37.335
	c-0.709,0-1.307,0.248-1.792,0.743c-0.485,0.496-0.728,1.112-0.728,1.85c0,0.484,0.108,0.919,0.324,1.305s0.526,0.692,0.93,0.919
	c0.403,0.226,0.829,0.339,1.277,0.339c0.44,0,0.854-0.114,1.242-0.342c0.388-0.229,0.697-0.547,0.927-0.957
	c0.229-0.41,0.345-0.839,0.345-1.288c0-0.453-0.114-0.882-0.342-1.288c-0.228-0.406-0.535-0.721-0.921-0.945
	C109.592,37.447,109.171,37.335,108.715,37.335z"/>
<path class="st0" d="M116.625,36.544c0.982,0,1.796,0.355,2.442,1.066c0.587,0.648,0.88,1.416,0.88,2.303
	c0,0.891-0.31,1.669-0.93,2.335c-0.621,0.666-1.418,0.999-2.392,0.999c-0.979,0-1.777-0.333-2.398-0.999
	c-0.62-0.666-0.93-1.444-0.93-2.335c0-0.883,0.293-1.648,0.88-2.297C114.823,36.901,115.639,36.544,116.625,36.544z M116.622,37.347
	c-0.682,0-1.268,0.252-1.758,0.756c-0.49,0.504-0.735,1.113-0.735,1.828c0,0.461,0.112,0.891,0.335,1.289
	c0.224,0.398,0.525,0.706,0.906,0.923s0.798,0.325,1.252,0.325s0.872-0.108,1.252-0.325s0.682-0.524,0.906-0.923
	c0.223-0.398,0.335-0.828,0.335-1.289c0-0.715-0.246-1.324-0.738-1.828C117.885,37.599,117.3,37.347,116.622,37.347z"/>
<path class="st0" d="M121.154,36.708h0.838v0.932c0.25-0.367,0.514-0.642,0.791-0.823s0.566-0.272,0.867-0.272
	c0.227,0,0.469,0.072,0.727,0.217l-0.428,0.691c-0.172-0.074-0.316-0.111-0.434-0.111c-0.273,0-0.537,0.112-0.791,0.337
	s-0.447,0.573-0.58,1.046c-0.102,0.363-0.152,1.098-0.152,2.203v2.156h-0.838V36.708z"/>
<path class="st0" d="M125.789,34.341h0.82v2.367h1.301v0.709h-1.301v5.666h-0.82v-5.666h-1.119v-0.709h1.119V34.341z"/>
<path class="st0" d="M131.766,34.247v0.803c-0.301-0.129-0.559-0.193-0.773-0.193c-0.16,0-0.293,0.032-0.398,0.097
	s-0.172,0.139-0.199,0.223s-0.041,0.308-0.041,0.671l-0.001,0.861h1.331v0.709h-1.332l-0.004,5.666h-0.82v-5.666h-0.838v-0.709
	h0.838v-0.996c0-0.457,0.042-0.783,0.126-0.979s0.227-0.353,0.428-0.472s0.444-0.179,0.729-0.179
	C131.076,34.083,131.395,34.138,131.766,34.247z"/>
<path class="st0" d="M135.926,36.544c0.982,0,1.796,0.355,2.442,1.066c0.587,0.648,0.88,1.416,0.88,2.303
	c0,0.891-0.31,1.669-0.93,2.335c-0.621,0.666-1.418,0.999-2.392,0.999c-0.979,0-1.777-0.333-2.398-0.999
	c-0.62-0.666-0.93-1.444-0.93-2.335c0-0.883,0.293-1.648,0.88-2.297C134.124,36.901,134.939,36.544,135.926,36.544z M135.923,37.347
	c-0.682,0-1.268,0.252-1.758,0.756c-0.49,0.504-0.735,1.113-0.735,1.828c0,0.461,0.112,0.891,0.335,1.289
	c0.224,0.398,0.525,0.706,0.906,0.923s0.798,0.325,1.252,0.325s0.872-0.108,1.252-0.325s0.682-0.524,0.906-0.923
	c0.223-0.398,0.335-0.828,0.335-1.289c0-0.715-0.246-1.324-0.738-1.828C137.186,37.599,136.601,37.347,135.923,37.347z"/>
<path class="st0" d="M140.643,34.247h0.82v8.836h-0.82V34.247z"/>
<path class="st0" d="M143.452,34.083c0.187,0,0.346,0.066,0.479,0.199c0.132,0.133,0.198,0.293,0.198,0.48
	c0,0.184-0.066,0.342-0.198,0.475c-0.132,0.133-0.292,0.199-0.479,0.199c-0.183,0-0.34-0.066-0.473-0.199s-0.198-0.291-0.198-0.475
	c0-0.188,0.066-0.348,0.198-0.48S143.27,34.083,143.452,34.083z M143.045,36.708h0.82v6.375h-0.82V36.708z"/>
<path class="st0" d="M148.588,36.544c0.982,0,1.796,0.355,2.442,1.066c0.587,0.648,0.88,1.416,0.88,2.303
	c0,0.891-0.31,1.669-0.93,2.335c-0.621,0.666-1.418,0.999-2.392,0.999c-0.979,0-1.777-0.333-2.398-0.999
	c-0.62-0.666-0.93-1.444-0.93-2.335c0-0.883,0.293-1.648,0.88-2.297C146.786,36.901,147.602,36.544,148.588,36.544z M148.585,37.347
	c-0.682,0-1.268,0.252-1.758,0.756c-0.49,0.504-0.735,1.113-0.735,1.828c0,0.461,0.112,0.891,0.335,1.289
	c0.224,0.398,0.525,0.706,0.906,0.923s0.798,0.325,1.252,0.325s0.872-0.108,1.252-0.325s0.682-0.524,0.906-0.923
	c0.223-0.398,0.335-0.828,0.335-1.289c0-0.715-0.246-1.324-0.738-1.828C149.848,37.599,149.263,37.347,148.585,37.347z"/>
<path class="st0" d="M159.768,36.544c0.982,0,1.796,0.355,2.442,1.066c0.587,0.648,0.88,1.416,0.88,2.303
	c0,0.891-0.31,1.669-0.93,2.335c-0.621,0.666-1.418,0.999-2.392,0.999c-0.979,0-1.777-0.333-2.398-0.999
	c-0.62-0.666-0.93-1.444-0.93-2.335c0-0.883,0.293-1.648,0.88-2.297C157.965,36.901,158.781,36.544,159.768,36.544z M159.765,37.347
	c-0.682,0-1.268,0.252-1.758,0.756c-0.49,0.504-0.735,1.113-0.735,1.828c0,0.461,0.112,0.891,0.335,1.289
	c0.224,0.398,0.525,0.706,0.906,0.923s0.798,0.325,1.252,0.325s0.872-0.108,1.252-0.325s0.682-0.524,0.906-0.923
	c0.223-0.398,0.335-0.828,0.335-1.289c0-0.715-0.246-1.324-0.738-1.828C161.028,37.599,160.443,37.347,159.765,37.347z"/>
<path class="st0" d="M164.607,36.708h0.82v1.143c0.328-0.438,0.691-0.765,1.09-0.981s0.832-0.325,1.301-0.325
	c0.477,0,0.899,0.121,1.269,0.363s0.642,0.568,0.817,0.979s0.264,1.049,0.264,1.916v3.281h-0.82v-3.041
	c0-0.734-0.03-1.225-0.091-1.471c-0.095-0.422-0.277-0.739-0.547-0.952s-0.621-0.319-1.055-0.319c-0.497,0-0.941,0.164-1.333,0.492
	s-0.651,0.734-0.776,1.219c-0.078,0.316-0.117,0.895-0.117,1.734v2.338h-0.82V36.708z"/>
<path class="st0" d="M175.406,34.464h1.699c0.684,0,1.209,0.081,1.576,0.243s0.657,0.411,0.87,0.747s0.319,0.709,0.319,1.119
	c0,0.383-0.093,0.731-0.28,1.046s-0.461,0.569-0.822,0.765c0.448,0.152,0.792,0.331,1.034,0.536
	c0.241,0.205,0.429,0.453,0.563,0.744s0.202,0.606,0.202,0.946c0,0.691-0.253,1.276-0.759,1.755s-1.185,0.718-2.036,0.718h-2.367
	V34.464z M176.25,35.308v2.76h0.493c0.599,0,1.04-0.056,1.321-0.167s0.505-0.287,0.669-0.527s0.247-0.507,0.247-0.8
	c0-0.395-0.138-0.704-0.414-0.929s-0.715-0.337-1.318-0.337H176.25z M176.25,38.935v3.305h1.068c0.63,0,1.092-0.062,1.385-0.185
	s0.529-0.315,0.707-0.577s0.267-0.545,0.267-0.85c0-0.383-0.125-0.717-0.375-1.002s-0.594-0.48-1.032-0.586
	c-0.293-0.07-0.805-0.105-1.533-0.105H176.25z"/>
<path class="st0" d="M187.506,40.968l0.691,0.363c-0.227,0.445-0.489,0.805-0.786,1.078c-0.297,0.273-0.631,0.481-1.002,0.624
	c-0.372,0.143-0.792,0.214-1.261,0.214c-1.04,0-1.853-0.341-2.439-1.022s-0.88-1.452-0.88-2.312c0-0.809,0.248-1.529,0.745-2.162
	c0.629-0.805,1.472-1.207,2.528-1.207c1.087,0,1.955,0.412,2.604,1.236c0.461,0.582,0.696,1.309,0.704,2.18h-5.736
	c0.016,0.74,0.252,1.348,0.71,1.821c0.458,0.474,1.022,0.71,1.695,0.71c0.325,0,0.64-0.057,0.947-0.169s0.568-0.263,0.783-0.449
	C187.023,41.686,187.255,41.384,187.506,40.968z M187.506,39.251c-0.109-0.438-0.269-0.787-0.478-1.049
	c-0.209-0.262-0.486-0.473-0.83-0.633c-0.344-0.16-0.706-0.24-1.085-0.24c-0.626,0-1.164,0.201-1.613,0.604
	c-0.329,0.293-0.577,0.732-0.745,1.318H187.506z"/>
<path class="st0" d="M189.938,34.247h0.82v3.604c0.332-0.438,0.697-0.765,1.096-0.981s0.83-0.325,1.295-0.325
	c0.477,0,0.899,0.121,1.269,0.363s0.642,0.567,0.817,0.976s0.264,1.048,0.264,1.919v3.281h-0.82v-3.041
	c0-0.734-0.029-1.225-0.088-1.471c-0.102-0.422-0.286-0.739-0.554-0.952s-0.618-0.319-1.052-0.319c-0.496,0-0.94,0.164-1.333,0.492
	s-0.651,0.734-0.776,1.219c-0.078,0.312-0.117,0.891-0.117,1.734v2.338h-0.82V34.247z"/>
<path class="st0" d="M203.607,36.708v6.375h-0.809v-1.096c-0.344,0.418-0.729,0.732-1.157,0.943s-0.896,0.316-1.403,0.316
	c-0.902,0-1.673-0.327-2.312-0.981s-0.958-1.45-0.958-2.388c0-0.918,0.322-1.703,0.967-2.355s1.42-0.979,2.326-0.979
	c0.523,0,0.997,0.111,1.421,0.334s0.796,0.557,1.116,1.002v-1.172H203.607z M200.329,37.335c-0.457,0-0.878,0.112-1.264,0.336
	c-0.386,0.225-0.694,0.54-0.922,0.945s-0.342,0.835-0.342,1.288c0,0.449,0.115,0.878,0.345,1.288s0.54,0.729,0.928,0.957
	c0.388,0.228,0.805,0.342,1.25,0.342c0.449,0,0.874-0.113,1.276-0.339c0.402-0.227,0.711-0.533,0.928-0.919
	c0.216-0.386,0.325-0.821,0.325-1.305c0-0.737-0.243-1.354-0.729-1.85C201.637,37.583,201.039,37.335,200.329,37.335z"/>
<path class="st0" d="M205.453,36.708h0.82v1.143c0.328-0.438,0.691-0.765,1.09-0.981s0.832-0.325,1.301-0.325
	c0.477,0,0.899,0.121,1.269,0.363s0.642,0.568,0.817,0.979s0.264,1.049,0.264,1.916v3.281h-0.82v-3.041
	c0-0.734-0.03-1.225-0.091-1.471c-0.095-0.422-0.277-0.739-0.547-0.952S208.934,37.3,208.5,37.3c-0.497,0-0.941,0.164-1.333,0.492
	s-0.651,0.734-0.776,1.219c-0.078,0.316-0.117,0.895-0.117,1.734v2.338h-0.82V36.708z"/>
<path class="st0" d="M218.959,38.032l-0.65,0.404c-0.562-0.746-1.329-1.119-2.3-1.119c-0.776,0-1.421,0.25-1.934,0.749
	c-0.513,0.5-0.77,1.106-0.77,1.82c0,0.464,0.118,0.901,0.354,1.311s0.56,0.728,0.972,0.954c0.412,0.226,0.873,0.339,1.384,0.339
	c0.937,0,1.701-0.373,2.294-1.119l0.65,0.428c-0.305,0.459-0.714,0.815-1.228,1.068s-1.099,0.379-1.755,0.379
	c-1.008,0-1.844-0.32-2.508-0.961s-0.996-1.42-0.996-2.338c0-0.617,0.155-1.19,0.466-1.72s0.737-0.942,1.28-1.239
	s1.15-0.445,1.822-0.445c0.422,0,0.829,0.064,1.222,0.193s0.726,0.297,0.999,0.504S218.768,37.712,218.959,38.032z"/>
<path class="st0" d="M225.902,40.968l0.691,0.363c-0.227,0.445-0.489,0.805-0.786,1.078c-0.297,0.273-0.631,0.481-1.002,0.624
	c-0.372,0.143-0.792,0.214-1.261,0.214c-1.04,0-1.853-0.341-2.439-1.022s-0.88-1.452-0.88-2.312c0-0.809,0.248-1.529,0.745-2.162
	c0.629-0.805,1.472-1.207,2.528-1.207c1.087,0,1.955,0.412,2.604,1.236c0.461,0.582,0.696,1.309,0.704,2.18h-5.736
	c0.016,0.74,0.252,1.348,0.71,1.821c0.458,0.474,1.022,0.71,1.695,0.71c0.325,0,0.64-0.057,0.947-0.169s0.568-0.263,0.783-0.449
	C225.419,41.686,225.652,41.384,225.902,40.968z M225.902,39.251c-0.109-0.438-0.269-0.787-0.478-1.049
	c-0.209-0.262-0.486-0.473-0.83-0.633c-0.344-0.16-0.706-0.24-1.085-0.24c-0.626,0-1.164,0.201-1.613,0.604
	c-0.329,0.293-0.577,0.732-0.745,1.318H225.902z"/>
<path class="st0" d="M231.709,43.083v-8.836h0.82v3.557c0.343-0.422,0.728-0.737,1.153-0.946c0.425-0.209,0.892-0.313,1.399-0.313
	c0.901,0,1.671,0.327,2.309,0.981s0.957,1.448,0.957,2.382c0,0.922-0.322,1.709-0.966,2.361s-1.418,0.979-2.324,0.979
	c-0.519,0-0.989-0.111-1.411-0.334c-0.422-0.223-0.794-0.557-1.118-1.002v1.172H231.709z M234.99,42.456
	c0.456,0,0.877-0.112,1.263-0.337s0.693-0.54,0.921-0.946c0.228-0.406,0.342-0.836,0.342-1.289s-0.115-0.885-0.345-1.295
	c-0.23-0.41-0.539-0.729-0.927-0.958s-0.802-0.343-1.242-0.343c-0.448,0-0.874,0.114-1.277,0.343s-0.713,0.536-0.93,0.923
	s-0.324,0.822-0.324,1.307c0,0.738,0.243,1.355,0.728,1.852C233.684,42.208,234.281,42.456,234.99,42.456z"/>
<path class="st0" d="M239.156,36.708h0.867l2.191,4.909l2.127-4.909h0.873l-3.803,8.707h-0.866l1.227-2.815L239.156,36.708z"/>
<path class="st0" d="M255.785,38.032l-0.65,0.404c-0.562-0.746-1.329-1.119-2.3-1.119c-0.776,0-1.421,0.25-1.934,0.749
	c-0.513,0.5-0.77,1.106-0.77,1.82c0,0.464,0.118,0.901,0.354,1.311s0.56,0.728,0.972,0.954c0.412,0.226,0.873,0.339,1.384,0.339
	c0.937,0,1.701-0.373,2.294-1.119l0.65,0.428c-0.305,0.459-0.714,0.815-1.228,1.068s-1.099,0.379-1.755,0.379
	c-1.008,0-1.844-0.32-2.508-0.961s-0.996-1.42-0.996-2.338c0-0.617,0.155-1.19,0.466-1.72s0.737-0.942,1.28-1.239
	s1.15-0.445,1.822-0.445c0.422,0,0.829,0.064,1.222,0.193s0.726,0.297,0.999,0.504S255.594,37.712,255.785,38.032z"/>
<path class="st0" d="M257.238,34.247h0.82v8.836h-0.82V34.247z"/>
<path class="st0" d="M260.048,34.083c0.187,0,0.346,0.066,0.479,0.199c0.132,0.133,0.198,0.293,0.198,0.48
	c0,0.184-0.066,0.342-0.198,0.475c-0.132,0.133-0.292,0.199-0.479,0.199c-0.183,0-0.34-0.066-0.473-0.199s-0.198-0.291-0.198-0.475
	c0-0.188,0.066-0.348,0.198-0.48S259.865,34.083,260.048,34.083z M259.641,36.708h0.82v6.375h-0.82V36.708z"/>
<path class="st0" d="M268.354,38.032l-0.65,0.404c-0.562-0.746-1.329-1.119-2.3-1.119c-0.776,0-1.421,0.25-1.934,0.749
	c-0.513,0.5-0.77,1.106-0.77,1.82c0,0.464,0.118,0.901,0.354,1.311s0.56,0.728,0.972,0.954c0.412,0.226,0.873,0.339,1.384,0.339
	c0.937,0,1.701-0.373,2.294-1.119l0.65,0.428c-0.305,0.459-0.714,0.815-1.228,1.068s-1.099,0.379-1.755,0.379
	c-1.008,0-1.844-0.32-2.508-0.961s-0.996-1.42-0.996-2.338c0-0.617,0.155-1.19,0.466-1.72s0.737-0.942,1.28-1.239
	s1.15-0.445,1.822-0.445c0.422,0,0.829,0.064,1.222,0.193s0.726,0.297,0.999,0.504S268.162,37.712,268.354,38.032z"/>
<path class="st0" d="M269.924,34.247h0.82v5.034l2.956-2.573h1.205l-3.504,3.041l3.709,3.334h-1.155l-3.21-2.87v2.87h-0.82V34.247z"
	/>
<path class="st0" d="M276.237,34.083c0.187,0,0.346,0.066,0.479,0.199c0.132,0.133,0.198,0.293,0.198,0.48
	c0,0.184-0.066,0.342-0.198,0.475c-0.132,0.133-0.292,0.199-0.479,0.199c-0.183,0-0.34-0.066-0.473-0.199s-0.198-0.291-0.198-0.475
	c0-0.188,0.066-0.348,0.198-0.48S276.055,34.083,276.237,34.083z M275.83,36.708h0.82v6.375h-0.82V36.708z"/>
<path class="st0" d="M278.355,36.708h0.82v1.143c0.328-0.438,0.691-0.765,1.09-0.981s0.832-0.325,1.301-0.325
	c0.477,0,0.899,0.121,1.269,0.363s0.642,0.568,0.817,0.979s0.264,1.049,0.264,1.916v3.281h-0.82v-3.041
	c0-0.734-0.03-1.225-0.091-1.471c-0.095-0.422-0.277-0.739-0.547-0.952s-0.621-0.319-1.055-0.319c-0.497,0-0.941,0.164-1.333,0.492
	s-0.651,0.734-0.776,1.219c-0.078,0.316-0.117,0.895-0.117,1.734v2.338h-0.82V36.708z"/>
<path class="st0" d="M291.17,36.708h0.82v5.08c0,0.895-0.078,1.549-0.234,1.963c-0.215,0.586-0.588,1.037-1.119,1.354
	s-1.17,0.475-1.916,0.475c-0.547,0-1.038-0.078-1.474-0.232c-0.436-0.155-0.79-0.363-1.063-0.623
	c-0.273-0.261-0.525-0.642-0.756-1.143h0.891c0.242,0.422,0.555,0.734,0.938,0.938s0.858,0.305,1.426,0.305
	c0.559,0,1.031-0.104,1.417-0.312c0.385-0.208,0.66-0.47,0.824-0.785c0.165-0.315,0.247-0.825,0.247-1.527V41.87
	c-0.309,0.391-0.687,0.69-1.132,0.899c-0.446,0.209-0.919,0.313-1.419,0.313c-0.587,0-1.138-0.146-1.654-0.437
	s-0.915-0.683-1.196-1.175c-0.282-0.492-0.422-1.033-0.422-1.623s0.146-1.14,0.44-1.649s0.699-0.913,1.217-1.21
	s1.065-0.445,1.64-0.445c0.477,0,0.922,0.099,1.334,0.296c0.412,0.197,0.81,0.522,1.193,0.976V36.708z M288.75,37.335
	c-0.465,0-0.896,0.112-1.295,0.337s-0.711,0.535-0.938,0.932s-0.34,0.825-0.34,1.286c0,0.699,0.234,1.277,0.703,1.734
	s1.076,0.686,1.822,0.686c0.754,0,1.36-0.227,1.819-0.68s0.688-1.049,0.688-1.787c0-0.48-0.105-0.909-0.316-1.286
	s-0.51-0.675-0.896-0.894S289.195,37.335,288.75,37.335z"/>
<path class="st0" d="M69.015,101.664l4.02,8.619h-0.93l-1.356-2.836h-3.713l-1.343,2.836h-0.961l4.072-8.619H69.015z
	 M68.906,103.495l-1.477,3.12h2.947L68.906,103.495z"/>
<path class="st0" d="M74.235,103.908h0.82v1.143c0.328-0.438,0.691-0.765,1.09-0.981s0.832-0.325,1.301-0.325
	c0.477,0,0.899,0.121,1.269,0.363s0.642,0.568,0.817,0.979s0.264,1.049,0.264,1.916v3.281h-0.82v-3.041
	c0-0.734-0.03-1.225-0.091-1.471c-0.095-0.422-0.277-0.739-0.547-0.952s-0.621-0.319-1.055-0.319c-0.497,0-0.941,0.164-1.333,0.492
	s-0.651,0.734-0.776,1.219c-0.078,0.316-0.117,0.895-0.117,1.734v2.338h-0.82V103.908z"/>
<path class="st0" d="M87.917,101.447v8.836h-0.809v-1.096c-0.344,0.418-0.729,0.732-1.157,0.943s-0.896,0.316-1.403,0.316
	c-0.902,0-1.673-0.327-2.312-0.981s-0.958-1.45-0.958-2.388c0-0.918,0.322-1.703,0.967-2.355s1.42-0.979,2.326-0.979
	c0.523,0,0.997,0.111,1.421,0.334s0.796,0.557,1.116,1.002v-3.633H87.917z M84.639,104.535c-0.457,0-0.878,0.112-1.264,0.336
	c-0.386,0.225-0.694,0.54-0.922,0.945s-0.342,0.835-0.342,1.288c0,0.449,0.115,0.878,0.345,1.288s0.54,0.729,0.928,0.957
	c0.388,0.228,0.805,0.342,1.25,0.342c0.449,0,0.874-0.113,1.276-0.339c0.402-0.227,0.711-0.533,0.928-0.919
	c0.216-0.386,0.325-0.821,0.325-1.305c0-0.737-0.243-1.354-0.729-1.85C85.947,104.783,85.349,104.535,84.639,104.535z"/>
<path class="st0" d="M93.091,103.908h0.82v1.102c0.286-0.406,0.579-0.703,0.88-0.891c0.415-0.25,0.851-0.375,1.308-0.375
	c0.309,0,0.602,0.061,0.88,0.182s0.504,0.282,0.681,0.483c0.176,0.201,0.329,0.489,0.458,0.864c0.272-0.5,0.614-0.88,1.023-1.14
	s0.85-0.39,1.321-0.39c0.44,0,0.829,0.111,1.167,0.334c0.337,0.223,0.587,0.533,0.751,0.932s0.246,0.996,0.246,1.793v3.48h-0.838
	v-3.48c0-0.684-0.049-1.153-0.146-1.409s-0.264-0.462-0.5-0.618c-0.235-0.156-0.517-0.234-0.844-0.234
	c-0.397,0-0.76,0.117-1.089,0.352c-0.329,0.234-0.569,0.547-0.721,0.938s-0.228,1.043-0.228,1.957v2.496h-0.82v-3.264
	c0-0.77-0.048-1.292-0.144-1.567s-0.263-0.496-0.501-0.662s-0.521-0.249-0.85-0.249c-0.379,0-0.733,0.114-1.063,0.343
	s-0.574,0.536-0.732,0.923s-0.237,0.979-0.237,1.775v2.701h-0.82V103.908z"/>
<path class="st0" d="M103.667,103.908h0.867l2.191,4.909l2.127-4.909h0.873l-3.803,8.707h-0.866l1.227-2.815L103.667,103.908z"/>
<path class="st0" d="M114.29,101.664h1.717c0.957,0,1.605,0.039,1.945,0.117c0.512,0.118,0.928,0.369,1.248,0.754
	s0.48,0.859,0.48,1.423c0,0.469-0.11,0.882-0.331,1.238s-0.536,0.625-0.946,0.807c-0.41,0.182-0.977,0.275-1.699,0.279l3.1,4.002
	h-1.065l-3.1-4.002h-0.487v4.002h-0.861V101.664z M115.151,102.508v2.93l1.485,0.012c0.575,0,1-0.055,1.276-0.164
	s0.491-0.284,0.646-0.524c0.155-0.24,0.232-0.509,0.232-0.806c0-0.289-0.078-0.552-0.235-0.788
	c-0.156-0.236-0.362-0.405-0.616-0.507s-0.677-0.152-1.268-0.152H115.151z"/>
<path class="st0" d="M126.759,108.168l0.691,0.363c-0.227,0.445-0.489,0.805-0.786,1.078c-0.297,0.273-0.631,0.481-1.002,0.624
	c-0.372,0.143-0.792,0.214-1.261,0.214c-1.04,0-1.853-0.341-2.439-1.022s-0.88-1.452-0.88-2.312c0-0.809,0.248-1.529,0.745-2.162
	c0.629-0.805,1.472-1.207,2.528-1.207c1.087,0,1.955,0.412,2.604,1.236c0.461,0.582,0.696,1.309,0.704,2.18h-5.736
	c0.016,0.74,0.252,1.348,0.71,1.821c0.458,0.474,1.022,0.71,1.695,0.71c0.325,0,0.64-0.057,0.947-0.169s0.568-0.263,0.783-0.449
	C126.276,108.886,126.508,108.584,126.759,108.168z M126.759,106.451c-0.109-0.438-0.269-0.787-0.478-1.049
	c-0.209-0.262-0.486-0.473-0.83-0.633c-0.344-0.16-0.706-0.24-1.085-0.24c-0.626,0-1.164,0.201-1.613,0.604
	c-0.329,0.293-0.577,0.732-0.745,1.318H126.759z"/>
<path class="st0" d="M132.396,104.605l-0.527,0.545c-0.438-0.426-0.868-0.639-1.287-0.639c-0.266,0-0.495,0.088-0.684,0.264
	c-0.19,0.176-0.285,0.381-0.285,0.615c0,0.207,0.078,0.404,0.235,0.592c0.157,0.191,0.485,0.416,0.986,0.674
	c0.611,0.316,1.026,0.621,1.245,0.914c0.215,0.297,0.323,0.631,0.323,1.002c0,0.523-0.184,0.967-0.552,1.33
	s-0.827,0.545-1.379,0.545c-0.368,0-0.719-0.08-1.053-0.24s-0.611-0.381-0.831-0.662l0.516-0.586
	c0.419,0.473,0.863,0.709,1.333,0.709c0.329,0,0.609-0.105,0.84-0.316s0.347-0.459,0.347-0.744c0-0.234-0.076-0.443-0.229-0.627
	c-0.153-0.18-0.497-0.406-1.033-0.68c-0.576-0.297-0.967-0.59-1.175-0.879s-0.311-0.619-0.311-0.99c0-0.484,0.165-0.887,0.496-1.207
	c0.331-0.32,0.748-0.48,1.253-0.48C131.21,103.744,131.801,104.031,132.396,104.605z"/>
<path class="st0" d="M133.743,103.908h0.82v2.977c0,0.727,0.039,1.227,0.117,1.5c0.118,0.391,0.341,0.699,0.672,0.926
	s0.725,0.34,1.183,0.34c0.458,0,0.846-0.11,1.165-0.331c0.318-0.221,0.539-0.511,0.66-0.87c0.082-0.246,0.123-0.768,0.123-1.564
	v-2.977h0.838v3.129c0,0.879-0.103,1.541-0.308,1.986s-0.514,0.794-0.926,1.046s-0.929,0.378-1.55,0.378s-1.14-0.126-1.556-0.378
	s-0.727-0.604-0.932-1.055s-0.308-1.13-0.308-2.036V103.908z"/>
<path class="st0" d="M141.138,103.908h0.82v1.102c0.286-0.406,0.579-0.703,0.88-0.891c0.415-0.25,0.851-0.375,1.308-0.375
	c0.309,0,0.602,0.061,0.88,0.182s0.504,0.282,0.681,0.483c0.176,0.201,0.329,0.489,0.458,0.864c0.272-0.5,0.614-0.88,1.023-1.14
	s0.85-0.39,1.321-0.39c0.44,0,0.829,0.111,1.167,0.334c0.337,0.223,0.587,0.533,0.751,0.932s0.246,0.996,0.246,1.793v3.48h-0.838
	v-3.48c0-0.684-0.049-1.153-0.146-1.409s-0.264-0.462-0.5-0.618c-0.235-0.156-0.517-0.234-0.844-0.234
	c-0.397,0-0.76,0.117-1.089,0.352c-0.329,0.234-0.569,0.547-0.721,0.938s-0.228,1.043-0.228,1.957v2.496h-0.82v-3.264
	c0-0.77-0.048-1.292-0.144-1.567s-0.263-0.496-0.501-0.662s-0.521-0.249-0.85-0.249c-0.379,0-0.733,0.114-1.063,0.343
	s-0.574,0.536-0.732,0.923s-0.237,0.979-0.237,1.775v2.701h-0.82V103.908z"/>
<path class="st0" d="M157.767,108.168l0.691,0.363c-0.227,0.445-0.489,0.805-0.786,1.078c-0.297,0.273-0.631,0.481-1.002,0.624
	c-0.372,0.143-0.792,0.214-1.261,0.214c-1.04,0-1.853-0.341-2.439-1.022s-0.88-1.452-0.88-2.312c0-0.809,0.248-1.529,0.745-2.162
	c0.629-0.805,1.472-1.207,2.528-1.207c1.087,0,1.955,0.412,2.604,1.236c0.461,0.582,0.696,1.309,0.704,2.18h-5.736
	c0.016,0.74,0.252,1.348,0.71,1.821c0.458,0.474,1.022,0.71,1.695,0.71c0.325,0,0.64-0.057,0.947-0.169s0.568-0.263,0.783-0.449
	C157.284,108.886,157.516,108.584,157.767,108.168z M157.767,106.451c-0.109-0.438-0.269-0.787-0.478-1.049
	c-0.209-0.262-0.486-0.473-0.83-0.633c-0.344-0.16-0.706-0.24-1.085-0.24c-0.626,0-1.164,0.201-1.613,0.604
	c-0.329,0.293-0.577,0.732-0.745,1.318H157.767z"/>
<path class="st0" d="M163.573,110.283v-8.836h0.82v3.557c0.343-0.422,0.728-0.737,1.153-0.946c0.425-0.209,0.892-0.313,1.399-0.313
	c0.901,0,1.671,0.327,2.309,0.981s0.957,1.448,0.957,2.382c0,0.922-0.322,1.709-0.966,2.361s-1.418,0.979-2.324,0.979
	c-0.519,0-0.989-0.111-1.411-0.334c-0.422-0.223-0.794-0.557-1.118-1.002v1.172H163.573z M166.854,109.656
	c0.456,0,0.877-0.112,1.263-0.337s0.693-0.54,0.921-0.946c0.228-0.406,0.342-0.836,0.342-1.289s-0.115-0.885-0.345-1.295
	c-0.23-0.41-0.539-0.729-0.927-0.958s-0.802-0.343-1.242-0.343c-0.448,0-0.874,0.114-1.277,0.343s-0.713,0.536-0.93,0.923
	s-0.324,0.822-0.324,1.307c0,0.738,0.243,1.355,0.728,1.852C165.548,109.408,166.145,109.656,166.854,109.656z"/>
<path class="st0" d="M171.021,103.908h0.867l2.191,4.909l2.127-4.909h0.873l-3.803,8.707h-0.866l1.227-2.815L171.021,103.908z"/>
<path class="st0" d="M187.649,105.232l-0.65,0.404c-0.562-0.746-1.329-1.119-2.3-1.119c-0.776,0-1.421,0.25-1.934,0.749
	c-0.513,0.5-0.77,1.106-0.77,1.82c0,0.464,0.118,0.901,0.354,1.311s0.56,0.728,0.972,0.954c0.412,0.226,0.873,0.339,1.384,0.339
	c0.937,0,1.701-0.373,2.294-1.119l0.65,0.428c-0.305,0.459-0.714,0.815-1.228,1.068s-1.099,0.379-1.755,0.379
	c-1.008,0-1.844-0.32-2.508-0.961s-0.996-1.42-0.996-2.338c0-0.617,0.155-1.19,0.466-1.72s0.737-0.942,1.28-1.239
	s1.15-0.445,1.822-0.445c0.422,0,0.829,0.064,1.222,0.193s0.726,0.297,0.999,0.504S187.458,104.912,187.649,105.232z"/>
<path class="st0" d="M189.103,101.447h0.82v8.836h-0.82V101.447z"/>
<path class="st0" d="M191.912,101.283c0.187,0,0.346,0.066,0.479,0.199c0.132,0.133,0.198,0.293,0.198,0.48
	c0,0.184-0.066,0.342-0.198,0.475c-0.132,0.133-0.292,0.199-0.479,0.199c-0.183,0-0.34-0.066-0.473-0.199s-0.198-0.291-0.198-0.475
	c0-0.188,0.066-0.348,0.198-0.48S191.729,101.283,191.912,101.283z M191.505,103.908h0.82v6.375h-0.82V103.908z"/>
<path class="st0" d="M200.218,105.232l-0.65,0.404c-0.562-0.746-1.329-1.119-2.3-1.119c-0.776,0-1.421,0.25-1.934,0.749
	c-0.513,0.5-0.77,1.106-0.77,1.82c0,0.464,0.118,0.901,0.354,1.311s0.56,0.728,0.972,0.954c0.412,0.226,0.873,0.339,1.384,0.339
	c0.937,0,1.701-0.373,2.294-1.119l0.65,0.428c-0.305,0.459-0.714,0.815-1.228,1.068s-1.099,0.379-1.755,0.379
	c-1.008,0-1.844-0.32-2.508-0.961s-0.996-1.42-0.996-2.338c0-0.617,0.155-1.19,0.466-1.72s0.737-0.942,1.28-1.239
	s1.15-0.445,1.822-0.445c0.422,0,0.829,0.064,1.222,0.193s0.726,0.297,0.999,0.504S200.026,104.912,200.218,105.232z"/>
<path class="st0" d="M201.788,101.447h0.82v5.034l2.956-2.573h1.205l-3.504,3.041l3.709,3.334h-1.155l-3.21-2.87v2.87h-0.82V101.447
	z"/>
<path class="st0" d="M208.102,101.283c0.187,0,0.346,0.066,0.479,0.199c0.132,0.133,0.198,0.293,0.198,0.48
	c0,0.184-0.066,0.342-0.198,0.475c-0.132,0.133-0.292,0.199-0.479,0.199c-0.183,0-0.34-0.066-0.473-0.199s-0.198-0.291-0.198-0.475
	c0-0.188,0.066-0.348,0.198-0.48S207.919,101.283,208.102,101.283z M207.694,103.908h0.82v6.375h-0.82V103.908z"/>
<path class="st0" d="M210.22,103.908h0.82v1.143c0.328-0.438,0.691-0.765,1.09-0.981s0.832-0.325,1.301-0.325
	c0.477,0,0.899,0.121,1.269,0.363s0.642,0.568,0.817,0.979s0.264,1.049,0.264,1.916v3.281h-0.82v-3.041
	c0-0.734-0.03-1.225-0.091-1.471c-0.095-0.422-0.277-0.739-0.547-0.952s-0.621-0.319-1.055-0.319c-0.497,0-0.941,0.164-1.333,0.492
	s-0.651,0.734-0.776,1.219c-0.078,0.316-0.117,0.895-0.117,1.734v2.338h-0.82V103.908z"/>
<path class="st0" d="M223.034,103.908h0.82v5.08c0,0.895-0.078,1.549-0.234,1.963c-0.215,0.586-0.588,1.037-1.119,1.354
	s-1.17,0.475-1.916,0.475c-0.547,0-1.038-0.078-1.474-0.232c-0.436-0.155-0.79-0.363-1.063-0.623
	c-0.273-0.261-0.525-0.642-0.756-1.143h0.891c0.242,0.422,0.555,0.734,0.938,0.938s0.858,0.305,1.426,0.305
	c0.559,0,1.031-0.104,1.417-0.312c0.385-0.208,0.66-0.47,0.824-0.785c0.165-0.315,0.247-0.825,0.247-1.527v-0.328
	c-0.309,0.391-0.687,0.69-1.132,0.899c-0.446,0.209-0.919,0.313-1.419,0.313c-0.587,0-1.138-0.146-1.654-0.437
	s-0.915-0.683-1.196-1.175c-0.282-0.492-0.422-1.033-0.422-1.623s0.146-1.14,0.44-1.649s0.699-0.913,1.217-1.21
	s1.065-0.445,1.64-0.445c0.477,0,0.922,0.099,1.334,0.296c0.412,0.197,0.81,0.522,1.193,0.976V103.908z M220.614,104.535
	c-0.465,0-0.896,0.112-1.295,0.337s-0.711,0.535-0.938,0.932s-0.34,0.825-0.34,1.286c0,0.699,0.234,1.277,0.703,1.734
	s1.076,0.686,1.822,0.686c0.754,0,1.36-0.227,1.819-0.68s0.688-1.049,0.688-1.787c0-0.48-0.105-0.909-0.316-1.286
	s-0.51-0.675-0.896-0.894S221.06,104.535,220.614,104.535z"/>
</svg>