<!-- Generator: Adobe Illustrator 22.0.1, SVG Export Plug-In  -->
<svg version="1.1"
	 xmlns="http://www.w3.org/2000/svg" xmlns:xlink="http://www.w3.org/1999/xlink" xmlns:a="http://ns.adobe.com/AdobeSVGViewerExtensions/3.0/"
	 x="0px" y="0px" width="1542.604px" height="532.159px" viewBox="0 0 1542.604 532.159"
	 style="enable-background:new 0 0 1542.604 532.159;" xml:space="preserve">
<style type="text/css">
	.st0{fill:#FFFFFF;}
</style>
<defs>
</defs>
<g>
	<path class="st0" d="M617.43,19.985c1.439,1.329,1.809,2.935,1.809,4.388c0,3.981-2.602,6.731-6.74,6.731
		c-1.764,0-4.68-0.504-6.095-1.967c-0.268-1.111-0.132-3.404,0.416-5.019h0.316c-0.361,3.709,1.987,6.083,5.19,5.905
		c2.628-0.146,4.823-1.947,4.823-4.824c0-1.407-0.513-2.52-1.412-3.354l-6.895-6.404c-1.456-1.329-1.951-3.067-1.951-4.46
		c0-3.034,2.223-6.083,6.326-6.083c0.944,0,2.131,0.161,3.087,0.369h1.426v0.427v3.989h-0.347c0.009-2.302-1.807-3.706-4.05-3.706
		c-2.652,0-4.427,1.946-4.427,4.139c0,0.938,0.314,2.268,1.449,3.319L617.43,19.985z"/>
	<path class="st0" d="M647.383,19.801c0,6.689-5.431,11.303-12.146,11.303c-6.716,0-12.146-4.613-12.146-11.303
		s5.431-11.302,12.146-11.302C641.952,8.499,647.383,13.111,647.383,19.801z M644.717,19.801c0-6.086-4.186-10.226-9.479-10.226
		c-5.295,0-9.479,4.14-9.479,10.226c0,6.086,4.185,10.225,9.479,10.225C640.531,30.026,644.717,25.887,644.717,19.801z"/>
	<path class="st0" d="M659.615,9.003c4.538,0,7.318,2.193,7.318,5.829c0,3.053-2.366,5.604-5.597,5.928
		c0.785,0.356,2.001,1.728,2.772,2.821c-0.006,0,1.661,2.256,3.149,3.924c1.466,1.643,2.474,2.718,4.47,2.735v0.361h-1.134
		c-3.982,0-5.554-1.811-6.683-3.167c-0.407-0.49-3.246-4.578-3.527-4.931c-0.975-1.222-2.224-2.424-3.648-2.424v-0.333
		c-0.001,0,0.888,0.015,2.064-0.015c1.991-0.05,4.259-0.07,5.292-3.096c0.172-0.504,0.273-1.263,0.251-2.052
		c-0.076-2.697-1.891-4.281-4.787-4.428c-2.023-0.102-3.797-0.013-4.14-0.032V28.29c0.022,1.081,0.888,1.952,2.045,1.952h0.487
		l0.007,0.36h-7.361l0.006-0.36h0.486c1.138,0,1.998-0.845,2.044-1.903V11.235c-0.036-1.067-0.899-1.873-2.045-1.873h-0.485
		l-0.007-0.36L659.615,9.003z"/>
	<path class="st0" d="M682.188,9.003c4.538,0,7.318,2.193,7.318,5.829c0,3.053-2.366,5.604-5.597,5.928
		c0.785,0.356,2.001,1.728,2.772,2.821c-0.006,0,1.661,2.256,3.149,3.924c1.466,1.643,2.474,2.718,4.47,2.735v0.361h-1.134
		c-3.982,0-5.554-1.811-6.683-3.167c-0.407-0.49-3.246-4.578-3.527-4.931c-0.975-1.222-2.224-2.424-3.648-2.424v-0.333
		c-0.001,0,0.888,0.015,2.064-0.015c1.991-0.05,4.259-0.07,5.292-3.096c0.172-0.504,0.273-1.263,0.251-2.052
		c-0.076-2.697-1.891-4.281-4.787-4.428c-2.023-0.102-3.797-0.013-4.14-0.032V28.29c0.022,1.081,0.888,1.952,2.045,1.952h0.487
		l0.007,0.36h-7.361l0.006-0.36h0.486c1.138,0,1.998-0.845,2.044-1.903V11.235c-0.036-1.067-0.899-1.873-2.045-1.873h-0.485
		l-0.007-0.36L682.188,9.003z"/>
	<path class="st0" d="M715.367,9.002v0.36h-0.457c-1.371,0-2.595,0.871-3.305,1.831l-6.902,10.48v6.616
		c0.021,1.081,0.949,1.952,2.092,1.952h0.414l0.004,0.36h-7.362l0.006-0.36h0.412c1.145,0,2.072-0.871,2.095-1.952v-6.666
		l-6.666-10.45c-0.735-1.102-1.921-1.81-3.294-1.81h-0.444v-0.36h8.347v0.36h-0.412c-0.969,0-1.528,0.886-1.229,1.717l5.231,9.326
		l5.587-9.287c0.372-0.894-0.247-1.756-1.229-1.756h-0.412v-0.36L715.367,9.002z"/>
	<path class="st0" d="M746.738,27.973c0.729,1.603,2.06,2.267,3.162,2.267h0.301v0.36h-8.105v-0.357h0.316
		c0.93,0,1.894-0.819,1.368-2.259l-2.303-6.131h-9.695l-2.411,6.152c-0.508,1.427,0.451,2.238,1.376,2.238h0.316V30.6h-7.245v-0.36
		h0.324c1.095,0,2.425-0.664,3.153-2.264l8.163-19.37c0,0,1.333-2.916,1.333-3.708h0.324L746.738,27.973z M741.072,20.773
		L736.733,9.22l-4.527,11.553H741.072z"/>
	<path class="st0" d="M759.134,9.005c2.586,0,7.489,0.602,7.489,5.387c0,2.222-1.985,3.987-3.958,4.459
		c3.487,0.425,6.049,2.812,6.049,5.706c0,4.694-4.467,6.043-8.014,6.043h-8.91l0.006-0.36h0.425c1.211,0,2.123-0.876,2.156-1.942
		V11.295c-0.037-1.167-0.947-1.933-2.156-1.933h-0.425l-0.006-0.358L759.134,9.005z M760.676,29.521
		c3.102,0,5.459-1.533,5.459-4.964c0-4.598-4.477-5.368-8.354-5.368l-0.008-0.36c2.62,0,6.321-0.485,6.321-4.44
		c0-3.015-1.853-4.307-5.007-4.307h-2.447v19.438H760.676z"/>
	<path class="st0" d="M796.602,19.801c0,6.689-5.431,11.303-12.146,11.303c-6.716,0-12.146-4.613-12.146-11.303
		s5.431-11.302,12.146-11.302C791.171,8.499,796.602,13.111,796.602,19.801z M793.936,19.801c0-6.086-4.186-10.226-9.479-10.226
		c-5.295,0-9.479,4.14-9.479,10.226c0,6.086,4.185,10.225,9.479,10.225C789.75,30.026,793.936,25.887,793.936,19.801z"/>
	<path class="st0" d="M821.959,9.002v0.36h-0.534c-0.931,0-1.688,0.646-1.73,1.517v12.116c0,5.028-3.417,8.109-8.973,8.109
		c-5.559,0-9.003-3.061-9.003-8.056V10.921c-0.019-0.893-0.785-1.559-1.731-1.559h-0.534v-0.36h6.832v0.36h-0.533
		c-0.945,0-1.713,0.667-1.735,1.559v11.671c0,4.671,2.537,7.534,6.671,7.534c4.54,0,7.328-2.71,7.339-7.134V10.897
		c-0.03-0.88-0.792-1.535-1.729-1.535h-0.534v-0.36L821.959,9.002z"/>
	<path class="st0" d="M839.481,8.965c1.43,0,3.396-0.317,4.021-0.565v4.054l-0.383-0.005v-0.553
		c-0.002-1.011-0.708-1.831-1.801-1.851h-6.515v18.288c0.047,1.06,0.973,1.907,2.111,1.907h0.417l0.006,0.36h-7.418l0.005-0.36
		h0.418c1.153,0,2.091-0.87,2.112-1.951V10.046h-6.519c-1.093,0.019-1.8,0.839-1.8,1.85v0.553l-0.384,0.005V8.4
		c0.624,0.248,2.591,0.565,4.006,0.565H839.481z"/>
	<path class="st0" d="M869.289,8.965c1.43,0,3.396-0.317,4.021-0.565v4.054l-0.383-0.005v-0.553
		c-0.001-1.011-0.708-1.831-1.801-1.851h-6.515v18.288c0.047,1.06,0.973,1.907,2.111,1.907h0.417l0.006,0.36h-7.418l0.005-0.36
		h0.418c1.153,0,2.091-0.87,2.112-1.951V10.046h-6.519c-1.093,0.019-1.8,0.839-1.8,1.85v0.553l-0.384,0.005V8.4
		c0.624,0.248,2.591,0.565,4.006,0.565H869.289z"/>
	<path class="st0" d="M891.397,30.599l0.005-0.36h0.414c1.136,0,2.06-0.855,2.097-1.922v-7.835h-13.285v7.833
		c0.036,1.068,0.96,1.924,2.097,1.924h0.414l0.005,0.36h-7.335l0.006-0.36h0.413c1.146,0,2.075-0.869,2.097-1.948V11.312
		c-0.021-1.081-0.951-1.952-2.098-1.952h-0.414L875.808,9h7.335l-0.005,0.36h-0.414c-1.125,0-2.042,0.839-2.096,1.892v8.149h13.284
		v-8.09c-0.021-1.081-0.951-1.952-2.097-1.952h-0.414L891.396,9h7.335l-0.006,0.36h-0.413c-1.123,0-2.039,0.836-2.097,1.887v17.076
		c0.041,1.065,0.964,1.917,2.098,1.917h0.414l0.005,0.36L891.397,30.599z"/>
	<path class="st0" d="M902.663,30.6l0.007-0.36h0.48c1.338,0,2.419-0.87,2.446-1.949V11.312c-0.027-1.081-1.108-1.951-2.448-1.951
		h-0.48l-0.007-0.36h8.154v0.36h-0.484c-1.31,0-2.378,0.836-2.441,1.887v17.07c0.042,1.067,1.12,1.921,2.443,1.921h0.479l0.007,0.36
		H902.663z"/>
	<path class="st0" d="M925.828,21.441c1.109,0.932,1.617,2.467,1.629,3.867c0.028,3.212-2.819,5.795-6.371,5.795
		c-2.133,0-4.897-0.52-6.209-1.695c-0.227-0.958-0.135-3.079,0.357-4.47h0.415c-0.318,3.243,1.865,5.176,5.041,5.085
		c2.976-0.084,4.796-1.636,4.796-3.975c0-1.121-0.383-2.037-1.311-2.849l-7.201-5.557c-1.34-1.145-1.701-2.641-1.72-3.89
		c-0.043-2.925,2.619-5.255,5.951-5.255c1.648,0,2.756,0.146,3.561,0.333h1.203l0.055,3.916h-0.412c0-1.994-1.335-3.183-4.159-3.183
		c-2.404,0-4.34,1.52-4.326,3.434c0.007,0.925,0.286,1.928,1.414,2.834L925.828,21.441z"/>
	<path class="st0" d="M2.777,91.142h2.584V117H2.777V91.142z"/>
	<path class="st0" d="M14.238,100.142l-1.354-0.773c0.445-0.891,0.744-1.588,0.896-2.092s0.264-1.154,0.334-1.951h-1.547v-4.834
		h3.182v3.023c0,1.512-0.103,2.698-0.308,3.56S14.836,98.958,14.238,100.142z"/>
	<path class="st0" d="M23.502,97.875h2.461v3.305c0.856-1.219,1.736-2.109,2.64-2.672c1.244-0.75,2.552-1.125,3.925-1.125
		c0.927,0,1.807,0.182,2.64,0.545s1.514,0.847,2.041,1.45c0.528,0.604,0.985,1.468,1.373,2.593c0.818-1.5,1.841-2.64,3.068-3.419
		s2.549-1.169,3.964-1.169c1.321,0,2.487,0.334,3.498,1.002c1.012,0.668,1.763,1.6,2.254,2.795s0.736,2.988,0.736,5.379V117h-2.514
		v-10.441c0-2.051-0.146-3.46-0.438-4.228s-0.791-1.386-1.498-1.854c-0.706-0.469-1.55-0.703-2.531-0.703
		c-1.191,0-2.28,0.352-3.268,1.055s-1.708,1.641-2.164,2.812c-0.455,1.172-0.683,3.129-0.683,5.871V117h-2.461v-9.791
		c0-2.309-0.144-3.876-0.431-4.702s-0.788-1.488-1.503-1.986s-1.564-0.747-2.549-0.747c-1.137,0-2.2,0.343-3.19,1.028
		s-1.723,1.608-2.197,2.769s-0.712,2.936-0.712,5.326V117h-2.461V97.875z"/>
	<path class="st0" d="M85.816,101.847l-1.951,1.213c-1.686-2.238-3.985-3.357-6.9-3.357c-2.329,0-4.264,0.749-5.803,2.248
		c-1.539,1.498-2.309,3.318-2.309,5.46c0,1.393,0.354,2.704,1.062,3.933s1.68,2.183,2.914,2.862
		c1.235,0.679,2.619,1.019,4.152,1.019c2.81,0,5.104-1.119,6.883-3.357l1.951,1.283c-0.914,1.376-2.142,2.444-3.683,3.203
		c-1.541,0.759-3.296,1.139-5.265,1.139c-3.023,0-5.531-0.961-7.523-2.883s-2.988-4.26-2.988-7.014c0-1.852,0.466-3.571,1.397-5.159
		s2.212-2.827,3.841-3.718s3.451-1.336,5.467-1.336c1.266,0,2.487,0.193,3.665,0.58s2.177,0.891,2.997,1.512
		S85.242,100.886,85.816,101.847z"/>
	<path class="st0" d="M90.229,97.875h2.461v8.93c0,2.18,0.117,3.68,0.353,4.5c0.352,1.172,1.023,2.098,2.016,2.777
		c0.991,0.68,2.174,1.02,3.547,1.02s2.538-0.331,3.494-0.993c0.957-0.662,1.617-1.532,1.98-2.61c0.247-0.738,0.37-2.303,0.37-4.693
		v-8.93h2.514v9.387c0,2.637-0.308,4.623-0.923,5.959s-1.541,2.382-2.777,3.138s-2.786,1.134-4.649,1.134s-3.419-0.378-4.667-1.134
		s-2.18-1.811-2.795-3.164s-0.923-3.39-0.923-6.108V97.875z"/>
	<path class="st0" d="M111.498,97.875h2.514v2.795c0.75-1.102,1.541-1.925,2.373-2.47s1.699-0.817,2.602-0.817
		c0.68,0,1.406,0.217,2.18,0.65l-1.283,2.074c-0.516-0.223-0.949-0.334-1.301-0.334c-0.82,0-1.611,0.337-2.373,1.011
		s-1.342,1.72-1.74,3.138c-0.305,1.09-0.457,3.293-0.457,6.609V117h-2.514V97.875z"/>
	<path class="st0" d="M122.326,97.875h2.514v2.795c0.75-1.102,1.541-1.925,2.373-2.47s1.699-0.817,2.602-0.817
		c0.68,0,1.406,0.217,2.18,0.65l-1.283,2.074c-0.516-0.223-0.949-0.334-1.301-0.334c-0.82,0-1.611,0.337-2.373,1.011
		s-1.342,1.72-1.74,3.138c-0.305,1.09-0.457,3.293-0.457,6.609V117h-2.514V97.875z"/>
	<path class="st0" d="M150.047,110.654l2.074,1.09c-0.681,1.336-1.466,2.414-2.357,3.234s-1.895,1.444-3.009,1.872
		s-2.376,0.642-3.783,0.642c-3.12,0-5.56-1.022-7.318-3.067c-1.76-2.045-2.64-4.356-2.64-6.935c0-2.426,0.744-4.588,2.234-6.486
		c1.889-2.414,4.416-3.621,7.583-3.621c3.261,0,5.864,1.236,7.812,3.709c1.384,1.746,2.088,3.926,2.111,6.539h-17.209
		c0.047,2.222,0.757,4.042,2.13,5.463c1.372,1.42,3.067,2.131,5.086,2.131c0.974,0,1.921-0.169,2.842-0.508
		c0.921-0.338,1.704-0.788,2.35-1.348C148.598,112.808,149.296,111.903,150.047,110.654z M150.047,105.503
		c-0.328-1.312-0.807-2.361-1.435-3.146s-1.458-1.418-2.49-1.898c-1.033-0.48-2.118-0.721-3.256-0.721
		c-1.878,0-3.491,0.604-4.84,1.811c-0.986,0.879-1.731,2.197-2.235,3.955H150.047z"/>
	<path class="st0" d="M157.342,97.875h2.461v3.428c0.984-1.312,2.074-2.294,3.27-2.944s2.496-0.976,3.902-0.976
		c1.43,0,2.698,0.363,3.806,1.09s1.925,1.705,2.452,2.936s0.791,3.146,0.791,5.748V117h-2.461v-9.123
		c0-2.203-0.092-3.674-0.273-4.412c-0.285-1.266-0.833-2.218-1.642-2.856s-1.863-0.958-3.164-0.958c-1.488,0-2.822,0.492-4,1.477
		s-1.954,2.203-2.329,3.656c-0.234,0.949-0.352,2.684-0.352,5.203V117h-2.461V97.875z"/>
	<path class="st0" d="M181.441,90.773h2.461v7.102h3.902v2.127h-3.902V117h-2.461v-16.998h-3.357v-2.127h3.357V90.773z"/>
	<path class="st0" d="M191.127,90.492h2.461V117h-2.461V90.492z"/>
	<path class="st0" d="M196.646,97.875h2.602l6.572,14.727l6.383-14.727h2.619l-11.408,26.121h-2.6l3.682-8.445L196.646,97.875z"/>
	<path class="st0" d="M227.654,97.875h2.461v8.93c0,2.18,0.117,3.68,0.353,4.5c0.352,1.172,1.023,2.098,2.016,2.777
		c0.991,0.68,2.174,1.02,3.547,1.02s2.538-0.331,3.494-0.993c0.957-0.662,1.617-1.532,1.98-2.61c0.247-0.738,0.37-2.303,0.37-4.693
		v-8.93h2.514v9.387c0,2.637-0.308,4.623-0.923,5.959s-1.541,2.382-2.777,3.138s-2.786,1.134-4.649,1.134s-3.419-0.378-4.667-1.134
		s-2.18-1.811-2.795-3.164s-0.923-3.39-0.923-6.108V97.875z"/>
	<path class="st0" d="M249.855,97.875h2.461v3.428c0.984-1.312,2.074-2.294,3.27-2.944s2.496-0.976,3.902-0.976
		c1.43,0,2.698,0.363,3.806,1.09s1.925,1.705,2.452,2.936s0.791,3.146,0.791,5.748V117h-2.461v-9.123
		c0-2.203-0.092-3.674-0.273-4.412c-0.285-1.266-0.833-2.218-1.642-2.856s-1.863-0.958-3.164-0.958c-1.488,0-2.822,0.492-4,1.477
		s-1.954,2.203-2.329,3.656c-0.234,0.949-0.352,2.684-0.352,5.203V117h-2.461V97.875z"/>
	<path class="st0" d="M290.9,90.492V117h-2.426v-3.287c-1.031,1.254-2.188,2.197-3.472,2.83s-2.687,0.949-4.21,0.949
		c-2.707,0-5.019-0.981-6.935-2.944s-2.874-4.351-2.874-7.163c0-2.754,0.967-5.109,2.9-7.066s4.26-2.936,6.979-2.936
		c1.57,0,2.991,0.334,4.263,1.002s2.388,1.67,3.349,3.006V90.492H290.9z M281.065,99.755c-1.369,0-2.634,0.337-3.792,1.01
		c-1.159,0.673-2.081,1.619-2.766,2.836c-0.686,1.217-1.027,2.505-1.027,3.862c0,1.346,0.346,2.634,1.036,3.863
		s1.618,2.186,2.782,2.871c1.165,0.685,2.414,1.027,3.749,1.027c1.346,0,2.622-0.339,3.827-1.019
		c1.206-0.679,2.134-1.598,2.783-2.756s0.975-2.464,0.975-3.916c0-2.212-0.729-4.062-2.186-5.548
		C284.989,100.499,283.195,99.755,281.065,99.755z"/>
	<path class="st0" d="M312.574,110.654l2.074,1.09c-0.681,1.336-1.466,2.414-2.357,3.234s-1.895,1.444-3.009,1.872
		s-2.376,0.642-3.783,0.642c-3.12,0-5.56-1.022-7.318-3.067c-1.76-2.045-2.64-4.356-2.64-6.935c0-2.426,0.744-4.588,2.234-6.486
		c1.889-2.414,4.416-3.621,7.583-3.621c3.261,0,5.864,1.236,7.812,3.709c1.384,1.746,2.088,3.926,2.111,6.539h-17.209
		c0.047,2.222,0.757,4.042,2.13,5.463c1.372,1.42,3.067,2.131,5.086,2.131c0.974,0,1.921-0.169,2.842-0.508
		c0.921-0.338,1.704-0.788,2.35-1.348C311.125,112.808,311.823,111.903,312.574,110.654z M312.574,105.503
		c-0.328-1.312-0.807-2.361-1.435-3.146s-1.458-1.418-2.49-1.898c-1.033-0.48-2.118-0.721-3.256-0.721
		c-1.878,0-3.491,0.604-4.84,1.811c-0.986,0.879-1.731,2.197-2.235,3.955H312.574z"/>
	<path class="st0" d="M318.938,97.875h2.514v2.795c0.75-1.102,1.541-1.925,2.373-2.47s1.699-0.817,2.602-0.817
		c0.68,0,1.406,0.217,2.18,0.65l-1.283,2.074c-0.516-0.223-0.949-0.334-1.301-0.334c-0.82,0-1.611,0.337-2.373,1.011
		s-1.342,1.72-1.74,3.138c-0.305,1.09-0.457,3.293-0.457,6.609V117h-2.514V97.875z"/>
	<path class="st0" d="M347.221,97.875h2.461v15.24c0,2.684-0.234,4.646-0.703,5.889c-0.645,1.758-1.764,3.111-3.357,4.061
		s-3.51,1.424-5.748,1.424c-1.641,0-3.114-0.232-4.421-0.696c-1.307-0.464-2.37-1.087-3.19-1.869
		c-0.82-0.782-1.576-1.925-2.268-3.429h2.672c0.728,1.266,1.666,2.203,2.815,2.812c1.15,0.609,2.576,0.914,4.277,0.914
		c1.678,0,3.095-0.312,4.25-0.937c1.156-0.625,1.98-1.411,2.473-2.356c0.493-0.946,0.739-2.473,0.739-4.582v-0.984
		c-0.927,1.172-2.059,2.071-3.396,2.698c-1.337,0.627-2.757,0.94-4.258,0.94c-1.76,0-3.414-0.437-4.962-1.31
		c-1.549-0.873-2.745-2.048-3.59-3.524s-1.267-3.1-1.267-4.869s0.439-3.419,1.319-4.948s2.097-2.739,3.651-3.63
		s3.193-1.336,4.918-1.336c1.431,0,2.766,0.296,4.003,0.888c1.238,0.592,2.432,1.567,3.581,2.927V97.875z M339.961,99.755
		c-1.395,0-2.689,0.337-3.885,1.011s-2.133,1.605-2.812,2.795s-1.02,2.476-1.02,3.858c0,2.098,0.703,3.832,2.109,5.203
		s3.229,2.057,5.467,2.057c2.262,0,4.081-0.68,5.458-2.039s2.065-3.146,2.065-5.361c0-1.441-0.316-2.728-0.949-3.858
		s-1.529-2.024-2.689-2.681S341.297,99.755,339.961,99.755z"/>
	<path class="st0" d="M364.008,97.382c2.946,0,5.389,1.066,7.325,3.199c1.761,1.945,2.642,4.248,2.642,6.908
		c0,2.672-0.931,5.007-2.791,7.005c-1.861,1.998-4.253,2.997-7.176,2.997c-2.935,0-5.333-0.999-7.193-2.997
		s-2.791-4.333-2.791-7.005c0-2.648,0.88-4.945,2.642-6.891C358.602,98.455,361.05,97.382,364.008,97.382z M363.999,99.791
		c-2.046,0-3.805,0.756-5.274,2.268s-2.205,3.34-2.205,5.484c0,1.383,0.335,2.672,1.006,3.867c0.67,1.195,1.575,2.118,2.717,2.769
		c1.141,0.65,2.393,0.976,3.757,0.976s2.616-0.325,3.757-0.976c1.142-0.65,2.047-1.573,2.717-2.769
		c0.671-1.195,1.006-2.484,1.006-3.867c0-2.145-0.738-3.973-2.214-5.484C367.788,100.546,366.033,99.791,363.999,99.791z"/>
	<path class="st0" d="M379.38,90c0.56,0,1.038,0.199,1.436,0.598c0.396,0.398,0.595,0.879,0.595,1.441
		c0,0.551-0.198,1.025-0.595,1.424c-0.397,0.398-0.876,0.598-1.436,0.598c-0.549,0-1.021-0.199-1.418-0.598
		s-0.595-0.873-0.595-1.424c0-0.562,0.198-1.043,0.595-1.441S378.831,90,379.38,90z M378.158,97.875h2.461V117h-2.461V97.875z"/>
	<path class="st0" d="M385.734,97.875h2.461v3.428c0.984-1.312,2.074-2.294,3.27-2.944s2.496-0.976,3.902-0.976
		c1.43,0,2.698,0.363,3.806,1.09s1.925,1.705,2.452,2.936s0.791,3.146,0.791,5.748V117h-2.461v-9.123
		c0-2.203-0.092-3.674-0.273-4.412c-0.285-1.266-0.833-2.218-1.642-2.856s-1.863-0.958-3.164-0.958c-1.488,0-2.822,0.492-4,1.477
		s-1.954,2.203-2.329,3.656c-0.234,0.949-0.352,2.684-0.352,5.203V117h-2.461V97.875z"/>
	<path class="st0" d="M424.178,97.875h2.461v15.24c0,2.684-0.234,4.646-0.703,5.889c-0.645,1.758-1.764,3.111-3.357,4.061
		s-3.51,1.424-5.748,1.424c-1.641,0-3.114-0.232-4.421-0.696c-1.307-0.464-2.37-1.087-3.19-1.869
		c-0.82-0.782-1.576-1.925-2.268-3.429h2.672c0.728,1.266,1.666,2.203,2.815,2.812c1.15,0.609,2.576,0.914,4.277,0.914
		c1.678,0,3.095-0.312,4.25-0.937c1.156-0.625,1.98-1.411,2.473-2.356c0.493-0.946,0.739-2.473,0.739-4.582v-0.984
		c-0.927,1.172-2.059,2.071-3.396,2.698c-1.337,0.627-2.757,0.94-4.258,0.94c-1.76,0-3.414-0.437-4.962-1.31
		c-1.549-0.873-2.745-2.048-3.59-3.524s-1.267-3.1-1.267-4.869s0.439-3.419,1.319-4.948s2.097-2.739,3.651-3.63
		s3.193-1.336,4.918-1.336c1.431,0,2.766,0.296,4.003,0.888c1.238,0.592,2.432,1.567,3.581,2.927V97.875z M416.918,99.755
		c-1.395,0-2.689,0.337-3.885,1.011s-2.133,1.605-2.812,2.795s-1.02,2.476-1.02,3.858c0,2.098,0.703,3.832,2.109,5.203
		s3.229,2.057,5.467,2.057c2.262,0,4.081-0.68,5.458-2.039s2.065-3.146,2.065-5.361c0-1.441-0.316-2.728-0.949-3.858
		s-1.529-2.024-2.689-2.681S418.254,99.755,416.918,99.755z"/>
	<path class="st0" d="M460.934,97.875V117h-2.426v-3.287c-1.031,1.254-2.188,2.197-3.472,2.83s-2.687,0.949-4.21,0.949
		c-2.707,0-5.019-0.981-6.935-2.944s-2.874-4.351-2.874-7.163c0-2.754,0.967-5.109,2.9-7.066s4.26-2.936,6.979-2.936
		c1.57,0,2.991,0.334,4.263,1.002s2.388,1.67,3.349,3.006v-3.516H460.934z M451.099,99.755c-1.369,0-2.634,0.337-3.792,1.01
		c-1.159,0.673-2.081,1.619-2.766,2.836c-0.686,1.217-1.027,2.505-1.027,3.862c0,1.346,0.346,2.634,1.036,3.863
		s1.618,2.186,2.782,2.871c1.165,0.685,2.414,1.027,3.749,1.027c1.346,0,2.622-0.339,3.827-1.019
		c1.206-0.679,2.134-1.598,2.783-2.756s0.975-2.464,0.975-3.916c0-2.212-0.729-4.062-2.186-5.548
		C455.022,100.499,453.229,99.755,451.099,99.755z"/>
	<path class="st0" d="M476.596,117V90.492h2.461v10.67c1.03-1.266,2.184-2.212,3.459-2.839c1.276-0.627,2.675-0.94,4.197-0.94
		c2.704,0,5.014,0.981,6.928,2.944s2.871,4.345,2.871,7.146c0,2.766-0.966,5.127-2.897,7.084s-4.256,2.936-6.972,2.936
		c-1.557,0-2.968-0.334-4.231-1.002c-1.265-0.668-2.383-1.67-3.354-3.006V117H476.596z M486.439,115.119
		c1.368,0,2.631-0.337,3.788-1.011s2.078-1.62,2.762-2.839c0.685-1.219,1.026-2.508,1.026-3.867s-0.345-2.654-1.034-3.885
		c-0.69-1.23-1.617-2.188-2.78-2.874s-2.405-1.028-3.727-1.028c-1.345,0-2.622,0.343-3.832,1.028s-2.14,1.608-2.788,2.769
		c-0.649,1.16-0.974,2.467-0.974,3.92c0,2.215,0.728,4.066,2.184,5.555C482.52,114.375,484.312,115.119,486.439,115.119z"/>
	<path class="st0" d="M501.847,90c0.56,0,1.038,0.199,1.436,0.598c0.396,0.398,0.595,0.879,0.595,1.441
		c0,0.551-0.198,1.025-0.595,1.424c-0.397,0.398-0.876,0.598-1.436,0.598c-0.549,0-1.021-0.199-1.418-0.598
		s-0.595-0.873-0.595-1.424c0-0.562,0.198-1.043,0.595-1.441S501.298,90,501.847,90z M500.625,97.875h2.461V117h-2.461V97.875z"/>
	<path class="st0" d="M510.346,90.773h2.461v7.102h3.902v2.127h-3.902V117h-2.461v-16.998h-3.357v-2.127h3.357V90.773z"/>
	<path class="st0" d="M530.367,90.492h2.461v10.811c0.996-1.312,2.092-2.294,3.287-2.944s2.49-0.976,3.885-0.976
		c1.43,0,2.698,0.363,3.806,1.09s1.925,1.702,2.452,2.927s0.791,3.144,0.791,5.757V117h-2.461v-9.123
		c0-2.203-0.088-3.674-0.264-4.412c-0.305-1.266-0.858-2.218-1.661-2.856s-1.854-0.958-3.155-0.958
		c-1.488,0-2.821,0.492-3.999,1.477s-1.954,2.203-2.329,3.656c-0.234,0.938-0.352,2.672-0.352,5.203V117h-2.461V90.492z"/>
	<path class="st0" d="M561.375,97.382c2.946,0,5.389,1.066,7.325,3.199c1.761,1.945,2.642,4.248,2.642,6.908
		c0,2.672-0.931,5.007-2.791,7.005c-1.861,1.998-4.253,2.997-7.176,2.997c-2.935,0-5.333-0.999-7.193-2.997
		s-2.791-4.333-2.791-7.005c0-2.648,0.88-4.945,2.642-6.891C555.969,98.455,558.417,97.382,561.375,97.382z M561.366,99.791
		c-2.046,0-3.805,0.756-5.274,2.268s-2.205,3.34-2.205,5.484c0,1.383,0.335,2.672,1.006,3.867c0.67,1.195,1.575,2.118,2.717,2.769
		c1.141,0.65,2.393,0.976,3.757,0.976s2.616-0.325,3.757-0.976c1.142-0.65,2.047-1.573,2.717-2.769
		c0.671-1.195,1.006-2.484,1.006-3.867c0-2.145-0.738-3.973-2.214-5.484C565.155,100.546,563.4,99.791,561.366,99.791z"/>
	<path class="st0" d="M575.578,97.875h2.461v8.93c0,2.18,0.117,3.68,0.353,4.5c0.352,1.172,1.023,2.098,2.016,2.777
		c0.991,0.68,2.174,1.02,3.547,1.02s2.538-0.331,3.494-0.993c0.957-0.662,1.617-1.532,1.98-2.61c0.247-0.738,0.37-2.303,0.37-4.693
		v-8.93h2.514v9.387c0,2.637-0.308,4.623-0.923,5.959s-1.541,2.382-2.777,3.138s-2.786,1.134-4.649,1.134s-3.419-0.378-4.667-1.134
		s-2.18-1.811-2.795-3.164s-0.923-3.39-0.923-6.108V97.875z"/>
	<path class="st0" d="M607.395,99.966l-1.582,1.635c-1.316-1.277-2.603-1.916-3.859-1.916c-0.8,0-1.483,0.264-2.054,0.791
		c-0.569,0.527-0.854,1.143-0.854,1.846c0,0.621,0.234,1.213,0.704,1.775c0.47,0.574,1.457,1.248,2.96,2.021
		c1.832,0.949,3.076,1.863,3.734,2.742c0.646,0.891,0.969,1.893,0.969,3.006c0,1.57-0.552,2.9-1.655,3.99s-2.482,1.635-4.137,1.635
		c-1.104,0-2.157-0.24-3.16-0.721c-1.004-0.48-1.834-1.143-2.491-1.986l1.547-1.758c1.257,1.418,2.59,2.127,4,2.127
		c0.986,0,1.826-0.316,2.519-0.949c0.693-0.633,1.04-1.377,1.04-2.232c0-0.703-0.229-1.33-0.687-1.881
		c-0.459-0.539-1.492-1.219-3.101-2.039c-1.727-0.891-2.901-1.77-3.523-2.637s-0.934-1.857-0.934-2.971
		c0-1.453,0.496-2.66,1.488-3.621c0.991-0.961,2.244-1.441,3.759-1.441C603.838,97.382,605.61,98.244,607.395,99.966z"/>
	<path class="st0" d="M627.855,110.654l2.074,1.09c-0.681,1.336-1.466,2.414-2.357,3.234s-1.895,1.444-3.009,1.872
		s-2.376,0.642-3.783,0.642c-3.12,0-5.56-1.022-7.318-3.067c-1.76-2.045-2.64-4.356-2.64-6.935c0-2.426,0.744-4.588,2.234-6.486
		c1.889-2.414,4.416-3.621,7.583-3.621c3.261,0,5.864,1.236,7.812,3.709c1.384,1.746,2.088,3.926,2.111,6.539h-17.209
		c0.047,2.222,0.757,4.042,2.13,5.463c1.372,1.42,3.067,2.131,5.086,2.131c0.974,0,1.921-0.169,2.842-0.508
		c0.921-0.338,1.704-0.788,2.35-1.348C626.406,112.808,627.104,111.903,627.855,110.654z M627.855,105.503
		c-0.328-1.312-0.807-2.361-1.435-3.146s-1.458-1.418-2.49-1.898c-1.033-0.48-2.118-0.721-3.256-0.721
		c-1.878,0-3.491,0.604-4.84,1.811c-0.986,0.879-1.731,2.197-2.235,3.955H627.855z"/>
	<path class="st0" d="M635.133,90.492h2.461v15.101l8.867-7.718h3.613l-10.512,9.123L650.689,117h-3.464l-9.632-8.611V117h-2.461
		V90.492z"/>
	<path class="st0" d="M669.322,110.654l2.074,1.09c-0.681,1.336-1.466,2.414-2.357,3.234s-1.895,1.444-3.009,1.872
		s-2.376,0.642-3.783,0.642c-3.12,0-5.56-1.022-7.318-3.067c-1.76-2.045-2.64-4.356-2.64-6.935c0-2.426,0.744-4.588,2.234-6.486
		c1.889-2.414,4.416-3.621,7.583-3.621c3.261,0,5.864,1.236,7.812,3.709c1.384,1.746,2.088,3.926,2.111,6.539H654.82
		c0.047,2.222,0.757,4.042,2.13,5.463c1.372,1.42,3.067,2.131,5.086,2.131c0.974,0,1.921-0.169,2.842-0.508
		c0.921-0.338,1.704-0.788,2.35-1.348C667.873,112.808,668.571,111.903,669.322,110.654z M669.322,105.503
		c-0.328-1.312-0.807-2.361-1.435-3.146s-1.458-1.418-2.49-1.898c-1.033-0.48-2.118-0.721-3.256-0.721
		c-1.878,0-3.491,0.604-4.84,1.811c-0.986,0.879-1.731,2.197-2.235,3.955H669.322z"/>
	<path class="st0" d="M692.719,110.654l2.074,1.09c-0.681,1.336-1.466,2.414-2.357,3.234s-1.895,1.444-3.009,1.872
		s-2.376,0.642-3.783,0.642c-3.12,0-5.56-1.022-7.318-3.067c-1.76-2.045-2.64-4.356-2.64-6.935c0-2.426,0.744-4.588,2.234-6.486
		c1.889-2.414,4.416-3.621,7.583-3.621c3.261,0,5.864,1.236,7.812,3.709c1.384,1.746,2.088,3.926,2.111,6.539h-17.209
		c0.047,2.222,0.757,4.042,2.13,5.463c1.372,1.42,3.067,2.131,5.086,2.131c0.974,0,1.921-0.169,2.842-0.508
		c0.921-0.338,1.704-0.788,2.35-1.348C691.27,112.808,691.968,111.903,692.719,110.654z M692.719,105.503
		c-0.328-1.312-0.807-2.361-1.435-3.146s-1.458-1.418-2.49-1.898c-1.033-0.48-2.118-0.721-3.256-0.721
		c-1.878,0-3.491,0.604-4.84,1.811c-0.986,0.879-1.731,2.197-2.235,3.955H692.719z"/>
	<path class="st0" d="M700.049,97.875h2.461v3.516c0.972-1.336,2.09-2.338,3.354-3.006c1.264-0.668,2.675-1.002,4.231-1.002
		c2.716,0,5.04,0.979,6.972,2.936s2.897,4.312,2.897,7.066c0,2.812-0.957,5.2-2.871,7.163s-4.224,2.944-6.928,2.944
		c-1.522,0-2.921-0.316-4.197-0.949c-1.275-0.633-2.429-1.576-3.459-2.83v10.283h-2.461V97.875z M709.893,99.755
		c-2.128,0-3.92,0.744-5.375,2.23c-1.456,1.487-2.184,3.336-2.184,5.548c0,1.452,0.324,2.757,0.974,3.916
		c0.648,1.159,1.578,2.078,2.788,2.756c1.21,0.679,2.487,1.019,3.832,1.019c1.321,0,2.563-0.342,3.727-1.027
		c1.163-0.685,2.09-1.642,2.78-2.871c0.689-1.229,1.034-2.517,1.034-3.863c0-1.357-0.342-2.645-1.026-3.862
		c-0.684-1.217-1.604-2.163-2.762-2.836S711.261,99.755,709.893,99.755z"/>
	<path class="st0" d="M725.423,90c0.56,0,1.038,0.199,1.436,0.598c0.396,0.398,0.595,0.879,0.595,1.441
		c0,0.551-0.198,1.025-0.595,1.424c-0.397,0.398-0.876,0.598-1.436,0.598c-0.549,0-1.021-0.199-1.418-0.598
		s-0.595-0.873-0.595-1.424c0-0.562,0.198-1.043,0.595-1.441S724.874,90,725.423,90z M724.201,97.875h2.461V117h-2.461V97.875z"/>
	<path class="st0" d="M731.777,97.875h2.461v3.428c0.984-1.312,2.074-2.294,3.27-2.944s2.496-0.976,3.902-0.976
		c1.43,0,2.698,0.363,3.806,1.09s1.925,1.705,2.452,2.936s0.791,3.146,0.791,5.748V117h-2.461v-9.123
		c0-2.203-0.092-3.674-0.273-4.412c-0.285-1.266-0.833-2.218-1.642-2.856s-1.863-0.958-3.164-0.958c-1.488,0-2.822,0.492-4,1.477
		s-1.954,2.203-2.329,3.656c-0.234,0.949-0.352,2.684-0.352,5.203V117h-2.461V97.875z"/>
	<path class="st0" d="M770.221,97.875h2.461v15.24c0,2.684-0.234,4.646-0.703,5.889c-0.645,1.758-1.764,3.111-3.357,4.061
		s-3.51,1.424-5.748,1.424c-1.641,0-3.114-0.232-4.421-0.696c-1.307-0.464-2.37-1.087-3.19-1.869
		c-0.82-0.782-1.576-1.925-2.268-3.429h2.672c0.728,1.266,1.666,2.203,2.815,2.812c1.15,0.609,2.576,0.914,4.277,0.914
		c1.678,0,3.095-0.312,4.25-0.937c1.156-0.625,1.98-1.411,2.473-2.356c0.493-0.946,0.739-2.473,0.739-4.582v-0.984
		c-0.927,1.172-2.059,2.071-3.396,2.698c-1.337,0.627-2.757,0.94-4.258,0.94c-1.76,0-3.414-0.437-4.962-1.31
		c-1.549-0.873-2.745-2.048-3.59-3.524s-1.267-3.1-1.267-4.869s0.439-3.419,1.319-4.948s2.097-2.739,3.651-3.63
		s3.193-1.336,4.918-1.336c1.431,0,2.766,0.296,4.003,0.888c1.238,0.592,2.432,1.567,3.581,2.927V97.875z M762.961,99.755
		c-1.395,0-2.689,0.337-3.885,1.011s-2.133,1.605-2.812,2.795s-1.02,2.476-1.02,3.858c0,2.098,0.703,3.832,2.109,5.203
		s3.229,2.057,5.467,2.057c2.262,0,4.081-0.68,5.458-2.039s2.065-3.146,2.065-5.361c0-1.441-0.316-2.728-0.949-3.858
		s-1.529-2.024-2.689-2.681S764.297,99.755,762.961,99.755z"/>
	<path class="st0" d="M780.398,112.253l2.373,1.125l-3.568,6.645l-1.74-0.738L780.398,112.253z"/>
	<path class="st0" d="M800.033,90.773h2.461v7.102h3.902v2.127h-3.902V117h-2.461v-16.998h-3.357v-2.127h3.357V90.773z"/>
	<path class="st0" d="M810.088,90.492h2.461v10.811c0.996-1.312,2.092-2.294,3.287-2.944s2.49-0.976,3.885-0.976
		c1.43,0,2.698,0.363,3.806,1.09s1.925,1.702,2.452,2.927s0.791,3.144,0.791,5.757V117h-2.461v-9.123
		c0-2.203-0.088-3.674-0.264-4.412c-0.305-1.266-0.858-2.218-1.661-2.856s-1.854-0.958-3.155-0.958
		c-1.488,0-2.821,0.492-3.999,1.477s-1.954,2.203-2.329,3.656c-0.234,0.938-0.352,2.672-0.352,5.203V117h-2.461V90.492z"/>
	<path class="st0" d="M851.098,97.875V117h-2.426v-3.287c-1.031,1.254-2.188,2.197-3.472,2.83s-2.687,0.949-4.21,0.949
		c-2.707,0-5.019-0.981-6.935-2.944s-2.874-4.351-2.874-7.163c0-2.754,0.967-5.109,2.9-7.066s4.26-2.936,6.979-2.936
		c1.57,0,2.991,0.334,4.263,1.002s2.388,1.67,3.349,3.006v-3.516H851.098z M841.263,99.755c-1.369,0-2.634,0.337-3.792,1.01
		c-1.159,0.673-2.081,1.619-2.766,2.836c-0.686,1.217-1.027,2.505-1.027,3.862c0,1.346,0.346,2.634,1.036,3.863
		s1.618,2.186,2.782,2.871c1.165,0.685,2.414,1.027,3.749,1.027c1.346,0,2.622-0.339,3.827-1.019
		c1.206-0.679,2.134-1.598,2.783-2.756s0.975-2.464,0.975-3.916c0-2.212-0.729-4.062-2.186-5.548
		C845.187,100.499,843.393,99.755,841.263,99.755z"/>
	<path class="st0" d="M856.635,97.875h2.461v3.428c0.984-1.312,2.074-2.294,3.27-2.944s2.496-0.976,3.902-0.976
		c1.43,0,2.698,0.363,3.806,1.09s1.925,1.705,2.452,2.936s0.791,3.146,0.791,5.748V117h-2.461v-9.123
		c0-2.203-0.092-3.674-0.273-4.412c-0.285-1.266-0.833-2.218-1.642-2.856s-1.863-0.958-3.164-0.958c-1.488,0-2.822,0.492-4,1.477
		s-1.954,2.203-2.329,3.656c-0.234,0.949-0.352,2.684-0.352,5.203V117h-2.461V97.875z"/>
	<path class="st0" d="M878.572,90.492h2.461v15.101l8.867-7.718h3.613l-10.512,9.123L894.129,117h-3.464l-9.632-8.611V117h-2.461
		V90.492z"/>
	<path class="st0" d="M904.57,97.875h2.602l6.572,14.727l6.383-14.727h2.619l-11.408,26.121h-2.6l3.682-8.445L904.57,97.875z"/>
	<path class="st0" d="M934.98,97.382c2.946,0,5.389,1.066,7.325,3.199c1.761,1.945,2.642,4.248,2.642,6.908
		c0,2.672-0.931,5.007-2.791,7.005c-1.861,1.998-4.253,2.997-7.176,2.997c-2.935,0-5.333-0.999-7.193-2.997
		s-2.791-4.333-2.791-7.005c0-2.648,0.88-4.945,2.642-6.891C929.574,98.455,932.022,97.382,934.98,97.382z M934.972,99.791
		c-2.046,0-3.805,0.756-5.274,2.268s-2.205,3.34-2.205,5.484c0,1.383,0.335,2.672,1.006,3.867c0.67,1.195,1.575,2.118,2.717,2.769
		c1.141,0.65,2.393,0.976,3.757,0.976s2.616-0.325,3.757-0.976c1.142-0.65,2.047-1.573,2.717-2.769
		c0.671-1.195,1.006-2.484,1.006-3.867c0-2.145-0.738-3.973-2.214-5.484C938.761,100.546,937.006,99.791,934.972,99.791z"/>
	<path class="st0" d="M949.184,97.875h2.461v8.93c0,2.18,0.117,3.68,0.353,4.5c0.352,1.172,1.023,2.098,2.016,2.777
		c0.991,0.68,2.174,1.02,3.547,1.02s2.538-0.331,3.494-0.993c0.957-0.662,1.617-1.532,1.98-2.61c0.247-0.738,0.37-2.303,0.37-4.693
		v-8.93h2.514v9.387c0,2.637-0.308,4.623-0.923,5.959s-1.541,2.382-2.777,3.138s-2.786,1.134-4.649,1.134s-3.419-0.378-4.667-1.134
		s-2.18-1.811-2.795-3.164s-0.923-3.39-0.923-6.108V97.875z"/>
	<path class="st0" d="M989.227,90.492V92.9c-0.902-0.387-1.676-0.58-2.32-0.58c-0.48,0-0.879,0.097-1.195,0.29
		s-0.516,0.416-0.598,0.668s-0.123,0.923-0.123,2.013l-0.002,2.584h3.992v2.127h-3.994L984.973,117h-2.461v-16.998h-2.514v-2.127
		h2.514v-2.988c0-1.371,0.126-2.35,0.378-2.936s0.68-1.058,1.283-1.415S985.506,90,986.361,90
		C987.158,90,988.113,90.164,989.227,90.492z"/>
	<path class="st0" d="M1001.707,97.382c2.946,0,5.389,1.066,7.325,3.199c1.761,1.945,2.642,4.248,2.642,6.908
		c0,2.672-0.931,5.007-2.791,7.005c-1.861,1.998-4.253,2.997-7.176,2.997c-2.935,0-5.333-0.999-7.193-2.997
		s-2.791-4.333-2.791-7.005c0-2.648,0.88-4.945,2.642-6.891C996.301,98.455,998.749,97.382,1001.707,97.382z M1001.698,99.791
		c-2.046,0-3.805,0.756-5.274,2.268s-2.205,3.34-2.205,5.484c0,1.383,0.335,2.672,1.006,3.867c0.67,1.195,1.575,2.118,2.717,2.769
		c1.141,0.65,2.393,0.976,3.757,0.976s2.616-0.325,3.757-0.976c1.142-0.65,2.047-1.573,2.717-2.769
		c0.671-1.195,1.006-2.484,1.006-3.867c0-2.145-0.738-3.973-2.214-5.484C1005.487,100.546,1003.732,99.791,1001.698,99.791z"/>
	<path class="st0" d="M1015.295,97.875h2.514v2.795c0.75-1.102,1.541-1.925,2.373-2.47s1.699-0.817,2.602-0.817
		c0.68,0,1.406,0.217,2.18,0.65l-1.283,2.074c-0.516-0.223-0.949-0.334-1.301-0.334c-0.82,0-1.611,0.337-2.373,1.011
		s-1.342,1.72-1.74,3.138c-0.305,1.09-0.457,3.293-0.457,6.609V117h-2.514V97.875z"/>
	<path class="st0" d="M1039.166,90.773h2.461v7.102h3.902v2.127h-3.902V117h-2.461v-16.998h-3.357v-2.127h3.357V90.773z"/>
	<path class="st0" d="M1068.275,97.875V117h-2.426v-3.287c-1.031,1.254-2.188,2.197-3.472,2.83s-2.687,0.949-4.21,0.949
		c-2.707,0-5.019-0.981-6.935-2.944s-2.874-4.351-2.874-7.163c0-2.754,0.967-5.109,2.9-7.066s4.26-2.936,6.979-2.936
		c1.57,0,2.991,0.334,4.263,1.002s2.388,1.67,3.349,3.006v-3.516H1068.275z M1058.44,99.755c-1.369,0-2.634,0.337-3.792,1.01
		c-1.159,0.673-2.081,1.619-2.766,2.836c-0.686,1.217-1.027,2.505-1.027,3.862c0,1.346,0.346,2.634,1.036,3.863
		s1.618,2.186,2.782,2.871c1.165,0.685,2.414,1.027,3.749,1.027c1.346,0,2.622-0.339,3.827-1.019
		c1.206-0.679,2.134-1.598,2.783-2.756s0.975-2.464,0.975-3.916c0-2.212-0.729-4.062-2.186-5.548
		C1062.364,100.499,1060.57,99.755,1058.44,99.755z"/>
	<path class="st0" d="M1073.795,90.492h2.461v15.101l8.867-7.718h3.613l-10.512,9.123L1089.352,117h-3.464l-9.632-8.611V117h-2.461
		V90.492z"/>
	<path class="st0" d="M1092.735,90c0.56,0,1.038,0.199,1.436,0.598c0.396,0.398,0.595,0.879,0.595,1.441
		c0,0.551-0.198,1.025-0.595,1.424c-0.397,0.398-0.876,0.598-1.436,0.598c-0.549,0-1.021-0.199-1.418-0.598
		s-0.595-0.873-0.595-1.424c0-0.562,0.198-1.043,0.595-1.441S1092.187,90,1092.735,90z M1091.514,97.875h2.461V117h-2.461V97.875z"
		/>
	<path class="st0" d="M1099.09,97.875h2.461v3.428c0.984-1.312,2.074-2.294,3.27-2.944s2.496-0.976,3.902-0.976
		c1.43,0,2.698,0.363,3.806,1.09s1.925,1.705,2.452,2.936s0.791,3.146,0.791,5.748V117h-2.461v-9.123
		c0-2.203-0.092-3.674-0.273-4.412c-0.285-1.266-0.833-2.218-1.642-2.856s-1.863-0.958-3.164-0.958c-1.488,0-2.822,0.492-4,1.477
		s-1.954,2.203-2.329,3.656c-0.234,0.949-0.352,2.684-0.352,5.203V117h-2.461V97.875z"/>
	<path class="st0" d="M1137.533,97.875h2.461v15.24c0,2.684-0.234,4.646-0.703,5.889c-0.645,1.758-1.764,3.111-3.357,4.061
		s-3.51,1.424-5.748,1.424c-1.641,0-3.114-0.232-4.421-0.696c-1.307-0.464-2.37-1.087-3.19-1.869
		c-0.82-0.782-1.576-1.925-2.268-3.429h2.672c0.728,1.266,1.666,2.203,2.815,2.812c1.15,0.609,2.576,0.914,4.277,0.914
		c1.678,0,3.095-0.312,4.25-0.937c1.156-0.625,1.98-1.411,2.473-2.356c0.493-0.946,0.739-2.473,0.739-4.582v-0.984
		c-0.927,1.172-2.059,2.071-3.396,2.698c-1.337,0.627-2.757,0.94-4.258,0.94c-1.76,0-3.414-0.437-4.962-1.31
		c-1.549-0.873-2.745-2.048-3.59-3.524s-1.267-3.1-1.267-4.869s0.439-3.419,1.319-4.948s2.097-2.739,3.651-3.63
		s3.193-1.336,4.918-1.336c1.431,0,2.766,0.296,4.003,0.888c1.238,0.592,2.432,1.567,3.581,2.927V97.875z M1130.273,99.755
		c-1.395,0-2.689,0.337-3.885,1.011s-2.133,1.605-2.812,2.795s-1.02,2.476-1.02,3.858c0,2.098,0.703,3.832,2.109,5.203
		s3.229,2.057,5.467,2.057c2.262,0,4.081-0.68,5.458-2.039s2.065-3.146,2.065-5.361c0-1.441-0.316-2.728-0.949-3.858
		s-1.529-2.024-2.689-2.681S1131.609,99.755,1130.273,99.755z"/>
	<path class="st0" d="M1157.379,90.773h2.461v7.102h3.902v2.127h-3.902V117h-2.461v-16.998h-3.357v-2.127h3.357V90.773z"/>
	<path class="st0" d="M1167.434,90.492h2.461v10.811c0.996-1.312,2.092-2.294,3.287-2.944s2.49-0.976,3.885-0.976
		c1.43,0,2.698,0.363,3.806,1.09s1.925,1.702,2.452,2.927s0.791,3.144,0.791,5.757V117h-2.461v-9.123
		c0-2.203-0.088-3.674-0.264-4.412c-0.305-1.266-0.858-2.218-1.661-2.856s-1.854-0.958-3.155-0.958
		c-1.488,0-2.821,0.492-3.999,1.477s-1.954,2.203-2.329,3.656c-0.234,0.938-0.352,2.672-0.352,5.203V117h-2.461V90.492z"/>
	<path class="st0" d="M1205.49,110.654l2.074,1.09c-0.681,1.336-1.466,2.414-2.357,3.234s-1.895,1.444-3.009,1.872
		s-2.376,0.642-3.783,0.642c-3.12,0-5.56-1.022-7.318-3.067c-1.76-2.045-2.64-4.356-2.64-6.935c0-2.426,0.744-4.588,2.234-6.486
		c1.889-2.414,4.416-3.621,7.583-3.621c3.261,0,5.864,1.236,7.812,3.709c1.384,1.746,2.088,3.926,2.111,6.539h-17.209
		c0.047,2.222,0.757,4.042,2.13,5.463c1.372,1.42,3.067,2.131,5.086,2.131c0.974,0,1.921-0.169,2.842-0.508
		c0.921-0.338,1.704-0.788,2.35-1.348C1204.041,112.808,1204.739,111.903,1205.49,110.654z M1205.49,105.503
		c-0.328-1.312-0.807-2.361-1.435-3.146s-1.458-1.418-2.49-1.898c-1.033-0.48-2.118-0.721-3.256-0.721
		c-1.878,0-3.491,0.604-4.84,1.811c-0.986,0.879-1.731,2.197-2.235,3.955H1205.49z"/>
	<path class="st0" d="M1224.896,90.773h2.461v7.102h3.902v2.127h-3.902V117h-2.461v-16.998h-3.357v-2.127h3.357V90.773z"/>
	<path class="st0" d="M1235.804,90c0.56,0,1.038,0.199,1.436,0.598c0.396,0.398,0.595,0.879,0.595,1.441
		c0,0.551-0.198,1.025-0.595,1.424c-0.397,0.398-0.876,0.598-1.436,0.598c-0.549,0-1.021-0.199-1.418-0.598
		s-0.595-0.873-0.595-1.424c0-0.562,0.198-1.043,0.595-1.441S1235.255,90,1235.804,90z M1234.582,97.875h2.461V117h-2.461V97.875z"
		/>
	<path class="st0" d="M1242.141,97.875h2.461v3.305c0.856-1.219,1.736-2.109,2.64-2.672c1.244-0.75,2.552-1.125,3.925-1.125
		c0.927,0,1.807,0.182,2.64,0.545s1.514,0.847,2.041,1.45c0.528,0.604,0.985,1.468,1.373,2.593c0.818-1.5,1.841-2.64,3.068-3.419
		s2.549-1.169,3.964-1.169c1.321,0,2.487,0.334,3.498,1.002c1.012,0.668,1.763,1.6,2.254,2.795s0.736,2.988,0.736,5.379V117h-2.514
		v-10.441c0-2.051-0.146-3.46-0.438-4.228s-0.791-1.386-1.498-1.854c-0.706-0.469-1.55-0.703-2.531-0.703
		c-1.191,0-2.28,0.352-3.268,1.055s-1.708,1.641-2.164,2.812c-0.455,1.172-0.683,3.129-0.683,5.871V117h-2.461v-9.791
		c0-2.309-0.144-3.876-0.431-4.702s-0.788-1.488-1.503-1.986s-1.564-0.747-2.549-0.747c-1.137,0-2.2,0.343-3.19,1.028
		s-1.723,1.608-2.197,2.769s-0.712,2.936-0.712,5.326V117h-2.461V97.875z"/>
	<path class="st0" d="M1292.027,110.654l2.074,1.09c-0.681,1.336-1.466,2.414-2.357,3.234s-1.895,1.444-3.009,1.872
		s-2.376,0.642-3.783,0.642c-3.12,0-5.56-1.022-7.318-3.067c-1.76-2.045-2.64-4.356-2.64-6.935c0-2.426,0.744-4.588,2.234-6.486
		c1.889-2.414,4.416-3.621,7.583-3.621c3.261,0,5.864,1.236,7.812,3.709c1.384,1.746,2.088,3.926,2.111,6.539h-17.209
		c0.047,2.222,0.757,4.042,2.13,5.463c1.372,1.42,3.067,2.131,5.086,2.131c0.974,0,1.921-0.169,2.842-0.508
		c0.921-0.338,1.704-0.788,2.35-1.348C1290.578,112.808,1291.276,111.903,1292.027,110.654z M1292.027,105.503
		c-0.328-1.312-0.807-2.361-1.435-3.146s-1.458-1.418-2.49-1.898c-1.033-0.48-2.118-0.721-3.256-0.721
		c-1.878,0-3.491,0.604-4.84,1.811c-0.986,0.879-1.731,2.197-2.235,3.955H1292.027z"/>
	<path class="st0" d="M1311.434,90.773h2.461v7.102h3.902v2.127h-3.902V117h-2.461v-16.998h-3.357v-2.127h3.357V90.773z"/>
	<path class="st0" d="M1330.541,97.382c2.946,0,5.389,1.066,7.325,3.199c1.761,1.945,2.642,4.248,2.642,6.908
		c0,2.672-0.931,5.007-2.791,7.005c-1.861,1.998-4.253,2.997-7.176,2.997c-2.935,0-5.333-0.999-7.193-2.997
		s-2.791-4.333-2.791-7.005c0-2.648,0.88-4.945,2.642-6.891C1325.135,98.455,1327.583,97.382,1330.541,97.382z M1330.532,99.791
		c-2.046,0-3.805,0.756-5.274,2.268s-2.205,3.34-2.205,5.484c0,1.383,0.335,2.672,1.006,3.867c0.67,1.195,1.575,2.118,2.717,2.769
		c1.141,0.65,2.393,0.976,3.757,0.976s2.616-0.325,3.757-0.976c1.142-0.65,2.047-1.573,2.717-2.769
		c0.671-1.195,1.006-2.484,1.006-3.867c0-2.145-0.738-3.973-2.214-5.484C1334.321,100.546,1332.566,99.791,1330.532,99.791z"/>
	<path class="st0" d="M1353.217,97.875h2.619l6.42,13.941l6.342-13.941h2.637L1362.48,117h-0.457L1353.217,97.875z"/>
	<path class="st0" d="M1375.831,90c0.56,0,1.038,0.199,1.436,0.598c0.396,0.398,0.595,0.879,0.595,1.441
		c0,0.551-0.198,1.025-0.595,1.424c-0.397,0.398-0.876,0.598-1.436,0.598c-0.549,0-1.021-0.199-1.418-0.598
		s-0.595-0.873-0.595-1.424c0-0.562,0.198-1.043,0.595-1.441S1375.282,90,1375.831,90z M1374.609,97.875h2.461V117h-2.461V97.875z"
		/>
	<path class="st0" d="M1391.801,99.966l-1.582,1.635c-1.316-1.277-2.603-1.916-3.859-1.916c-0.8,0-1.483,0.264-2.054,0.791
		c-0.569,0.527-0.854,1.143-0.854,1.846c0,0.621,0.234,1.213,0.704,1.775c0.47,0.574,1.457,1.248,2.96,2.021
		c1.832,0.949,3.076,1.863,3.734,2.742c0.646,0.891,0.969,1.893,0.969,3.006c0,1.57-0.552,2.9-1.655,3.99s-2.482,1.635-4.137,1.635
		c-1.104,0-2.157-0.24-3.16-0.721c-1.004-0.48-1.834-1.143-2.491-1.986l1.547-1.758c1.257,1.418,2.59,2.127,4,2.127
		c0.986,0,1.826-0.316,2.519-0.949c0.693-0.633,1.04-1.377,1.04-2.232c0-0.703-0.229-1.33-0.687-1.881
		c-0.459-0.539-1.492-1.219-3.101-2.039c-1.727-0.891-2.901-1.77-3.523-2.637s-0.934-1.857-0.934-2.971
		c0-1.453,0.496-2.66,1.488-3.621c0.991-0.961,2.244-1.441,3.759-1.441C1388.244,97.382,1390.017,98.244,1391.801,99.966z"/>
	<path class="st0" d="M1397.013,90c0.56,0,1.038,0.199,1.436,0.598c0.396,0.398,0.595,0.879,0.595,1.441
		c0,0.551-0.198,1.025-0.595,1.424c-0.397,0.398-0.876,0.598-1.436,0.598c-0.549,0-1.021-0.199-1.418-0.598S1395,92.589,1395,92.039
		c0-0.562,0.198-1.043,0.595-1.441S1396.464,90,1397.013,90z M1395.791,97.875h2.461V117h-2.461V97.875z"/>
	<path class="st0" d="M1405.512,90.773h2.461v7.102h3.902v2.127h-3.902V117h-2.461v-16.998h-3.357v-2.127h3.357V90.773z"/>
	<path class="st0" d="M1425.516,97.875h2.461v3.305c0.856-1.219,1.736-2.109,2.64-2.672c1.244-0.75,2.552-1.125,3.925-1.125
		c0.927,0,1.807,0.182,2.64,0.545s1.514,0.847,2.041,1.45c0.528,0.604,0.985,1.468,1.373,2.593c0.818-1.5,1.841-2.64,3.068-3.419
		s2.549-1.169,3.964-1.169c1.321,0,2.487,0.334,3.498,1.002c1.012,0.668,1.763,1.6,2.254,2.795s0.736,2.988,0.736,5.379V117h-2.514
		v-10.441c0-2.051-0.146-3.46-0.438-4.228s-0.791-1.386-1.498-1.854c-0.706-0.469-1.55-0.703-2.531-0.703
		c-1.191,0-2.28,0.352-3.268,1.055s-1.708,1.641-2.164,2.812c-0.455,1.172-0.683,3.129-0.683,5.871V117h-2.461v-9.791
		c0-2.309-0.144-3.876-0.431-4.702s-0.788-1.488-1.503-1.986s-1.564-0.747-2.549-0.747c-1.137,0-2.2,0.343-3.19,1.028
		s-1.723,1.608-2.197,2.769s-0.712,2.936-0.712,5.326V117h-2.461V97.875z"/>
	<path class="st0" d="M1457.244,97.875h2.602l6.572,14.727l6.383-14.727h2.619l-11.408,26.121h-2.6l3.682-8.445L1457.244,97.875z"/>
	<path class="st0" d="M1498.184,99.966l-1.582,1.635c-1.316-1.277-2.603-1.916-3.859-1.916c-0.8,0-1.483,0.264-2.054,0.791
		c-0.569,0.527-0.854,1.143-0.854,1.846c0,0.621,0.234,1.213,0.704,1.775c0.47,0.574,1.457,1.248,2.96,2.021
		c1.832,0.949,3.076,1.863,3.734,2.742c0.646,0.891,0.969,1.893,0.969,3.006c0,1.57-0.552,2.9-1.655,3.99s-2.482,1.635-4.137,1.635
		c-1.104,0-2.157-0.24-3.16-0.721c-1.004-0.48-1.834-1.143-2.491-1.986l1.547-1.758c1.257,1.418,2.59,2.127,4,2.127
		c0.986,0,1.826-0.316,2.519-0.949c0.693-0.633,1.04-1.377,1.04-2.232c0-0.703-0.229-1.33-0.687-1.881
		c-0.459-0.539-1.492-1.219-3.101-2.039c-1.727-0.891-2.901-1.77-3.523-2.637s-0.934-1.857-0.934-2.971
		c0-1.453,0.496-2.66,1.488-3.621c0.991-0.961,2.244-1.441,3.759-1.441C1494.627,97.382,1496.399,98.244,1498.184,99.966z"/>
	<path class="st0" d="M1503.396,90c0.56,0,1.038,0.199,1.436,0.598c0.396,0.398,0.595,0.879,0.595,1.441
		c0,0.551-0.198,1.025-0.595,1.424c-0.397,0.398-0.876,0.598-1.436,0.598c-0.549,0-1.021-0.199-1.418-0.598
		s-0.595-0.873-0.595-1.424c0-0.562,0.198-1.043,0.595-1.441S1502.847,90,1503.396,90z M1502.174,97.875h2.461V117h-2.461V97.875z"
		/>
	<path class="st0" d="M1511.895,90.773h2.461v7.102h3.902v2.127h-3.902V117h-2.461v-16.998h-3.357v-2.127h3.357V90.773z"/>
	<path class="st0" d="M1538.051,110.654l2.074,1.09c-0.681,1.336-1.466,2.414-2.357,3.234s-1.895,1.444-3.009,1.872
		s-2.376,0.642-3.783,0.642c-3.12,0-5.56-1.022-7.318-3.067c-1.76-2.045-2.64-4.356-2.64-6.935c0-2.426,0.744-4.588,2.234-6.486
		c1.889-2.414,4.416-3.621,7.583-3.621c3.261,0,5.864,1.236,7.812,3.709c1.384,1.746,2.088,3.926,2.111,6.539h-17.209
		c0.047,2.222,0.757,4.042,2.13,5.463c1.372,1.42,3.067,2.131,5.086,2.131c0.974,0,1.921-0.169,2.842-0.508
		c0.921-0.338,1.704-0.788,2.35-1.348C1536.602,112.808,1537.3,111.903,1538.051,110.654z M1538.051,105.503
		c-0.328-1.312-0.807-2.361-1.435-3.146s-1.458-1.418-2.49-1.898c-1.033-0.48-2.118-0.721-3.256-0.721
		c-1.878,0-3.491,0.604-4.84,1.811c-0.986,0.879-1.731,2.197-2.235,3.955H1538.051z"/>
	<path class="st0" d="M38.646,134.342h2.584V160.2h-2.584V134.342z"/>
	<path class="st0" d="M54.624,133.692v2.408c-0.902-0.387-1.676-0.58-2.32-0.58c-0.48,0-0.879,0.097-1.195,0.29
		s-0.516,0.416-0.598,0.668s-0.123,0.923-0.123,2.013l-0.002,2.584h3.992v2.127h-3.994L50.37,160.2h-2.461v-16.998h-2.514v-2.127
		h2.514v-2.988c0-1.371,0.126-2.35,0.378-2.936s0.68-1.058,1.283-1.415s1.333-0.536,2.188-0.536
		C52.556,133.2,53.511,133.364,54.624,133.692z"/>
	<path class="st0" d="M65.962,141.075h2.602l6.572,14.727l6.383-14.727h2.619l-11.408,26.121h-2.6l3.682-8.445L65.962,141.075z"/>
	<path class="st0" d="M96.372,140.583c2.946,0,5.389,1.066,7.325,3.199c1.761,1.945,2.642,4.248,2.642,6.908
		c0,2.672-0.931,5.007-2.791,7.005c-1.861,1.998-4.253,2.997-7.176,2.997c-2.935,0-5.333-0.999-7.193-2.997
		s-2.791-4.333-2.791-7.005c0-2.648,0.88-4.945,2.642-6.891C90.966,141.655,93.414,140.583,96.372,140.583z M96.363,142.991
		c-2.046,0-3.805,0.756-5.274,2.268s-2.205,3.34-2.205,5.484c0,1.383,0.335,2.672,1.006,3.867c0.67,1.195,1.575,2.118,2.717,2.769
		c1.141,0.65,2.393,0.976,3.757,0.976s2.616-0.325,3.757-0.976c1.142-0.65,2.047-1.573,2.717-2.769
		c0.671-1.195,1.006-2.484,1.006-3.867c0-2.145-0.738-3.973-2.214-5.484C100.152,143.747,98.397,142.991,96.363,142.991z"/>
	<path class="st0" d="M110.575,141.075h2.461v8.93c0,2.18,0.117,3.68,0.353,4.5c0.352,1.172,1.023,2.098,2.016,2.777
		c0.991,0.68,2.174,1.02,3.547,1.02s2.538-0.331,3.494-0.993c0.957-0.662,1.617-1.532,1.98-2.61c0.247-0.738,0.37-2.303,0.37-4.693
		v-8.93h2.514v9.387c0,2.637-0.308,4.623-0.923,5.959s-1.541,2.382-2.777,3.138s-2.786,1.134-4.649,1.134s-3.419-0.378-4.667-1.134
		s-2.18-1.811-2.795-3.164s-0.923-3.39-0.923-6.108V141.075z"/>
	<path class="st0" d="M161.798,141.075V160.2h-2.426v-3.287c-1.031,1.254-2.188,2.197-3.472,2.83s-2.687,0.949-4.21,0.949
		c-2.707,0-5.019-0.981-6.935-2.944s-2.874-4.351-2.874-7.163c0-2.754,0.967-5.109,2.9-7.066s4.26-2.936,6.979-2.936
		c1.57,0,2.991,0.334,4.263,1.002s2.388,1.67,3.349,3.006v-3.516H161.798z M151.963,142.956c-1.369,0-2.634,0.337-3.792,1.01
		c-1.159,0.673-2.081,1.619-2.766,2.836c-0.686,1.217-1.027,2.505-1.027,3.862c0,1.346,0.346,2.634,1.036,3.863
		s1.618,2.186,2.782,2.871c1.165,0.685,2.414,1.027,3.749,1.027c1.346,0,2.622-0.339,3.827-1.019
		c1.206-0.679,2.134-1.598,2.783-2.756s0.975-2.464,0.975-3.916c0-2.212-0.729-4.062-2.186-5.548
		C155.887,143.699,154.093,142.956,151.963,142.956z"/>
	<path class="st0" d="M166.403,141.075h2.514v2.795c0.75-1.102,1.541-1.925,2.373-2.47s1.699-0.817,2.602-0.817
		c0.68,0,1.406,0.217,2.18,0.65l-1.283,2.074c-0.516-0.223-0.949-0.334-1.301-0.334c-0.82,0-1.611,0.337-2.373,1.011
		s-1.342,1.72-1.74,3.138c-0.305,1.09-0.457,3.293-0.457,6.609v6.469h-2.514V141.075z"/>
	<path class="st0" d="M194.124,153.854l2.074,1.09c-0.681,1.336-1.466,2.414-2.357,3.234s-1.895,1.444-3.009,1.872
		s-2.376,0.642-3.783,0.642c-3.12,0-5.56-1.022-7.318-3.067c-1.76-2.045-2.64-4.356-2.64-6.935c0-2.426,0.744-4.588,2.234-6.486
		c1.889-2.414,4.416-3.621,7.583-3.621c3.261,0,5.864,1.236,7.812,3.709c1.384,1.746,2.088,3.926,2.111,6.539h-17.209
		c0.047,2.222,0.757,4.042,2.13,5.463c1.372,1.42,3.067,2.131,5.086,2.131c0.974,0,1.921-0.169,2.842-0.508
		c0.921-0.338,1.704-0.788,2.35-1.348C192.675,156.008,193.373,155.103,194.124,153.854z M194.124,148.704
		c-0.328-1.312-0.807-2.361-1.435-3.146s-1.458-1.418-2.49-1.898c-1.033-0.48-2.118-0.721-3.256-0.721
		c-1.878,0-3.491,0.604-4.84,1.811c-0.986,0.879-1.731,2.197-2.235,3.955H194.124z"/>
	<path class="st0" d="M213.53,133.973h2.461v7.102h3.902v2.127h-3.902V160.2h-2.461v-16.998h-3.357v-2.127h3.357V133.973z"/>
	<path class="st0" d="M222.653,141.075h2.514v2.795c0.75-1.102,1.541-1.925,2.373-2.47s1.699-0.817,2.602-0.817
		c0.68,0,1.406,0.217,2.18,0.65l-1.283,2.074c-0.516-0.223-0.949-0.334-1.301-0.334c-0.82,0-1.611,0.337-2.373,1.011
		s-1.342,1.72-1.74,3.138c-0.305,1.09-0.457,3.293-0.457,6.609v6.469h-2.514V141.075z"/>
	<path class="st0" d="M232.356,141.075h2.602l6.572,14.727l6.383-14.727h2.619l-11.408,26.121h-2.6l3.682-8.445L232.356,141.075z"/>
	<path class="st0" d="M254.566,133.2c0.56,0,1.038,0.199,1.436,0.598c0.396,0.398,0.595,0.879,0.595,1.441
		c0,0.551-0.198,1.025-0.595,1.424c-0.397,0.398-0.876,0.598-1.436,0.598c-0.549,0-1.021-0.199-1.418-0.598
		s-0.595-0.873-0.595-1.424c0-0.562,0.198-1.043,0.595-1.441S254.018,133.2,254.566,133.2z M253.345,141.075h2.461V160.2h-2.461
		V141.075z"/>
	<path class="st0" d="M260.921,141.075h2.461v3.428c0.984-1.312,2.074-2.294,3.27-2.944s2.496-0.976,3.902-0.976
		c1.43,0,2.698,0.363,3.806,1.09s1.925,1.705,2.452,2.936s0.791,3.146,0.791,5.748v9.844h-2.461v-9.123
		c0-2.203-0.092-3.674-0.273-4.412c-0.285-1.266-0.833-2.218-1.642-2.856s-1.863-0.958-3.164-0.958c-1.488,0-2.822,0.492-4,1.477
		s-1.954,2.203-2.329,3.656c-0.234,0.949-0.352,2.684-0.352,5.203v7.014h-2.461V141.075z"/>
	<path class="st0" d="M299.364,141.075h2.461v15.24c0,2.684-0.234,4.646-0.703,5.889c-0.645,1.758-1.764,3.111-3.357,4.061
		s-3.51,1.424-5.748,1.424c-1.641,0-3.114-0.232-4.421-0.696c-1.307-0.464-2.37-1.087-3.19-1.869
		c-0.82-0.782-1.576-1.925-2.268-3.429h2.672c0.728,1.266,1.666,2.203,2.815,2.812c1.15,0.609,2.576,0.914,4.277,0.914
		c1.678,0,3.095-0.312,4.25-0.937c1.156-0.625,1.98-1.411,2.473-2.356c0.493-0.946,0.739-2.473,0.739-4.582v-0.984
		c-0.927,1.172-2.059,2.071-3.396,2.698c-1.337,0.627-2.757,0.94-4.258,0.94c-1.76,0-3.414-0.437-4.962-1.31
		c-1.549-0.873-2.745-2.048-3.59-3.524s-1.267-3.1-1.267-4.869s0.439-3.419,1.319-4.948s2.097-2.739,3.651-3.63
		s3.193-1.336,4.918-1.336c1.431,0,2.766,0.296,4.003,0.888c1.238,0.592,2.432,1.567,3.581,2.927V141.075z M292.104,142.956
		c-1.395,0-2.689,0.337-3.885,1.011s-2.133,1.605-2.812,2.795s-1.02,2.476-1.02,3.858c0,2.098,0.703,3.832,2.109,5.203
		s3.229,2.057,5.467,2.057c2.262,0,4.081-0.68,5.458-2.039s2.065-3.146,2.065-5.361c0-1.441-0.316-2.728-0.949-3.858
		s-1.529-2.024-2.689-2.681S293.44,142.956,292.104,142.956z"/>
	<path class="st0" d="M319.21,133.973h2.461v7.102h3.902v2.127h-3.902V160.2h-2.461v-16.998h-3.357v-2.127h3.357V133.973z"/>
	<path class="st0" d="M338.317,140.583c2.946,0,5.389,1.066,7.325,3.199c1.761,1.945,2.642,4.248,2.642,6.908
		c0,2.672-0.931,5.007-2.791,7.005c-1.861,1.998-4.253,2.997-7.176,2.997c-2.935,0-5.333-0.999-7.193-2.997
		s-2.791-4.333-2.791-7.005c0-2.648,0.88-4.945,2.642-6.891C332.911,141.655,335.359,140.583,338.317,140.583z M338.309,142.991
		c-2.046,0-3.805,0.756-5.274,2.268s-2.205,3.34-2.205,5.484c0,1.383,0.335,2.672,1.006,3.867c0.67,1.195,1.575,2.118,2.717,2.769
		c1.141,0.65,2.393,0.976,3.757,0.976s2.616-0.325,3.757-0.976c1.142-0.65,2.047-1.573,2.717-2.769
		c0.671-1.195,1.006-2.484,1.006-3.867c0-2.145-0.738-3.973-2.214-5.484C342.098,143.747,340.343,142.991,338.309,142.991z"/>
	<path class="st0" d="M381.366,145.047l-1.951,1.213c-1.686-2.238-3.985-3.357-6.9-3.357c-2.329,0-4.264,0.749-5.803,2.248
		c-1.539,1.498-2.309,3.318-2.309,5.46c0,1.393,0.354,2.704,1.062,3.933s1.68,2.183,2.914,2.862
		c1.235,0.679,2.619,1.019,4.152,1.019c2.81,0,5.104-1.119,6.883-3.357l1.951,1.283c-0.914,1.376-2.142,2.444-3.683,3.203
		c-1.541,0.759-3.296,1.139-5.265,1.139c-3.023,0-5.531-0.961-7.523-2.883s-2.988-4.26-2.988-7.014c0-1.852,0.466-3.571,1.397-5.159
		s2.212-2.827,3.841-3.718s3.451-1.336,5.467-1.336c1.266,0,2.487,0.193,3.665,0.58s2.177,0.891,2.997,1.512
		S380.792,144.086,381.366,145.047z"/>
	<path class="st0" d="M395.147,140.583c2.946,0,5.389,1.066,7.325,3.199c1.761,1.945,2.642,4.248,2.642,6.908
		c0,2.672-0.931,5.007-2.791,7.005c-1.861,1.998-4.253,2.997-7.176,2.997c-2.935,0-5.333-0.999-7.193-2.997
		s-2.791-4.333-2.791-7.005c0-2.648,0.88-4.945,2.642-6.891C389.741,141.655,392.189,140.583,395.147,140.583z M395.139,142.991
		c-2.046,0-3.805,0.756-5.274,2.268s-2.205,3.34-2.205,5.484c0,1.383,0.335,2.672,1.006,3.867c0.67,1.195,1.575,2.118,2.717,2.769
		c1.141,0.65,2.393,0.976,3.757,0.976s2.616-0.325,3.757-0.976c1.142-0.65,2.047-1.573,2.717-2.769
		c0.671-1.195,1.006-2.484,1.006-3.867c0-2.145-0.738-3.973-2.214-5.484C398.928,143.747,397.173,142.991,395.139,142.991z"/>
	<path class="st0" d="M409.667,141.075h2.461v3.428c0.984-1.312,2.074-2.294,3.27-2.944s2.496-0.976,3.902-0.976
		c1.43,0,2.698,0.363,3.806,1.09s1.925,1.705,2.452,2.936s0.791,3.146,0.791,5.748v9.844h-2.461v-9.123
		c0-2.203-0.092-3.674-0.273-4.412c-0.285-1.266-0.833-2.218-1.642-2.856s-1.863-0.958-3.164-0.958c-1.488,0-2.822,0.492-4,1.477
		s-1.954,2.203-2.329,3.656c-0.234,0.949-0.352,2.684-0.352,5.203v7.014h-2.461V141.075z"/>
	<path class="st0" d="M433.767,133.973h2.461v7.102h3.902v2.127h-3.902V160.2h-2.461v-16.998h-3.357v-2.127h3.357V133.973z"/>
	<path class="st0" d="M462.876,141.075V160.2h-2.426v-3.287c-1.031,1.254-2.188,2.197-3.472,2.83s-2.687,0.949-4.21,0.949
		c-2.707,0-5.019-0.981-6.935-2.944s-2.874-4.351-2.874-7.163c0-2.754,0.967-5.109,2.9-7.066s4.26-2.936,6.979-2.936
		c1.57,0,2.991,0.334,4.263,1.002s2.388,1.67,3.349,3.006v-3.516H462.876z M453.041,142.956c-1.369,0-2.634,0.337-3.792,1.01
		c-1.159,0.673-2.081,1.619-2.766,2.836c-0.686,1.217-1.027,2.505-1.027,3.862c0,1.346,0.346,2.634,1.036,3.863
		s1.618,2.186,2.782,2.871c1.165,0.685,2.414,1.027,3.749,1.027c1.346,0,2.622-0.339,3.827-1.019
		c1.206-0.679,2.134-1.598,2.783-2.756s0.975-2.464,0.975-3.916c0-2.212-0.729-4.062-2.186-5.548
		C456.965,143.699,455.171,142.956,453.041,142.956z"/>
	<path class="st0" d="M486.976,145.047l-1.951,1.213c-1.686-2.238-3.985-3.357-6.9-3.357c-2.329,0-4.264,0.749-5.803,2.248
		c-1.539,1.498-2.309,3.318-2.309,5.46c0,1.393,0.354,2.704,1.062,3.933s1.68,2.183,2.914,2.862
		c1.235,0.679,2.619,1.019,4.152,1.019c2.81,0,5.104-1.119,6.883-3.357l1.951,1.283c-0.914,1.376-2.142,2.444-3.683,3.203
		c-1.541,0.759-3.296,1.139-5.265,1.139c-3.023,0-5.531-0.961-7.523-2.883s-2.988-4.26-2.988-7.014c0-1.852,0.466-3.571,1.397-5.159
		s2.212-2.827,3.841-3.718s3.451-1.336,5.467-1.336c1.266,0,2.487,0.193,3.665,0.58s2.177,0.891,2.997,1.512
		S486.401,144.086,486.976,145.047z"/>
	<path class="st0" d="M493.849,133.973h2.461v7.102h3.902v2.127h-3.902V160.2h-2.461v-16.998h-3.357v-2.127h3.357V133.973z"/>
	<path class="st0" d="M513.853,141.075h2.461v3.305c0.856-1.219,1.736-2.109,2.64-2.672c1.244-0.75,2.552-1.125,3.925-1.125
		c0.927,0,1.807,0.182,2.64,0.545s1.514,0.847,2.041,1.45c0.528,0.604,0.985,1.468,1.373,2.593c0.818-1.5,1.841-2.64,3.068-3.419
		s2.549-1.169,3.964-1.169c1.321,0,2.487,0.334,3.498,1.002c1.012,0.668,1.763,1.6,2.254,2.795s0.736,2.988,0.736,5.379V160.2
		h-2.514v-10.441c0-2.051-0.146-3.46-0.438-4.228s-0.791-1.386-1.498-1.854c-0.706-0.469-1.55-0.703-2.531-0.703
		c-1.191,0-2.28,0.352-3.268,1.055s-1.708,1.641-2.164,2.812c-0.455,1.172-0.683,3.129-0.683,5.871v7.488h-2.461v-9.791
		c0-2.309-0.144-3.876-0.431-4.702s-0.788-1.488-1.503-1.986s-1.564-0.747-2.549-0.747c-1.137,0-2.2,0.343-3.19,1.028
		s-1.723,1.608-2.197,2.769s-0.712,2.936-0.712,5.326v8.104h-2.461V141.075z"/>
	<path class="st0" d="M563.739,153.854l2.074,1.09c-0.681,1.336-1.466,2.414-2.357,3.234s-1.895,1.444-3.009,1.872
		s-2.376,0.642-3.783,0.642c-3.12,0-5.56-1.022-7.318-3.067c-1.76-2.045-2.64-4.356-2.64-6.935c0-2.426,0.744-4.588,2.234-6.486
		c1.889-2.414,4.416-3.621,7.583-3.621c3.261,0,5.864,1.236,7.812,3.709c1.384,1.746,2.088,3.926,2.111,6.539h-17.209
		c0.047,2.222,0.757,4.042,2.13,5.463c1.372,1.42,3.067,2.131,5.086,2.131c0.974,0,1.921-0.169,2.842-0.508
		c0.921-0.338,1.704-0.788,2.35-1.348C562.29,156.008,562.988,155.103,563.739,153.854z M563.739,148.704
		c-0.328-1.312-0.807-2.361-1.435-3.146s-1.458-1.418-2.49-1.898c-1.033-0.48-2.118-0.721-3.256-0.721
		c-1.878,0-3.491,0.604-4.84,1.811c-0.986,0.879-1.731,2.197-2.235,3.955H563.739z"/>
	<path class="st0" d="M578.944,141.075h2.602l6.572,14.727l6.383-14.727h2.619l-11.408,26.121h-2.6l3.682-8.445L578.944,141.075z"/>
	<path class="st0" d="M609.354,140.583c2.946,0,5.389,1.066,7.325,3.199c1.761,1.945,2.642,4.248,2.642,6.908
		c0,2.672-0.931,5.007-2.791,7.005c-1.861,1.998-4.253,2.997-7.176,2.997c-2.935,0-5.333-0.999-7.193-2.997
		s-2.791-4.333-2.791-7.005c0-2.648,0.88-4.945,2.642-6.891C603.948,141.655,606.396,140.583,609.354,140.583z M609.346,142.991
		c-2.046,0-3.805,0.756-5.274,2.268s-2.205,3.34-2.205,5.484c0,1.383,0.335,2.672,1.006,3.867c0.67,1.195,1.575,2.118,2.717,2.769
		c1.141,0.65,2.393,0.976,3.757,0.976s2.616-0.325,3.757-0.976c1.142-0.65,2.047-1.573,2.717-2.769
		c0.671-1.195,1.006-2.484,1.006-3.867c0-2.145-0.738-3.973-2.214-5.484C613.135,143.747,611.38,142.991,609.346,142.991z"/>
	<path class="st0" d="M623.558,141.075h2.461v8.93c0,2.18,0.117,3.68,0.353,4.5c0.352,1.172,1.023,2.098,2.016,2.777
		c0.991,0.68,2.174,1.02,3.547,1.02s2.538-0.331,3.494-0.993c0.957-0.662,1.617-1.532,1.98-2.61c0.247-0.738,0.37-2.303,0.37-4.693
		v-8.93h2.514v9.387c0,2.637-0.308,4.623-0.923,5.959s-1.541,2.382-2.777,3.138s-2.786,1.134-4.649,1.134s-3.419-0.378-4.667-1.134
		s-2.18-1.811-2.795-3.164s-0.923-3.39-0.923-6.108V141.075z"/>
	<path class="st0" d="M674.288,145.047l-1.951,1.213c-1.686-2.238-3.985-3.357-6.9-3.357c-2.329,0-4.264,0.749-5.803,2.248
		c-1.539,1.498-2.309,3.318-2.309,5.46c0,1.393,0.354,2.704,1.062,3.933s1.68,2.183,2.914,2.862
		c1.235,0.679,2.619,1.019,4.152,1.019c2.81,0,5.104-1.119,6.883-3.357l1.951,1.283c-0.914,1.376-2.142,2.444-3.683,3.203
		c-1.541,0.759-3.296,1.139-5.265,1.139c-3.023,0-5.531-0.961-7.523-2.883s-2.988-4.26-2.988-7.014c0-1.852,0.466-3.571,1.397-5.159
		s2.212-2.827,3.841-3.718s3.451-1.336,5.467-1.336c1.266,0,2.487,0.193,3.665,0.58s2.177,0.891,2.997,1.512
		S673.714,144.086,674.288,145.047z"/>
	<path class="st0" d="M698.071,141.075V160.2h-2.426v-3.287c-1.031,1.254-2.188,2.197-3.472,2.83s-2.687,0.949-4.21,0.949
		c-2.707,0-5.019-0.981-6.935-2.944s-2.874-4.351-2.874-7.163c0-2.754,0.967-5.109,2.9-7.066s4.26-2.936,6.979-2.936
		c1.57,0,2.991,0.334,4.263,1.002s2.388,1.67,3.349,3.006v-3.516H698.071z M688.236,142.956c-1.369,0-2.634,0.337-3.792,1.01
		c-1.159,0.673-2.081,1.619-2.766,2.836c-0.686,1.217-1.027,2.505-1.027,3.862c0,1.346,0.346,2.634,1.036,3.863
		s1.618,2.186,2.782,2.871c1.165,0.685,2.414,1.027,3.749,1.027c1.346,0,2.622-0.339,3.827-1.019
		c1.206-0.679,2.134-1.598,2.783-2.756s0.975-2.464,0.975-3.916c0-2.212-0.729-4.062-2.186-5.548
		C692.16,143.699,690.366,142.956,688.236,142.956z"/>
	<path class="st0" d="M703.608,141.075h2.461v3.428c0.984-1.312,2.074-2.294,3.27-2.944s2.496-0.976,3.902-0.976
		c1.43,0,2.698,0.363,3.806,1.09s1.925,1.705,2.452,2.936s0.791,3.146,0.791,5.748v9.844h-2.461v-9.123
		c0-2.203-0.092-3.674-0.273-4.412c-0.285-1.266-0.833-2.218-1.642-2.856s-1.863-0.958-3.164-0.958c-1.488,0-2.822,0.492-4,1.477
		s-1.954,2.203-2.329,3.656c-0.234,0.949-0.352,2.684-0.352,5.203v7.014h-2.461V141.075z"/>
	<path class="st0" d="M734.599,141.075h2.514v2.795c0.75-1.102,1.541-1.925,2.373-2.47s1.699-0.817,2.602-0.817
		c0.68,0,1.406,0.217,2.18,0.65l-1.283,2.074c-0.516-0.223-0.949-0.334-1.301-0.334c-0.82,0-1.611,0.337-2.373,1.011
		s-1.342,1.72-1.74,3.138c-0.305,1.09-0.457,3.293-0.457,6.609v6.469h-2.514V141.075z"/>
	<path class="st0" d="M762.319,153.854l2.074,1.09c-0.681,1.336-1.466,2.414-2.357,3.234s-1.895,1.444-3.009,1.872
		s-2.376,0.642-3.783,0.642c-3.12,0-5.56-1.022-7.318-3.067c-1.76-2.045-2.64-4.356-2.64-6.935c0-2.426,0.744-4.588,2.234-6.486
		c1.889-2.414,4.416-3.621,7.583-3.621c3.261,0,5.864,1.236,7.812,3.709c1.384,1.746,2.088,3.926,2.111,6.539h-17.209
		c0.047,2.222,0.757,4.042,2.13,5.463c1.372,1.42,3.067,2.131,5.086,2.131c0.974,0,1.921-0.169,2.842-0.508
		c0.921-0.338,1.704-0.788,2.35-1.348C760.87,156.008,761.568,155.103,762.319,153.854z M762.319,148.704
		c-0.328-1.312-0.807-2.361-1.435-3.146s-1.458-1.418-2.49-1.898c-1.033-0.48-2.118-0.721-3.256-0.721
		c-1.878,0-3.491,0.604-4.84,1.811c-0.986,0.879-1.731,2.197-2.235,3.955H762.319z"/>
	<path class="st0" d="M788.669,141.075V160.2h-2.426v-3.287c-1.031,1.254-2.188,2.197-3.472,2.83s-2.687,0.949-4.21,0.949
		c-2.707,0-5.019-0.981-6.935-2.944s-2.874-4.351-2.874-7.163c0-2.754,0.967-5.109,2.9-7.066s4.26-2.936,6.979-2.936
		c1.57,0,2.991,0.334,4.263,1.002s2.388,1.67,3.349,3.006v-3.516H788.669z M778.834,142.956c-1.369,0-2.634,0.337-3.792,1.01
		c-1.159,0.673-2.081,1.619-2.766,2.836c-0.686,1.217-1.027,2.505-1.027,3.862c0,1.346,0.346,2.634,1.036,3.863
		s1.618,2.186,2.782,2.871c1.165,0.685,2.414,1.027,3.749,1.027c1.346,0,2.622-0.339,3.827-1.019
		c1.206-0.679,2.134-1.598,2.783-2.756s0.975-2.464,0.975-3.916c0-2.212-0.729-4.062-2.186-5.548
		C782.758,143.699,780.964,142.956,778.834,142.956z"/>
	<path class="st0" d="M812.769,145.047l-1.951,1.213c-1.686-2.238-3.985-3.357-6.9-3.357c-2.329,0-4.264,0.749-5.803,2.248
		c-1.539,1.498-2.309,3.318-2.309,5.46c0,1.393,0.354,2.704,1.062,3.933s1.68,2.183,2.914,2.862
		c1.235,0.679,2.619,1.019,4.152,1.019c2.81,0,5.104-1.119,6.883-3.357l1.951,1.283c-0.914,1.376-2.142,2.444-3.683,3.203
		c-1.541,0.759-3.296,1.139-5.265,1.139c-3.023,0-5.531-0.961-7.523-2.883s-2.988-4.26-2.988-7.014c0-1.852,0.466-3.571,1.397-5.159
		s2.212-2.827,3.841-3.718s3.451-1.336,5.467-1.336c1.266,0,2.487,0.193,3.665,0.58s2.177,0.891,2.997,1.512
		S812.194,144.086,812.769,145.047z"/>
	<path class="st0" d="M817.497,133.692h2.461v10.811c0.996-1.312,2.092-2.294,3.287-2.944s2.49-0.976,3.885-0.976
		c1.43,0,2.698,0.363,3.806,1.09s1.925,1.702,2.452,2.927s0.791,3.144,0.791,5.757v9.844h-2.461v-9.123
		c0-2.203-0.088-3.674-0.264-4.412c-0.305-1.266-0.858-2.218-1.661-2.856s-1.854-0.958-3.155-0.958
		c-1.488,0-2.821,0.492-3.999,1.477s-1.954,2.203-2.329,3.656c-0.234,0.938-0.352,2.672-0.352,5.203v7.014h-2.461V133.692z"/>
	<path class="st0" d="M849.401,141.075h2.461v3.305c0.856-1.219,1.736-2.109,2.64-2.672c1.244-0.75,2.552-1.125,3.925-1.125
		c0.927,0,1.807,0.182,2.64,0.545s1.514,0.847,2.041,1.45c0.528,0.604,0.985,1.468,1.373,2.593c0.818-1.5,1.841-2.64,3.068-3.419
		s2.549-1.169,3.964-1.169c1.321,0,2.487,0.334,3.498,1.002c1.012,0.668,1.763,1.6,2.254,2.795s0.736,2.988,0.736,5.379V160.2
		h-2.514v-10.441c0-2.051-0.146-3.46-0.438-4.228s-0.791-1.386-1.498-1.854c-0.706-0.469-1.55-0.703-2.531-0.703
		c-1.191,0-2.28,0.352-3.268,1.055s-1.708,1.641-2.164,2.812c-0.455,1.172-0.683,3.129-0.683,5.871v7.488h-2.461v-9.791
		c0-2.309-0.144-3.876-0.431-4.702s-0.788-1.488-1.503-1.986s-1.564-0.747-2.549-0.747c-1.137,0-2.2,0.343-3.19,1.028
		s-1.723,1.608-2.197,2.769s-0.712,2.936-0.712,5.326v8.104h-2.461V141.075z"/>
	<path class="st0" d="M899.288,153.854l2.074,1.09c-0.681,1.336-1.466,2.414-2.357,3.234s-1.895,1.444-3.009,1.872
		s-2.376,0.642-3.783,0.642c-3.12,0-5.56-1.022-7.318-3.067c-1.76-2.045-2.64-4.356-2.64-6.935c0-2.426,0.744-4.588,2.234-6.486
		c1.889-2.414,4.416-3.621,7.583-3.621c3.261,0,5.864,1.236,7.812,3.709c1.384,1.746,2.088,3.926,2.111,6.539h-17.209
		c0.047,2.222,0.757,4.042,2.13,5.463c1.372,1.42,3.067,2.131,5.086,2.131c0.974,0,1.921-0.169,2.842-0.508
		c0.921-0.338,1.704-0.788,2.35-1.348C897.839,156.008,898.537,155.103,899.288,153.854z M899.288,148.704
		c-0.328-1.312-0.807-2.361-1.435-3.146s-1.458-1.418-2.49-1.898c-1.033-0.48-2.118-0.721-3.256-0.721
		c-1.878,0-3.491,0.604-4.84,1.811c-0.986,0.879-1.731,2.197-2.235,3.955H899.288z"/>
	<path class="st0" d="M918.694,133.973h2.461v7.102h3.902v2.127h-3.902V160.2h-2.461v-16.998h-3.357v-2.127h3.357V133.973z"/>
	<path class="st0" d="M928.749,133.692h2.461v10.811c0.996-1.312,2.092-2.294,3.287-2.944s2.49-0.976,3.885-0.976
		c1.43,0,2.698,0.363,3.806,1.09s1.925,1.702,2.452,2.927s0.791,3.144,0.791,5.757v9.844h-2.461v-9.123
		c0-2.203-0.088-3.674-0.264-4.412c-0.305-1.266-0.858-2.218-1.661-2.856s-1.854-0.958-3.155-0.958
		c-1.488,0-2.821,0.492-3.999,1.477s-1.954,2.203-2.329,3.656c-0.234,0.938-0.352,2.672-0.352,5.203v7.014h-2.461V133.692z"/>
	<path class="st0" d="M949.772,141.075h2.514v2.795c0.75-1.102,1.541-1.925,2.373-2.47s1.699-0.817,2.602-0.817
		c0.68,0,1.406,0.217,2.18,0.65l-1.283,2.074c-0.516-0.223-0.949-0.334-1.301-0.334c-0.82,0-1.611,0.337-2.373,1.011
		s-1.342,1.72-1.74,3.138c-0.305,1.09-0.457,3.293-0.457,6.609v6.469h-2.514V141.075z"/>
	<path class="st0" d="M970.444,140.583c2.946,0,5.389,1.066,7.325,3.199c1.761,1.945,2.642,4.248,2.642,6.908
		c0,2.672-0.931,5.007-2.791,7.005c-1.861,1.998-4.253,2.997-7.176,2.997c-2.935,0-5.333-0.999-7.193-2.997
		s-2.791-4.333-2.791-7.005c0-2.648,0.88-4.945,2.642-6.891C965.038,141.655,967.486,140.583,970.444,140.583z M970.436,142.991
		c-2.046,0-3.805,0.756-5.274,2.268s-2.205,3.34-2.205,5.484c0,1.383,0.335,2.672,1.006,3.867c0.67,1.195,1.575,2.118,2.717,2.769
		c1.141,0.65,2.393,0.976,3.757,0.976s2.616-0.325,3.757-0.976c1.142-0.65,2.047-1.573,2.717-2.769
		c0.671-1.195,1.006-2.484,1.006-3.867c0-2.145-0.738-3.973-2.214-5.484C974.225,143.747,972.47,142.991,970.436,142.991z"/>
	<path class="st0" d="M984.647,141.075h2.461v8.93c0,2.18,0.117,3.68,0.353,4.5c0.352,1.172,1.023,2.098,2.016,2.777
		c0.991,0.68,2.174,1.02,3.547,1.02s2.538-0.331,3.494-0.993c0.957-0.662,1.617-1.532,1.98-2.61c0.247-0.738,0.37-2.303,0.37-4.693
		v-8.93h2.514v9.387c0,2.637-0.308,4.623-0.923,5.959s-1.541,2.382-2.777,3.138s-2.786,1.134-4.649,1.134s-3.419-0.378-4.667-1.134
		s-2.18-1.811-2.795-3.164s-0.923-3.39-0.923-6.108V141.075z"/>
	<path class="st0" d="M1023.337,141.075h2.461v15.24c0,2.684-0.234,4.646-0.703,5.889c-0.645,1.758-1.764,3.111-3.357,4.061
		s-3.51,1.424-5.748,1.424c-1.641,0-3.114-0.232-4.421-0.696c-1.307-0.464-2.37-1.087-3.19-1.869
		c-0.82-0.782-1.576-1.925-2.268-3.429h2.672c0.728,1.266,1.666,2.203,2.815,2.812c1.15,0.609,2.576,0.914,4.277,0.914
		c1.678,0,3.095-0.312,4.25-0.937c1.156-0.625,1.98-1.411,2.473-2.356c0.493-0.946,0.739-2.473,0.739-4.582v-0.984
		c-0.927,1.172-2.059,2.071-3.396,2.698c-1.337,0.627-2.757,0.94-4.258,0.94c-1.76,0-3.414-0.437-4.962-1.31
		c-1.549-0.873-2.745-2.048-3.59-3.524s-1.267-3.1-1.267-4.869s0.439-3.419,1.319-4.948s2.097-2.739,3.651-3.63
		s3.193-1.336,4.918-1.336c1.431,0,2.766,0.296,4.003,0.888c1.238,0.592,2.432,1.567,3.581,2.927V141.075z M1016.077,142.956
		c-1.395,0-2.689,0.337-3.885,1.011s-2.133,1.605-2.812,2.795s-1.02,2.476-1.02,3.858c0,2.098,0.703,3.832,2.109,5.203
		s3.229,2.057,5.467,2.057c2.262,0,4.081-0.68,5.458-2.039s2.065-3.146,2.065-5.361c0-1.441-0.316-2.728-0.949-3.858
		s-1.529-2.024-2.689-2.681S1017.413,142.956,1016.077,142.956z"/>
	<path class="st0" d="M1031.071,133.692h2.461v10.811c0.996-1.312,2.092-2.294,3.287-2.944s2.49-0.976,3.885-0.976
		c1.43,0,2.698,0.363,3.806,1.09s1.925,1.702,2.452,2.927s0.791,3.144,0.791,5.757v9.844h-2.461v-9.123
		c0-2.203-0.088-3.674-0.264-4.412c-0.305-1.266-0.858-2.218-1.661-2.856s-1.854-0.958-3.155-0.958
		c-1.488,0-2.821,0.492-3.999,1.477s-1.954,2.203-2.329,3.656c-0.234,0.938-0.352,2.672-0.352,5.203v7.014h-2.461V133.692z"/>
	<path class="st0" d="M1065.138,133.973h2.461v7.102h3.902v2.127h-3.902V160.2h-2.461v-16.998h-3.357v-2.127h3.357V133.973z"/>
	<path class="st0" d="M1075.192,133.692h2.461v10.811c0.996-1.312,2.092-2.294,3.287-2.944s2.49-0.976,3.885-0.976
		c1.43,0,2.698,0.363,3.806,1.09s1.925,1.702,2.452,2.927s0.791,3.144,0.791,5.757v9.844h-2.461v-9.123
		c0-2.203-0.088-3.674-0.264-4.412c-0.305-1.266-0.858-2.218-1.661-2.856s-1.854-0.958-3.155-0.958
		c-1.488,0-2.821,0.492-3.999,1.477s-1.954,2.203-2.329,3.656c-0.234,0.938-0.352,2.672-0.352,5.203v7.014h-2.461V133.692z"/>
	<path class="st0" d="M1113.249,153.854l2.074,1.09c-0.681,1.336-1.466,2.414-2.357,3.234s-1.895,1.444-3.009,1.872
		s-2.376,0.642-3.783,0.642c-3.12,0-5.56-1.022-7.318-3.067c-1.76-2.045-2.64-4.356-2.64-6.935c0-2.426,0.744-4.588,2.234-6.486
		c1.889-2.414,4.416-3.621,7.583-3.621c3.261,0,5.864,1.236,7.812,3.709c1.384,1.746,2.088,3.926,2.111,6.539h-17.209
		c0.047,2.222,0.757,4.042,2.13,5.463c1.372,1.42,3.067,2.131,5.086,2.131c0.974,0,1.921-0.169,2.842-0.508
		c0.921-0.338,1.704-0.788,2.35-1.348C1111.8,156.008,1112.498,155.103,1113.249,153.854z M1113.249,148.704
		c-0.328-1.312-0.807-2.361-1.435-3.146s-1.458-1.418-2.49-1.898c-1.033-0.48-2.118-0.721-3.256-0.721
		c-1.878,0-3.491,0.604-4.84,1.811c-0.986,0.879-1.731,2.197-2.235,3.955H1113.249z"/>
	<path class="st0" d="M1138.386,133.692v2.408c-0.902-0.387-1.676-0.58-2.32-0.58c-0.48,0-0.879,0.097-1.195,0.29
		s-0.516,0.416-0.598,0.668s-0.123,0.923-0.123,2.013l-0.002,2.584h3.992v2.127h-3.994l-0.014,16.998h-2.461v-16.998h-2.514v-2.127
		h2.514v-2.988c0-1.371,0.126-2.35,0.378-2.936s0.68-1.058,1.283-1.415s1.333-0.536,2.188-0.536
		C1136.317,133.2,1137.272,133.364,1138.386,133.692z"/>
	<path class="st0" d="M1150.866,140.583c2.946,0,5.389,1.066,7.325,3.199c1.761,1.945,2.642,4.248,2.642,6.908
		c0,2.672-0.931,5.007-2.791,7.005c-1.861,1.998-4.253,2.997-7.176,2.997c-2.935,0-5.333-0.999-7.193-2.997
		s-2.791-4.333-2.791-7.005c0-2.648,0.88-4.945,2.642-6.891C1145.46,141.655,1147.908,140.583,1150.866,140.583z M1150.857,142.991
		c-2.046,0-3.805,0.756-5.274,2.268s-2.205,3.34-2.205,5.484c0,1.383,0.335,2.672,1.006,3.867c0.67,1.195,1.575,2.118,2.717,2.769
		c1.141,0.65,2.393,0.976,3.757,0.976s2.616-0.325,3.757-0.976c1.142-0.65,2.047-1.573,2.717-2.769
		c0.671-1.195,1.006-2.484,1.006-3.867c0-2.145-0.738-3.973-2.214-5.484C1154.646,143.747,1152.892,142.991,1150.857,142.991z"/>
	<path class="st0" d="M1165.017,133.692h2.461V160.2h-2.461V133.692z"/>
	<path class="st0" d="M1172.224,133.692h2.461V160.2h-2.461V133.692z"/>
	<path class="st0" d="M1188.853,140.583c2.946,0,5.389,1.066,7.325,3.199c1.761,1.945,2.642,4.248,2.642,6.908
		c0,2.672-0.931,5.007-2.791,7.005c-1.861,1.998-4.253,2.997-7.176,2.997c-2.935,0-5.333-0.999-7.193-2.997
		s-2.791-4.333-2.791-7.005c0-2.648,0.88-4.945,2.642-6.891C1183.446,141.655,1185.895,140.583,1188.853,140.583z M1188.844,142.991
		c-2.046,0-3.805,0.756-5.274,2.268s-2.205,3.34-2.205,5.484c0,1.383,0.335,2.672,1.006,3.867c0.67,1.195,1.575,2.118,2.717,2.769
		c1.141,0.65,2.393,0.976,3.757,0.976s2.616-0.325,3.757-0.976c1.142-0.65,2.047-1.573,2.717-2.769
		c0.671-1.195,1.006-2.484,1.006-3.867c0-2.145-0.738-3.973-2.214-5.484C1192.633,143.747,1190.878,142.991,1188.844,142.991z"/>
	<path class="st0" d="M1200.788,141.075h2.531l5.862,13.887l6.103-13.887h0.445l6.144,13.887l5.976-13.887h2.559l-8.309,19.125
		h-0.456l-6.115-13.693l-6.112,13.693h-0.458L1200.788,141.075z"/>
	<path class="st0" d="M1234.143,133.2c0.56,0,1.038,0.199,1.436,0.598c0.396,0.398,0.595,0.879,0.595,1.441
		c0,0.551-0.198,1.025-0.595,1.424c-0.397,0.398-0.876,0.598-1.436,0.598c-0.549,0-1.021-0.199-1.418-0.598
		s-0.595-0.873-0.595-1.424c0-0.562,0.198-1.043,0.595-1.441S1233.594,133.2,1234.143,133.2z M1232.921,141.075h2.461V160.2h-2.461
		V141.075z"/>
	<path class="st0" d="M1240.497,141.075h2.461v3.428c0.984-1.312,2.074-2.294,3.27-2.944s2.496-0.976,3.902-0.976
		c1.43,0,2.698,0.363,3.806,1.09s1.925,1.705,2.452,2.936s0.791,3.146,0.791,5.748v9.844h-2.461v-9.123
		c0-2.203-0.092-3.674-0.273-4.412c-0.285-1.266-0.833-2.218-1.642-2.856s-1.863-0.958-3.164-0.958c-1.488,0-2.822,0.492-4,1.477
		s-1.954,2.203-2.329,3.656c-0.234,0.949-0.352,2.684-0.352,5.203v7.014h-2.461V141.075z"/>
	<path class="st0" d="M1278.94,141.075h2.461v15.24c0,2.684-0.234,4.646-0.703,5.889c-0.645,1.758-1.764,3.111-3.357,4.061
		s-3.51,1.424-5.748,1.424c-1.641,0-3.114-0.232-4.421-0.696c-1.307-0.464-2.37-1.087-3.19-1.869
		c-0.82-0.782-1.576-1.925-2.268-3.429h2.672c0.728,1.266,1.666,2.203,2.815,2.812c1.15,0.609,2.576,0.914,4.277,0.914
		c1.678,0,3.095-0.312,4.25-0.937c1.156-0.625,1.98-1.411,2.473-2.356c0.493-0.946,0.739-2.473,0.739-4.582v-0.984
		c-0.927,1.172-2.059,2.071-3.396,2.698c-1.337,0.627-2.757,0.94-4.258,0.94c-1.76,0-3.414-0.437-4.962-1.31
		c-1.549-0.873-2.745-2.048-3.59-3.524s-1.267-3.1-1.267-4.869s0.439-3.419,1.319-4.948s2.097-2.739,3.651-3.63
		s3.193-1.336,4.918-1.336c1.431,0,2.766,0.296,4.003,0.888c1.238,0.592,2.432,1.567,3.581,2.927V141.075z M1271.681,142.956
		c-1.395,0-2.689,0.337-3.885,1.011s-2.133,1.605-2.812,2.795s-1.02,2.476-1.02,3.858c0,2.098,0.703,3.832,2.109,5.203
		s3.229,2.057,5.467,2.057c2.262,0,4.081-0.68,5.458-2.039s2.065-3.146,2.065-5.361c0-1.441-0.316-2.728-0.949-3.858
		s-1.529-2.024-2.689-2.681S1273.017,142.956,1271.681,142.956z"/>
	<path class="st0" d="M1296.677,141.075h2.461v3.516c0.972-1.336,2.09-2.338,3.354-3.006c1.264-0.668,2.675-1.002,4.231-1.002
		c2.716,0,5.04,0.979,6.972,2.936s2.897,4.312,2.897,7.066c0,2.812-0.957,5.2-2.871,7.163s-4.224,2.944-6.928,2.944
		c-1.522,0-2.921-0.316-4.197-0.949c-1.275-0.633-2.429-1.576-3.459-2.83v10.283h-2.461V141.075z M1306.521,142.956
		c-2.128,0-3.92,0.744-5.375,2.23c-1.456,1.487-2.184,3.336-2.184,5.548c0,1.452,0.324,2.757,0.974,3.916
		c0.648,1.159,1.578,2.078,2.788,2.756c1.21,0.679,2.487,1.019,3.832,1.019c1.321,0,2.563-0.342,3.727-1.027
		c1.163-0.685,2.09-1.642,2.78-2.871c0.689-1.229,1.034-2.517,1.034-3.863c0-1.357-0.342-2.645-1.026-3.862
		c-0.684-1.217-1.604-2.163-2.762-2.836S1307.889,142.956,1306.521,142.956z"/>
	<path class="st0" d="M1320.829,133.692h2.461V160.2h-2.461V133.692z"/>
	<path class="st0" d="M1347.46,141.075V160.2h-2.426v-3.287c-1.031,1.254-2.188,2.197-3.472,2.83s-2.687,0.949-4.21,0.949
		c-2.707,0-5.019-0.981-6.935-2.944s-2.874-4.351-2.874-7.163c0-2.754,0.967-5.109,2.9-7.066s4.26-2.936,6.979-2.936
		c1.57,0,2.991,0.334,4.263,1.002s2.388,1.67,3.349,3.006v-3.516H1347.46z M1337.625,142.956c-1.369,0-2.634,0.337-3.792,1.01
		c-1.159,0.673-2.081,1.619-2.766,2.836c-0.686,1.217-1.027,2.505-1.027,3.862c0,1.346,0.346,2.634,1.036,3.863
		s1.618,2.186,2.782,2.871c1.165,0.685,2.414,1.027,3.749,1.027c1.346,0,2.622-0.339,3.827-1.019
		c1.206-0.679,2.134-1.598,2.783-2.756s0.975-2.464,0.975-3.916c0-2.212-0.729-4.062-2.186-5.548
		C1341.549,143.699,1339.755,142.956,1337.625,142.956z"/>
	<path class="st0" d="M1355.142,133.973h2.461v7.102h3.902v2.127h-3.902V160.2h-2.461v-16.998h-3.357v-2.127h3.357V133.973z"/>
	<path class="st0" d="M1373.071,133.692v2.408c-0.902-0.387-1.676-0.58-2.32-0.58c-0.48,0-0.879,0.097-1.195,0.29
		s-0.516,0.416-0.598,0.668s-0.123,0.923-0.123,2.013l-0.002,2.584h3.992v2.127h-3.994l-0.014,16.998h-2.461v-16.998h-2.514v-2.127
		h2.514v-2.988c0-1.371,0.126-2.35,0.378-2.936s0.68-1.058,1.283-1.415s1.333-0.536,2.188-0.536
		C1371.003,133.2,1371.958,133.364,1373.071,133.692z"/>
	<path class="st0" d="M1385.552,140.583c2.946,0,5.389,1.066,7.325,3.199c1.761,1.945,2.642,4.248,2.642,6.908
		c0,2.672-0.931,5.007-2.791,7.005c-1.861,1.998-4.253,2.997-7.176,2.997c-2.935,0-5.333-0.999-7.193-2.997
		s-2.791-4.333-2.791-7.005c0-2.648,0.88-4.945,2.642-6.891C1380.146,141.655,1382.594,140.583,1385.552,140.583z M1385.543,142.991
		c-2.046,0-3.805,0.756-5.274,2.268s-2.205,3.34-2.205,5.484c0,1.383,0.335,2.672,1.006,3.867c0.67,1.195,1.575,2.118,2.717,2.769
		c1.141,0.65,2.393,0.976,3.757,0.976s2.616-0.325,3.757-0.976c1.142-0.65,2.047-1.573,2.717-2.769
		c0.671-1.195,1.006-2.484,1.006-3.867c0-2.145-0.738-3.973-2.214-5.484C1389.332,143.747,1387.577,142.991,1385.543,142.991z"/>
	<path class="st0" d="M1399.14,141.075h2.514v2.795c0.75-1.102,1.541-1.925,2.373-2.47s1.699-0.817,2.602-0.817
		c0.68,0,1.406,0.217,2.18,0.65l-1.283,2.074c-0.516-0.223-0.949-0.334-1.301-0.334c-0.82,0-1.611,0.337-2.373,1.011
		s-1.342,1.72-1.74,3.138c-0.305,1.09-0.457,3.293-0.457,6.609v6.469h-2.514V141.075z"/>
	<path class="st0" d="M1411.884,141.075h2.461v3.305c0.856-1.219,1.736-2.109,2.64-2.672c1.244-0.75,2.552-1.125,3.925-1.125
		c0.927,0,1.807,0.182,2.64,0.545s1.514,0.847,2.041,1.45c0.528,0.604,0.985,1.468,1.373,2.593c0.818-1.5,1.841-2.64,3.068-3.419
		s2.549-1.169,3.964-1.169c1.321,0,2.487,0.334,3.498,1.002c1.012,0.668,1.763,1.6,2.254,2.795s0.736,2.988,0.736,5.379V160.2
		h-2.514v-10.441c0-2.051-0.146-3.46-0.438-4.228s-0.791-1.386-1.498-1.854c-0.706-0.469-1.55-0.703-2.531-0.703
		c-1.191,0-2.28,0.352-3.268,1.055s-1.708,1.641-2.164,2.812c-0.455,1.172-0.683,3.129-0.683,5.871v7.488h-2.461v-9.791
		c0-2.309-0.144-3.876-0.431-4.702s-0.788-1.488-1.503-1.986s-1.564-0.747-2.549-0.747c-1.137,0-2.2,0.343-3.19,1.028
		s-1.723,1.608-2.197,2.769s-0.712,2.936-0.712,5.326v8.104h-2.461V141.075z"/>
	<path class="st0" d="M1455.284,143.167l-1.582,1.635c-1.316-1.277-2.603-1.916-3.859-1.916c-0.8,0-1.483,0.264-2.054,0.791
		c-0.569,0.527-0.854,1.143-0.854,1.846c0,0.621,0.234,1.213,0.704,1.775c0.47,0.574,1.457,1.248,2.96,2.021
		c1.832,0.949,3.076,1.863,3.734,2.742c0.646,0.891,0.969,1.893,0.969,3.006c0,1.57-0.552,2.9-1.655,3.99s-2.482,1.635-4.137,1.635
		c-1.104,0-2.157-0.24-3.16-0.721c-1.004-0.48-1.834-1.143-2.491-1.986l1.547-1.758c1.257,1.418,2.59,2.127,4,2.127
		c0.986,0,1.826-0.316,2.519-0.949c0.693-0.633,1.04-1.377,1.04-2.232c0-0.703-0.229-1.33-0.687-1.881
		c-0.459-0.539-1.492-1.219-3.101-2.039c-1.727-0.891-2.901-1.77-3.523-2.637s-0.934-1.857-0.934-2.971
		c0-1.453,0.496-2.66,1.488-3.621c0.991-0.961,2.244-1.441,3.759-1.441C1451.728,140.583,1453.5,141.444,1455.284,143.167z"/>
	<path class="st0" d="M1462.351,156.333c0.598,0,1.107,0.211,1.529,0.633s0.633,0.938,0.633,1.547c0,0.598-0.211,1.11-0.633,1.538
		s-0.932,0.642-1.529,0.642s-1.107-0.214-1.529-0.642s-0.633-0.94-0.633-1.538c0-0.609,0.211-1.125,0.633-1.547
		S1461.753,156.333,1462.351,156.333z"/>
</g>
<path class="st0" d="M259.719,455.812h-64.651c-3.095,0-5.607,2.45-5.607,5.469v65.41c0,3.019,2.512,5.468,5.607,5.468h64.651
	c3.098,0,5.607-2.448,5.607-5.469v-65.409C265.327,458.261,262.817,455.812,259.719,455.812z M212.458,519.722h-11.459v-34.475
	h11.459V519.722z M206.731,480.54h-0.075c-3.846,0-6.333-2.647-6.333-5.956c0-3.384,2.561-5.957,6.484-5.957
	c3.919,0,6.331,2.573,6.406,5.957C213.214,477.894,210.726,480.54,206.731,480.54z M253.778,519.722H242.32v-18.441
	c0-4.635-1.658-7.796-5.804-7.796c-3.166,0-5.051,2.131-5.879,4.191c-0.302,0.735-0.377,1.767-0.377,2.796v19.25h-11.458
	c0,0,0.15-31.24,0-34.474h11.458v4.881c1.523-2.349,4.249-5.69,10.328-5.69c7.539,0,13.191,4.928,13.191,15.516V519.722z"/>
<g>
	<g>
		<g>
			<path class="st0" d="M241.505,337.866h-28.544c-13.135,0-23.787,10.652-23.787,23.787v28.544
				c0,13.135,10.652,23.787,23.787,23.787h28.544c13.135,0,23.787-10.652,23.787-23.787v-28.544
				C265.292,348.517,254.64,337.866,241.505,337.866z M258.156,390.197c0,9.182-7.469,16.651-16.651,16.651h-28.544
				c-9.182,0-16.651-7.469-16.651-16.651v-28.544c0-9.182,7.469-16.651,16.651-16.651h28.544c9.182,0,16.651,7.469,16.651,16.651
				V390.197z"/>
		</g>
	</g>
	<g>
		<g>
			<path class="st0" d="M227.233,356.895c-10.509,0-19.03,8.52-19.03,19.03c0,10.509,8.52,19.03,19.03,19.03
				c10.509,0,19.03-8.52,19.03-19.03C246.262,365.416,237.742,356.895,227.233,356.895z M227.233,387.818
				c-6.556,0-11.893-5.338-11.893-11.893c0-6.56,5.338-11.893,11.893-11.893c6.556,0,11.893,5.333,11.893,11.893
				C239.126,382.48,233.789,387.818,227.233,387.818z"/>
		</g>
	</g>
	<g>
		<g>
			<circle class="st0" cx="247.69" cy="355.468" r="2.536"/>
		</g>
	</g>
</g>
<g>
	<g>
		<path class="st0" d="M259.824,228.584h-63.583c-3.734,0-6.78,3.043-6.78,6.78v45.201c0,3.725,3.033,6.78,6.78,6.78h63.583
			c3.725,0,6.78-3.033,6.78-6.78v-45.201C266.604,231.64,263.572,228.584,259.824,228.584z M258.888,233.104l-30.712,30.712
			l-30.977-30.712H258.888z M193.981,279.63v-43.351l21.769,21.582L193.981,279.63z M197.177,282.826l21.783-21.783l7.633,7.567
			c0.884,0.876,2.309,0.873,3.189-0.007l7.442-7.442l21.665,21.665H197.177z M262.084,279.629l-21.665-21.665l21.665-21.665V279.629
			z"/>
	</g>
</g>
<g>
	<path class="st0" d="M362.452,513.673c0.37,2.822,2.65,4.468,5.2,4.468h1.135v0.716h-15.51v-0.675h1.111
		c1.539,0,2.921-1.506,2.781-3.044l-3.234-35.908l-14.992,33.341c0,0-1.991,4.328-2.452,7.282h-0.675l-18.242-39.586l-3.135,34.871
		c-0.14,1.539,1.242,3.044,2.781,3.044h1.111v0.675h-13.815v-0.716h1.135c2.551,0,4.83-1.646,5.2-4.468l5.365-45.765h0.666
		l19.912,43.058l19.468-43.034h0.65L362.452,513.673z"/>
	<path class="st0" d="M411.435,513.986c1.456,2.938,3.604,4.155,5.505,4.155h0.543v0.716H402.82v-0.708h0.568
		c1.629,0,3.456-1.547,2.526-4.279l-3.9-9.495h-18.053l-3.925,9.298c-1.094,2.855,0.782,4.476,2.452,4.476h0.568v0.708h-13.601
		v-0.716h0.568c1.901,0,4.131-1.21,5.595-4.122l14.77-31.621c-0.016,0,2.6-5.488,2.748-7.356h0.675L411.435,513.986z
		 M401.133,502.236l-8.014-19.534l-8.253,19.534H401.133z"/>
	<path class="st0" d="M456.723,476.046v0.716h-0.905c-2.715,0-5.143,1.72-6.55,3.62l-13.684,20.776v13.116
		c0.041,2.148,1.884,3.867,4.147,3.867h0.823l0.008,0.716h-14.597l0.008-0.716h0.823c2.271,0,4.106-1.72,4.147-3.867V501.06
		l-13.206-20.71c-1.465-2.189-3.81-3.587-6.533-3.587h-0.88v-0.716h16.547v0.716h-0.815c-1.925,0-3.036,1.753-2.444,3.398
		l10.376,18.489l11.075-18.407c0.732-1.777-0.494-3.481-2.436-3.481h-0.823v-0.716H456.723z"/>
	<path class="st0" d="M509.416,476.046l-0.008,0.716h-1.193c-2.115,0-3.843,1.572-3.966,3.563v30.428c0,4.6,0.683,9.109,0.683,9.109
		h-0.683l-37.109-35.217v29.778c0.041,2.065,1.802,3.727,3.974,3.727h1.185l0.008,0.708h-13.486l0.008-0.708h1.185
		c2.172,0,3.933-1.662,3.974-3.727v-30.535c0-4.871-0.683-8.911-0.683-8.911l0.765,0.033l37.027,34.904v-29.589
		c-0.123-1.991-1.851-3.571-3.966-3.571h-1.185l-0.008-0.708H509.416z"/>
	<path class="st0" d="M553.495,513.986c1.456,2.938,3.604,4.155,5.513,4.155h0.535v0.716h-14.654v-0.708h0.568
		c1.629,0,3.456-1.547,2.518-4.279l-3.892-9.495h-18.053l-3.933,9.298c-1.086,2.855,0.79,4.476,2.452,4.476h0.568v0.708h-13.593
		v-0.716h0.568c1.893,0,4.131-1.21,5.595-4.122l14.77-31.621c-0.025,0,2.6-5.488,2.748-7.356h0.675L553.495,513.986z
		 M543.202,502.236l-8.023-19.534l-8.245,19.534H543.202z"/>
	<path class="st0" d="M580.969,476.046c8.993,0,14.506,4.344,14.506,11.552c0,6.056-4.69,11.108-11.092,11.75
		c1.555,0.708,3.966,3.431,5.496,5.595c-0.016,0,3.291,4.476,6.245,7.776c2.905,3.258,4.896,5.389,8.854,5.422v0.716h-2.246
		c-7.891,0-11.009-3.587-13.247-6.278c-0.806-0.971-6.434-9.076-6.994-9.775c-1.925-2.419-4.402-4.805-7.224-4.805v-0.658
		c-0.008,0,1.753,0.033,4.089-0.033c3.95-0.099,8.442-0.132,10.491-6.13c0.337-1.004,0.543-2.51,0.494-4.073
		c-0.148-5.348-3.744-8.483-9.487-8.771c-4.007-0.206-7.529-0.025-8.204-0.066v36.015c0.041,2.139,1.753,3.867,4.048,3.867h0.971
		l0.008,0.708h-14.589l0.008-0.708h0.963c2.263,0,3.966-1.679,4.057-3.777v-33.9c-0.074-2.115-1.786-3.711-4.057-3.711h-0.963
		l-0.008-0.716H580.969z"/>
	<path class="st0" d="M631.606,476.054c14.07,0,22.94,8.138,22.94,21.426c0,13.256-8.87,21.377-22.94,21.377h-23.804l0.008-0.708
		h0.954c2.246,0,3.941-1.753,3.999-3.876v-33.67c-0.074-2.255-1.835-3.851-4.073-3.851h-0.872l-0.016-0.708L631.606,476.054z
		 M617.412,516.693h14.227c10.96,0,17.748-7.298,17.748-19.213c0-11.956-6.797-19.287-17.748-19.287h-14.227V516.693z"/>
	<path class="st0" d="M734.944,513.673c0.37,2.822,2.649,4.468,5.2,4.468h1.135v0.716h-15.51v-0.675h1.111
		c1.539,0,2.921-1.506,2.781-3.044l-3.234-35.908l-14.992,33.341c0,0-1.991,4.328-2.452,7.282h-0.675l-18.242-39.586l-3.135,34.871
		c-0.14,1.539,1.242,3.044,2.781,3.044h1.111v0.675h-13.815v-0.716h1.135c2.551,0,4.83-1.646,5.2-4.468l5.365-45.765h0.667
		l19.912,43.058l19.468-43.034h0.65L734.944,513.673z"/>
	<path class="st0" d="M783.927,513.986c1.456,2.938,3.604,4.155,5.505,4.155h0.543v0.716h-14.663v-0.708h0.568
		c1.629,0,3.456-1.547,2.526-4.279l-3.9-9.495h-18.053l-3.925,9.298c-1.094,2.855,0.782,4.476,2.452,4.476h0.568v0.708h-13.601
		v-0.716h0.568c1.901,0,4.131-1.21,5.595-4.122l14.77-31.621c-0.016,0,2.6-5.488,2.748-7.356h0.675L783.927,513.986z
		 M773.625,502.236l-8.014-19.534l-8.253,19.534H773.625z"/>
	<path class="st0" d="M842.684,476.046l-0.008,0.716h-1.193c-2.115,0-3.843,1.572-3.966,3.563v30.428c0,4.6,0.683,9.109,0.683,9.109
		h-0.683l-37.109-35.217v29.778c0.041,2.065,1.802,3.727,3.974,3.727h1.185l0.008,0.708h-13.486l0.008-0.708h1.185
		c2.172,0,3.933-1.662,3.974-3.727v-30.535c0-4.871-0.683-8.911-0.683-8.911l0.765,0.033l37.027,34.904v-29.589
		c-0.123-1.991-1.851-3.571-3.966-3.571h-1.185l-0.008-0.708H842.684z"/>
	<path class="st0" d="M897.526,476.046l-0.008,0.716h-1.193c-2.115,0-3.843,1.572-3.966,3.563v30.428c0,4.6,0.683,9.109,0.683,9.109
		h-0.683l-37.109-35.217v29.778c0.041,2.065,1.802,3.727,3.974,3.727h1.185l0.008,0.708H846.93l0.008-0.708h1.185
		c2.172,0,3.933-1.662,3.974-3.727v-30.535c0-4.871-0.683-8.911-0.683-8.911l0.765,0.033l37.027,34.904v-29.589
		c-0.123-1.991-1.851-3.571-3.966-3.571h-1.185l-0.008-0.708H897.526z"/>
</g>
<g>
	<path class="st0" d="M362.567,389.867c0.37,2.814,2.649,4.468,5.2,4.468h1.135v0.716h-15.51v-0.675h1.111
		c1.539-0.008,2.921-1.514,2.781-3.044l-3.234-35.908l-14.992,33.341c0,0-1.991,4.328-2.452,7.282h-0.675l-18.242-39.586
		l-3.135,34.871c-0.14,1.53,1.242,3.036,2.781,3.044h1.111v0.675h-13.815v-0.716h1.135c2.551,0,4.83-1.646,5.2-4.468l5.365-45.765
		h0.666l19.912,43.058l19.468-43.034h0.65L362.567,389.867z"/>
	<path class="st0" d="M411.55,390.18c1.456,2.929,3.604,4.155,5.505,4.155h0.543v0.716h-14.663v-0.708h0.568
		c1.629,0,3.456-1.547,2.526-4.287l-3.9-9.495h-18.053l-3.925,9.298c-1.094,2.863,0.782,4.484,2.452,4.484h0.568v0.708H369.57
		v-0.716h0.568c1.901,0,4.131-1.21,5.595-4.122l14.77-31.629c-0.016,0,2.6-5.48,2.748-7.348h0.675L411.55,390.18z M401.248,378.422
		l-8.014-19.526l-8.253,19.526H401.248z"/>
	<path class="st0" d="M456.838,352.24v0.708h-0.905c-2.715,0-5.143,1.728-6.55,3.629L435.7,377.352v13.116
		c0.041,2.139,1.884,3.867,4.147,3.867h0.823l0.008,0.716h-14.597l0.008-0.716h0.823c2.271,0,4.106-1.728,4.147-3.867v-13.215
		l-13.206-20.719c-1.465-2.18-3.81-3.587-6.533-3.587h-0.88v-0.708h16.547v0.708h-0.815c-1.925,0-3.036,1.761-2.444,3.406
		l10.376,18.489l11.075-18.415c0.732-1.769-0.494-3.481-2.436-3.481h-0.823v-0.708H456.838z"/>
	<path class="st0" d="M509.532,352.24l-0.008,0.708h-1.193c-2.115,0-3.843,1.58-3.966,3.571v30.428c0,4.6,0.683,9.1,0.683,9.1
		h-0.683l-37.109-35.209v29.77c0.041,2.065,1.802,3.727,3.974,3.727h1.185l0.008,0.716h-13.486l0.008-0.716h1.185
		c2.172,0,3.933-1.662,3.974-3.727v-30.527c0-4.871-0.683-8.911-0.683-8.911l0.765,0.033l37.027,34.896V356.51
		c-0.123-1.983-1.851-3.563-3.966-3.563h-1.185l-0.008-0.716L509.532,352.24z"/>
	<path class="st0" d="M553.61,390.18c1.456,2.929,3.604,4.155,5.513,4.155h0.535v0.716h-14.654v-0.708h0.568
		c1.629,0,3.456-1.547,2.518-4.287l-3.892-9.495h-18.053l-3.933,9.298c-1.086,2.863,0.79,4.484,2.452,4.484h0.568v0.708h-13.593
		v-0.716h0.568c1.892,0,4.131-1.21,5.595-4.122l14.77-31.629c-0.025,0,2.6-5.48,2.748-7.348h0.675L553.61,390.18z M543.317,378.422
		l-8.023-19.526l-8.245,19.526H543.317z"/>
	<path class="st0" d="M581.084,352.24c8.993,0,14.506,4.345,14.506,11.552c0,6.056-4.69,11.108-11.092,11.75
		c1.555,0.708,3.966,3.423,5.496,5.595c-0.016,0,3.291,4.468,6.245,7.776c2.905,3.258,4.896,5.389,8.854,5.422v0.716h-2.246
		c-7.891,0-11.009-3.587-13.247-6.278c-0.806-0.971-6.434-9.076-6.994-9.775c-1.925-2.419-4.402-4.805-7.224-4.805v-0.658
		c-0.008,0,1.753,0.025,4.089-0.033c3.95-0.099,8.442-0.14,10.491-6.138c0.337-0.996,0.543-2.501,0.494-4.065
		c-0.148-5.348-3.744-8.483-9.487-8.78c-4.007-0.197-7.529-0.025-8.203-0.058v36.007c0.041,2.148,1.753,3.867,4.048,3.867h0.971
		l0.008,0.716h-14.589l0.008-0.716h0.963c2.263,0,3.966-1.67,4.057-3.769v-33.9c-0.074-2.115-1.786-3.719-4.057-3.719h-0.963
		l-0.008-0.708H581.084z"/>
	<path class="st0" d="M631.721,352.248c14.07,0,22.94,8.138,22.94,21.426c0,13.256-8.87,21.377-22.94,21.377h-23.804l0.008-0.716
		h0.954c2.246,0,3.941-1.744,3.999-3.867v-33.67c-0.074-2.255-1.835-3.851-4.073-3.851h-0.872l-0.016-0.708L631.721,352.248z
		 M617.527,392.887h14.227c10.96,0,17.748-7.298,17.748-19.213c0-11.956-6.797-19.287-17.748-19.287h-14.227V392.887z"/>
	<path class="st0" d="M713.674,390.427c0.403,2.468,2.518,3.908,4.871,3.908h1.07v0.716h-14.827v-0.675h1.045
		c1.448-0.008,2.814-1.218,2.617-2.765l-3.752-29.367l-13.445,26.52c0,0-2.049,4.328-2.534,7.282h-0.699l-17.189-33.152
		l-3.201,28.717c-0.165,1.481,1.168,2.756,2.617,2.765h1.045v0.675h-13.239v-0.716h1.07c2.394,0,4.542-1.498,4.888-4.048
		l5.521-39.051h0.699l18.843,36.245l18.209-36.221h0.675L713.674,390.427z"/>
	<path class="st0" d="M761.719,390.18c1.456,2.929,3.604,4.155,5.505,4.155h0.543v0.716h-14.663v-0.708h0.568
		c1.629,0,3.456-1.547,2.526-4.287l-3.9-9.495h-18.053l-3.925,9.298c-1.094,2.863,0.782,4.484,2.452,4.484h0.568v0.708h-13.601
		v-0.716h0.568c1.901,0,4.131-1.21,5.595-4.122l14.77-31.629c-0.016,0,2.6-5.48,2.748-7.348h0.675L761.719,390.18z M751.417,378.422
		l-8.014-19.526l-8.253,19.526H751.417z"/>
	<path class="st0" d="M820.476,352.24l-0.008,0.708h-1.193c-2.115,0-3.843,1.58-3.966,3.571v30.428c0,4.6,0.683,9.1,0.683,9.1
		h-0.683L778.2,360.838v29.77c0.041,2.065,1.802,3.727,3.974,3.727h1.185l0.008,0.716h-13.486l0.008-0.716h1.185
		c2.172,0,3.933-1.662,3.974-3.727v-30.527c0-4.871-0.683-8.911-0.683-8.911l0.765,0.033l37.027,34.896V356.51
		c-0.123-1.983-1.851-3.563-3.966-3.563h-1.185l-0.008-0.716L820.476,352.24z"/>
	<path class="st0" d="M875.318,352.24l-0.008,0.708h-1.193c-2.115,0-3.843,1.58-3.966,3.571v30.428c0,4.6,0.683,9.1,0.683,9.1
		h-0.683l-37.109-35.209v29.77c0.041,2.065,1.802,3.727,3.974,3.727h1.185l0.008,0.716h-13.486l0.008-0.716h1.185
		c2.172,0,3.933-1.662,3.974-3.727v-30.527c0-4.871-0.683-8.911-0.683-8.911l0.765,0.033l37.027,34.896V356.51
		c-0.123-1.983-1.851-3.563-3.966-3.563h-1.185l-0.008-0.716L875.318,352.24z"/>
	<path class="st0" d="M880.987,392.122c0-1.769,1.44-3.209,3.217-3.209c1.769,0,3.209,1.44,3.209,3.209
		c0,1.777-1.44,3.209-3.209,3.209C882.427,395.331,880.987,393.899,880.987,392.122z"/>
	<path class="st0" d="M910.123,352.24l-0.016,0.708h-0.913c-2.543,0-4.6,1.728-4.649,3.867v38.237c0,6.92-6.04,12.696-13.075,12.696
		v-0.708c4.558-1.432,8.516-6.706,8.516-11.989v-38.5c-0.214-2.008-2.197-3.579-4.624-3.579h-0.922l-0.008-0.732H910.123z"/>
	<path class="st0" d="M945.496,395.051h-28.988l0.016-0.708h0.979c2.304,0,4.032-1.687,4.114-3.793v-33.859
		c0-2.131-1.802-3.736-4.122-3.736h-0.979l-0.008-0.716h20.842c2.872-0.025,6.731-0.634,7.973-1.119v8.072l-0.773-0.008v-1.094
		c0-1.999-1.407-3.629-3.579-3.67h-14.794v18.151h12.186c1.983-0.041,2.896-1.382,2.896-3.028v-0.905l0.773-0.008v10.022
		l-0.773-0.008v-0.905c0-1.604-0.864-2.913-2.732-3.028h-12.351v18.16h11.158c6.854-0.099,9.298-3.439,11.322-8.055h0.773
		L945.496,395.051z"/>
	<path class="st0" d="M1016.053,352.24v0.708h-0.56c-2.962,0-4.904,1.769-5.817,4.246L999.3,387.975c0,0-1.506,4.534-1.629,7.932
		h-0.699L983.7,361.916l-9.273,26.059c0,0-1.424,4.427-1.547,7.932h-0.699l-14.984-39.051c-0.963-2.304-2.863-3.908-5.653-3.908
		h-0.592v-0.708h14.671v0.708h-0.551c-1.465,0-3.16,1.07-2.411,3.859l9.512,29.013l12.063-34.698l0.691,0.025l12.737,32.592
		l8.023-26.47c1.004-3.069-0.625-4.32-2.148-4.32h-0.56v-0.708H1016.053z"/>
	<path class="st0" d="M1048.555,395.051h-28.988l0.008-0.708h0.979c2.304,0,4.032-1.687,4.122-3.793v-33.859
		c0-2.131-1.802-3.736-4.122-3.736h-0.979l-0.016-0.716h20.85c2.872-0.025,6.731-0.634,7.973-1.119v8.072l-0.782-0.008v-1.094
		c0-1.999-1.407-3.629-3.579-3.67h-14.794v18.151h12.194c1.975-0.041,2.888-1.382,2.888-3.028v-0.905l0.782-0.008v10.022
		l-0.782-0.008v-0.905c0-1.604-0.864-2.913-2.724-3.028h-12.359v18.16h11.157c6.854-0.099,9.298-3.439,11.322-8.055h0.773
		L1048.555,395.051z"/>
	<path class="st0" d="M1090.708,384.815l-3.933,10.236h-28.988l0.016-0.716h0.979c2.304,0,4.032-1.679,4.114-3.785v-33.736
		c-0.041-2.139-1.934-3.867-4.262-3.867h-0.839l-0.008-0.716h14.778l-0.008,0.716h-0.839c-2.329,0-4.213,1.72-4.262,3.859v36.056
		h11.166c6.846-0.091,9.29-3.431,11.314-8.047H1090.708z"/>
	<path class="st0" d="M1112.183,352.24c8.993,0,14.506,4.345,14.506,11.552c0,6.056-4.69,11.108-11.092,11.75
		c1.555,0.708,3.966,3.423,5.496,5.595c-0.016,0,3.291,4.468,6.245,7.776c2.905,3.258,4.896,5.389,8.854,5.422v0.716h-2.246
		c-7.891,0-11.009-3.587-13.247-6.278c-0.806-0.971-6.434-9.076-6.994-9.775c-1.925-2.419-4.402-4.805-7.224-4.805v-0.658
		c-0.008,0,1.753,0.025,4.089-0.033c3.95-0.099,8.442-0.14,10.491-6.138c0.337-0.996,0.543-2.501,0.494-4.065
		c-0.148-5.348-3.744-8.483-9.487-8.78c-4.007-0.197-7.529-0.025-8.203-0.058v36.007c0.041,2.148,1.753,3.867,4.048,3.867h0.971
		l0.008,0.716h-14.589l0.008-0.716h0.963c2.263,0,3.966-1.67,4.057-3.769v-33.9c-0.074-2.115-1.786-3.719-4.057-3.719h-0.963
		l-0.008-0.708H1112.183z"/>
	<path class="st0" d="M1177.927,352.24v0.708h-0.905c-2.715,0-5.143,1.728-6.55,3.629l-13.684,20.776v13.116
		c0.041,2.139,1.884,3.867,4.147,3.867h0.823l0.008,0.716h-14.597l0.008-0.716h0.823c2.263,0,4.106-1.728,4.147-3.867v-13.215
		l-13.206-20.719c-1.465-2.18-3.81-3.587-6.533-3.587h-0.88v-0.708h16.547v0.708h-0.823c-1.917,0-3.028,1.761-2.436,3.406
		l10.376,18.489l11.067-18.415c0.74-1.769-0.485-3.481-2.436-3.481h-0.815v-0.708H1177.927z"/>
</g>
<g>
	<path class="st0" d="M362.455,273.864c0.37,2.814,2.65,4.468,5.2,4.468h1.135v0.716h-15.51v-0.675h1.111
		c1.539-0.008,2.921-1.514,2.781-3.044l-3.234-35.908l-14.992,33.341c0,0-1.991,4.328-2.452,7.282h-0.675l-18.242-39.586
		l-3.135,34.871c-0.14,1.53,1.242,3.036,2.781,3.044h1.111v0.675H304.52v-0.716h1.135c2.551,0,4.83-1.646,5.2-4.468l5.365-45.765
		h0.667l19.912,43.058l19.468-43.034h0.65L362.455,273.864z"/>
	<path class="st0" d="M411.438,274.177c1.456,2.929,3.604,4.155,5.505,4.155h0.543v0.716h-14.663v-0.708h0.568
		c1.629,0,3.456-1.547,2.526-4.287l-3.9-9.495h-18.053l-3.925,9.298c-1.094,2.863,0.782,4.484,2.452,4.484h0.568v0.708h-13.601
		v-0.716h0.568c1.901,0,4.131-1.21,5.595-4.122l14.77-31.629c-0.016,0,2.6-5.48,2.748-7.348h0.675L411.438,274.177z
		 M401.136,262.419l-8.014-19.526l-8.253,19.526H401.136z"/>
	<path class="st0" d="M456.726,236.237v0.708h-0.905c-2.715,0-5.143,1.728-6.55,3.629l-13.684,20.776v13.116
		c0.041,2.139,1.884,3.867,4.147,3.867h0.823l0.008,0.716h-14.597l0.008-0.716h0.823c2.271,0,4.106-1.728,4.147-3.867V261.25
		l-13.206-20.719c-1.465-2.18-3.81-3.588-6.533-3.588h-0.88v-0.708h16.547v0.708h-0.815c-1.925,0-3.036,1.761-2.444,3.406
		l10.376,18.489l11.075-18.415c0.732-1.769-0.494-3.481-2.436-3.481h-0.823v-0.708H456.726z"/>
	<path class="st0" d="M509.419,236.237l-0.008,0.708h-1.193c-2.115,0-3.843,1.58-3.966,3.571v30.428c0,4.6,0.683,9.1,0.683,9.1
		h-0.683l-37.109-35.209v29.77c0.041,2.065,1.802,3.727,3.974,3.727h1.185l0.008,0.716h-13.486l0.008-0.716h1.185
		c2.172,0,3.933-1.662,3.974-3.727v-30.527c0-4.871-0.683-8.911-0.683-8.911l0.765,0.033l37.027,34.896v-29.589
		c-0.123-1.983-1.851-3.563-3.966-3.563h-1.185l-0.008-0.716L509.419,236.237z"/>
	<path class="st0" d="M553.498,274.177c1.456,2.929,3.604,4.155,5.513,4.155h0.535v0.716h-14.654v-0.708h0.568
		c1.629,0,3.456-1.547,2.518-4.287l-3.892-9.495h-18.053l-3.933,9.298c-1.086,2.863,0.79,4.484,2.452,4.484h0.568v0.708h-13.593
		v-0.716h0.568c1.892,0,4.131-1.21,5.595-4.122l14.77-31.629c-0.025,0,2.6-5.48,2.748-7.348h0.675L553.498,274.177z
		 M543.204,262.419l-8.023-19.526l-8.245,19.526H543.204z"/>
	<path class="st0" d="M580.972,236.237c8.993,0,14.506,4.345,14.506,11.552c0,6.056-4.69,11.108-11.092,11.75
		c1.555,0.708,3.966,3.423,5.496,5.595c-0.016,0,3.291,4.468,6.245,7.776c2.905,3.258,4.896,5.389,8.854,5.422v0.716h-2.246
		c-7.891,0-11.009-3.588-13.247-6.278c-0.806-0.971-6.435-9.076-6.994-9.775c-1.925-2.419-4.402-4.805-7.224-4.805v-0.658
		c-0.008,0,1.753,0.025,4.089-0.033c3.95-0.099,8.442-0.14,10.491-6.138c0.337-0.996,0.543-2.501,0.494-4.065
		c-0.148-5.348-3.744-8.483-9.487-8.78c-4.007-0.197-7.529-0.025-8.204-0.058v36.007c0.041,2.148,1.753,3.867,4.048,3.867h0.971
		l0.008,0.716h-14.589l0.008-0.716h0.963c2.263,0,3.966-1.67,4.057-3.769v-33.9c-0.074-2.115-1.786-3.719-4.057-3.719H563.1
		l-0.008-0.708H580.972z"/>
	<path class="st0" d="M631.609,236.245c14.07,0,22.94,8.138,22.94,21.426c0,13.256-8.87,21.377-22.94,21.377h-23.804l0.008-0.716
		h0.955c2.246,0,3.941-1.744,3.999-3.867v-33.67c-0.074-2.255-1.835-3.851-4.073-3.851h-0.872l-0.016-0.708L631.609,236.245z
		 M617.415,276.884h14.227c10.96,0,17.748-7.298,17.748-19.213c0-11.956-6.797-19.287-17.748-19.287h-14.227V276.884z"/>
	<path class="st0" d="M713.562,274.424c0.403,2.468,2.518,3.908,4.871,3.908h1.07v0.716h-14.827v-0.675h1.045
		c1.448-0.008,2.814-1.218,2.617-2.765l-3.752-29.367l-13.445,26.52c0,0-2.049,4.328-2.534,7.282h-0.699l-17.189-33.152
		l-3.201,28.717c-0.165,1.481,1.168,2.756,2.617,2.765h1.045v0.675h-13.239v-0.716h1.07c2.394,0,4.542-1.498,4.888-4.048
		l5.521-39.051h0.699l18.843,36.245l18.209-36.221h0.675L713.562,274.424z"/>
	<path class="st0" d="M761.606,274.177c1.456,2.929,3.604,4.155,5.505,4.155h0.543v0.716h-14.663v-0.708h0.568
		c1.629,0,3.456-1.547,2.526-4.287l-3.9-9.495h-18.053l-3.925,9.298c-1.094,2.863,0.782,4.484,2.452,4.484h0.568v0.708h-13.601
		v-0.716h0.568c1.901,0,4.131-1.21,5.595-4.122l14.77-31.629c-0.016,0,2.6-5.48,2.748-7.348h0.675L761.606,274.177z
		 M751.305,262.419l-8.014-19.526l-8.253,19.526H751.305z"/>
	<path class="st0" d="M820.364,236.237l-0.008,0.708h-1.193c-2.115,0-3.843,1.58-3.966,3.571v30.428c0,4.6,0.683,9.1,0.683,9.1
		h-0.683l-37.109-35.209v29.77c0.041,2.065,1.802,3.727,3.974,3.727h1.185l0.008,0.716h-13.486l0.008-0.716h1.185
		c2.172,0,3.933-1.662,3.974-3.727v-30.527c0-4.871-0.683-8.911-0.683-8.911l0.765,0.033l37.027,34.896v-29.589
		c-0.123-1.983-1.851-3.563-3.966-3.563h-1.185l-0.008-0.716L820.364,236.237z"/>
	<path class="st0" d="M875.205,236.237l-0.008,0.708h-1.193c-2.115,0-3.843,1.58-3.966,3.571v30.428c0,4.6,0.683,9.1,0.683,9.1
		h-0.683l-37.109-35.209v29.77c0.041,2.065,1.802,3.727,3.974,3.727h1.185l0.008,0.716H824.61l0.008-0.716h1.185
		c2.172,0,3.933-1.662,3.974-3.727v-30.527c0-4.871-0.683-8.911-0.683-8.911l0.765,0.033l37.027,34.896v-29.589
		c-0.123-1.983-1.851-3.563-3.966-3.563h-1.185l-0.008-0.716L875.205,236.237z"/>
	<path class="st0" d="M905.197,262.337c-5.044,7.043-8.862,11.478-13.881,11.511c-7.767,0.058-12.499-10.335-7.167-22.981
		c6.064-14.408,20.406-23.105,37.529-20.875c14.383,1.868,22.817,13.198,21.254,27.005c-2.304,20.398-20.612,39.602-51.402,26.544
		l-0.28-0.716c25.162,9.849,44.441-4.155,47.049-25.828c1.629-13.544-5.044-23.352-16.613-24.866
		c-14.317-1.884-26.824,5.422-32.905,19.065c-4.624,10.392-3.555,20.431,2.534,20.513c5.348,0.074,10.532-8.434,14.202-13.428
		l9.068-12.342c0,0,3.308-4.098,3.9-5.488h0.485l2.946,28.807c0.288,2.32,1.563,3.357,2.929,3.357h0.362l-0.091,0.527h-11.289
		l0.099-0.527h0.494c1.045,0,2.896-0.938,2.896-2.625l-0.42-7.652H905.197z M906.333,260.732h10.483l-0.757-13.856L906.333,260.732z
		"/>
	<path class="st0" d="M994.638,270.853c-3.316,4.196-10.269,9.191-20.324,9.191c-14.095-0.074-23.401-8.582-23.401-22.405
		c0-13.889,9.323-22.405,23.385-22.405c6.574,0,11.849,1.382,16.654,4.32l1.572,10.08h-0.625c-2.074-8.343-7.685-12.26-17.666-12.26
		c-10.902,0-18.16,7.702-18.16,20.266c0,12.515,7.298,20.266,18.242,20.266c5.941,0,11.215-1.835,15.683-6.188l0.123-9.479
		c0.016-1.794-1.242-2.806-3.324-2.806h-1.02v-0.708h13.091v0.708h-0.971c-2.09,0-3.267,1.004-3.258,2.831V270.853z"/>
	<path class="st0" d="M1056.457,274.424c0.395,2.468,2.51,3.908,4.863,3.908h1.07v0.716h-14.827v-0.675h1.045
		c1.448-0.008,2.814-1.218,2.617-2.765l-3.752-29.367l-13.437,26.52c0,0-2.049,4.328-2.543,7.282h-0.699l-17.181-33.152
		l-3.209,28.717c-0.165,1.481,1.168,2.756,2.617,2.765h1.045v0.675h-13.231v-0.716h1.061c2.403,0,4.542-1.498,4.888-4.048
		l5.521-39.051h0.699l18.843,36.245l18.209-36.221h0.683L1056.457,274.424z"/>
	<path class="st0" d="M1104.493,274.177c1.456,2.929,3.604,4.155,5.513,4.155h0.535v0.716h-14.654v-0.708h0.568
		c1.629,0,3.456-1.547,2.518-4.287l-3.892-9.495h-18.053l-3.933,9.298c-1.086,2.863,0.79,4.484,2.452,4.484h0.568v0.708h-13.593
		v-0.716h0.568c1.892,0,4.131-1.21,5.595-4.122l14.77-31.629c-0.025,0,2.6-5.48,2.748-7.348h0.675L1104.493,274.177z
		 M1094.199,262.419l-8.023-19.526l-8.245,19.526H1094.199z"/>
	<path class="st0" d="M1114.087,279.048l0.008-0.716h0.954c2.65,0,4.797-1.72,4.846-3.867v-33.653
		c-0.049-2.139-2.197-3.867-4.846-3.867h-0.954l-0.016-0.716h16.168v0.716h-0.963c-2.592,0-4.715,1.654-4.838,3.744v33.834
		c0.082,2.115,2.222,3.81,4.838,3.81h0.954l0.016,0.716H1114.087z"/>
	<path class="st0" d="M1170.969,268.812l-3.933,10.236h-28.98l0.008-0.716h0.979c2.304,0,4.032-1.679,4.122-3.785v-33.736
		c-0.049-2.139-1.934-3.867-4.262-3.867h-0.839l-0.016-0.716h14.786l-0.016,0.716h-0.839c-2.32,0-4.213,1.72-4.262,3.859v36.056
		h11.166c6.854-0.091,9.29-3.431,11.314-8.047H1170.969z"/>
	<path class="st0" d="M1175.56,276.119c0-1.769,1.44-3.209,3.209-3.209c1.777,0,3.217,1.44,3.217,3.209
		c0,1.777-1.44,3.209-3.217,3.209C1177,279.328,1175.56,277.896,1175.56,276.119z"/>
	<path class="st0" d="M1232.606,261.069l-0.749,9.775c-3.711,5.702-11.223,9.199-19.657,9.199
		c-14.457-0.074-23.541-8.582-23.541-22.405c0-13.889,9.1-22.405,23.541-22.405c5.949,0,12.309,1.637,16.712,4.32l1.58,10.08h-0.625
		c-2.189-8.747-8.845-12.26-17.699-12.26c-11.297,0-18.349,7.702-18.349,20.266c0,12.342,7.06,20.093,18.406,20.192
		c10.639,0.099,18.991-5.06,19.756-16.753L1232.606,261.069z"/>
	<path class="st0" d="M1288.542,257.638c0,13.264-10.762,22.405-24.076,22.405c-13.313,0-24.076-9.142-24.076-22.405
		c0-13.256,10.762-22.405,24.076-22.405C1277.779,235.233,1288.542,244.383,1288.542,257.638z M1283.259,257.638
		c0-12.063-8.302-20.266-18.793-20.266c-10.499,0-18.793,8.204-18.793,20.266c0,12.071,8.294,20.274,18.793,20.274
		C1274.957,277.913,1283.259,269.709,1283.259,257.638z"/>
	<path class="st0" d="M1347.497,274.424c0.395,2.468,2.51,3.908,4.863,3.908h1.07v0.716h-14.827v-0.675h1.045
		c1.448-0.008,2.814-1.218,2.617-2.765l-3.752-29.367l-13.445,26.52c0,0-2.041,4.328-2.534,7.282h-0.699l-17.189-33.152
		l-3.201,28.717c-0.165,1.481,1.168,2.756,2.617,2.765h1.045v0.675h-13.239v-0.716h1.07c2.394,0,4.542-1.498,4.888-4.048
		l5.521-39.051h0.699l18.843,36.245l18.209-36.221h0.683L1347.497,274.424z"/>
</g>
</svg>